<svg id="Layer_1" data-name="Layer 1" xmlns="http://www.w3.org/2000/svg" viewBox="0 0 960 960"><defs><style>.cls-1{fill:#848484;}</style></defs><title>Iconos App Quirat</title><path class="cls-1" d="M810.23,357.15a8.91,8.91,0,0,0-1.9-4.67c-8.26-8.54-16.53-17.13-30.17-15.21-2.14.31-4.43-.45-6.66-.72-13.38-1.64-26.66-3.74-39.07-9.37-23-10.41-30.81-30.33-20.91-53.43,5.86-13.72,14.59-25.72,24.74-36.38,7.63-8,11-16.52,10.61-27.41a20.76,20.76,0,0,0-4.5-13,373.51,373.51,0,0,0-65.11-64.37c-4.46-3.47-8.84-4.63-14.41-4.79-10.36-.29-18.48,2.94-26.13,10.15C626,148,613.92,156.59,600.17,162.4c-7.94,3.34-16.17,5.24-24.83,3.49-14.86-3-24-12.56-29.75-26-6-14-8.48-29-9.09-44-.41-10.3-4.13-17.71-11.21-24.68a22.92,22.92,0,0,0-13.54-6.8,296.67,296.67,0,0,0-80.91-1.15c-10.78,1.3-19.35,4.13-26.1,13.17-3.42,4.59-5.64,8.76-5.93,14.48-.75,14.9-2.82,29.64-7.62,43.87-10,29.52-34.08,39.72-61.5,25.11a142.57,142.57,0,0,1-29.86-20.74c-9.32-8.67-19.22-12.55-31.48-11.12-2.55.3-5.41.92-7.4,2.39-23.61,17.34-44.34,37.68-63.42,59.92-7.44,8.69-10.83,17.43-9.14,28.7.72,4.76,1.84,8.62,5.14,12.35,11,12.34,21.59,25,28.77,40.07,4,8.39,6.53,17.08,4.78,26.48-3.26,17.55-15.27,27.16-31.19,31.81-12.07,3.52-24.66,6.58-37.11,7-12.9.42-22.18,5.48-30.13,14.57a12.76,12.76,0,0,0-3.15,6.06c-4.43,30.11-4.36,60.28-1.53,90.56.88,9.55,4.24,16.69,12,22,1.3.89,2.24,2.39,3.59,3.16,2.12,1.21,4.38,2.62,6.71,2.93,12.85,1.73,25.77,2.89,38.57,4.82a79.86,79.86,0,0,1,16.59,4.73c22.74,8.83,31.48,28.44,23,51.28-5.74,15.4-15.23,28.59-26.19,40.51C191.14,585,187.77,593,188,603.42a22.6,22.6,0,0,0,5.13,14.75c19.12,24.15,41.44,44.92,65.79,63.67,3.64,2.81,7.29,3.63,11.83,3.82,11,.44,19.72-2.85,27.94-10.54,11.1-10.39,23.73-19,38.27-24.34,21.41-7.8,41.15.17,51,20.7,2.07,4.3,4.13,8.83,4.93,13.48,2.53,14.48,4.42,29.08,6.68,43.6a11.68,11.68,0,0,0,2.18,5.55c3.57,4.31,7.4,8.43,11.37,12.38a8.85,8.85,0,0,0,4.87,2.46c14.8,1.61,29.61,3,45.24,4.54l25.95-1.94V715q-24.3,0-48.63,0c-4.37,0-5.84-1.87-6.27-6.31-1.75-18.24-5-36.24-13.28-52.82-14.95-30-39.1-45.47-72.89-44.44-17.09.52-32.41,7.24-46.61,16.32-8.35,5.35-16.19,11.48-24.17,17.39-1.84,1.35-3.14,2.26-5.35.44-16-13.11-31.14-27.18-44.36-43.17a3.44,3.44,0,0,1-.51-.93c7.62-11,15.28-21.32,22.06-32.16,8.52-13.59,14.16-28.42,15-44.63,1.58-31.66-15.74-58.66-45.76-71.77-16.5-7.2-34-10.29-51.77-11.64-5.08-.4-7.09-2.1-7.05-7.13.13-18.08.1-36.17,0-54.25,0-4.67,1.75-6.46,6.74-6.9,17-1.49,33.61-4.77,49.38-11.5,31.23-13.31,49.52-40.5,48.48-72.24a80.85,80.85,0,0,0-12-39.6c-6.64-10.91-14.45-21.11-21.78-31.6-1.09-1.56-2.38-3-3.77-4.72a32.11,32.11,0,0,1,2.9-3.84c13.78-13.59,27.63-27.11,41.41-40.71,2.38-2.36,4.17-2.39,6.85-.13,11.92,10,24.5,19.15,38.74,25.67,47.89,21.91,94.1,1,110-50.4,3.94-12.75,5.52-26.26,7.83-39.49.57-3.34,1.3-4.9,5.05-5.32a240.8,240.8,0,0,1,56.09,0c3.74.45,4.7,1.88,5,5.33,1.55,16.47,4.44,32.71,10.8,48.09,11.61,28,31.67,45.85,62.33,50,17.63,2.42,34.27-2,49.39-10.69,11.88-6.86,22.82-15.33,34.14-23.13,1.8-1.24,3.1-3.06,5.71-.91a328.48,328.48,0,0,1,45.57,45.32c-2,2.44-3.84,4.76-5.72,7.11C692,233.67,682.12,247.66,676,263.93c-14,37.39.48,75.4,35.86,93.89,18.07,9.45,37.68,13.31,57.7,15.19,5,.48,6.69,2.36,6.67,7q-.12,27.36,0,54.73c0,4.72-2.14,6.11-6.64,6.48-7.16.6-14.28,1.39-21.32,2.61l43.17,31.81a18.86,18.86,0,0,0,4.22-2.09q18.12-11.54,16.58-33a11.16,11.16,0,0,1,.21-1.9A340,340,0,0,0,810.23,357.15Z"/><path class="cls-1" d="M593.61,407.06c-.52,69.61-57,125.74-126,125.37-69.9-.38-127-57.48-126.33-126.32.69-69.56,58.08-125.87,127.52-125.12S594.13,338.31,593.61,407.06Zm-36.6-.12c-.64-50.6-40.81-90.19-90.64-89.35-48.65.81-89.09,41.44-88.51,88.89a90,90,0,0,0,91.41,89.36C517.54,495.19,557.62,454.58,557,406.94Z"/><polygon class="cls-1" points="686.64 526.83 686.64 452.82 535.83 563.96 586.37 600.71 686.64 526.83"/><polygon class="cls-1" points="585.48 750.45 585.48 601.37 586.37 600.71 535.83 563.96 535.27 564.37 535.27 786.66 586.37 751.11 585.48 750.45"/><polygon class="cls-1" points="786.91 600.72 838.01 565.17 838.01 564.37 686.64 452.82 686.64 526.83 786.91 600.72"/><polygon class="cls-1" points="838.01 565.17 786.91 600.72 787.8 601.37 787.8 750.45 786.91 751.11 837.45 787.87 838.01 787.46 838.01 565.17"/><polygon class="cls-1" points="586.37 751.11 535.27 786.66 535.27 787.46 686.64 899 686.64 825 586.37 751.11"/><polygon class="cls-1" points="686.64 825 686.64 899 837.45 787.87 786.91 751.11 686.64 825"/><polygon class="cls-1" points="686.64 527.95 686.64 526.83 586.37 600.71 586.48 600.79 586.37 600.71 585.48 601.37 585.48 750.45 586.37 751.11 586.48 751.03 586.37 751.11 686.64 825 686.64 823.87 686.64 825 786.91 751.11 786.8 751.03 786.91 751.11 787.8 750.45 787.8 601.37 786.91 600.72 786.8 600.79 786.91 600.72 686.64 526.83 686.64 527.95"/></svg>