<svg id="Layer_1" data-name="Layer 1" xmlns="http://www.w3.org/2000/svg" viewBox="0 0 960 960"><defs><style>.cls-1{fill:#ffc928;}.cls-2{fill:#86b1f2;}.cls-3{fill:#9dc2f9;}.cls-4{fill:#7daef4;}.cls-5{fill:#64a0f9;}.cls-6{fill:#649eff;}.cls-7{fill:#2e6ecc;}.cls-8{fill:#4188ff;}</style></defs><title>Iconos App Quirat</title><path class="cls-1" d="M797.24,148.3c-13.27-5-15.27-15.07-14-27.88,2.53-24.44-2.53-30.31-26.58-30.31q-276.68-.23-553.36,0c-24.09,0-28.88,5.61-26.54,30.31,1.19,12.65-.61,23-14,27.92-60,22.32-98.61,64-114.3,126.38v42.19a12,12,0,0,1,.54,1.84c12.77,81.93,68,125,139.8,153,17.26,6.71,34.37,13.92,49.25,25.39,7.1,5.44,11.58,8.66.23,16.07-26.85,17.45-24.16,47.21,4.49,61.94C269.7,589,303,579.65,320.86,550.84c8.56-13.81,13.35-11.58,21.71-1C363,575.62,387,597.52,415.52,614.05c11.17,6.45,15.85,15.92,15.77,28.54-.16,25.54-.35,51.09.11,76.63.23,14-6.17,19.72-19.67,19.57-15.35-.23-30.69-.39-46,.38-24.93,1.23-39.47,14.88-40.81,39.31a422.59,422.59,0,0,0,.19,53.62c1.76,24.21,15.61,37.4,39.93,37.55q115,.71,230,0c24.28-.15,38.24-13.5,39.93-37.55a424.48,424.48,0,0,0,.19-53.62c-1.38-24.43-16-38.12-40.89-39.31-16-.77-32-.46-47.9-.54-11.7,0-17.69-5.37-17.57-17.49.19-26.85.11-53.66.08-80.51,0-12,5.25-20.67,15.64-26.58,28.77-16.3,52.47-38.47,72.92-64.17,8.4-10.62,13.12-12.77,21.75,1,19.33,30.73,55.77,39.24,83,21.41,23.39-15.27,24.7-43.54,1.11-58-13.43-8.24-8.52-12,.11-18.29,12-8.71,25.24-15,38.9-20.56a540,540,0,0,0,65.32-32c41.76-24,67.65-59.34,78.24-106.17,1.54-6.83,3.72-13.54,5.6-20.29V274.72C896.12,212.09,857,170.85,797.24,148.3ZM261.87,433.09c-43.8-22.71-95.77-29.72-130.33-70.11-39.09-45.72-16.49-128,40.12-149.67C188,207,191.91,217,194.86,229.38c13,54.12,30.88,106.63,52.55,157.84,5.72,13.46,11.81,26.73,17.76,40.12C264.06,429.26,263,431.17,261.87,433.09Zm321.69-30.22-.38.3L480,479.19,376.44,402.87V250.29l.38-.31L480,174l103.56,76.33Zm210.07-11.7c-30.76,16.53-63.9,27.54-95.85,41-4.1-7.55-.07-11.77,2-16.11a1004.38,1004.38,0,0,0,64.82-183.95c5.83-23.44,12.93-26.43,33.1-13.58,33.22,21.14,51.24,51.86,50.82,91.06C848.06,347.79,826.12,373.68,793.63,391.17Z"/><polygon class="cls-2" points="411.14 376.81 411.14 275.33 411.75 274.88 377.34 249.86 376.96 250.14 376.96 401.46 411.75 377.26 411.14 376.81"/><polygon class="cls-3" points="480 224.59 480 174.21 377.34 249.86 411.75 274.88 480 224.59"/><polygon class="cls-4" points="548.25 274.88 583.04 250.69 583.04 250.14 480 174.21 480 224.59 548.25 274.88"/><polygon class="cls-5" points="583.04 250.69 548.25 274.88 548.86 275.33 548.86 376.81 548.25 377.26 582.66 402.28 583.04 402 583.04 250.69"/><polygon class="cls-6" points="411.75 377.26 376.96 401.46 376.96 402 480 477.93 480 427.55 411.75 377.26"/><polygon class="cls-7" points="480 427.55 480 477.93 582.66 402.28 548.25 377.26 480 427.55"/><polygon class="cls-8" points="480 225.35 480 224.59 411.75 274.88 411.82 274.94 411.75 274.88 411.14 275.33 411.14 376.81 411.75 377.26 411.82 377.2 411.75 377.26 480 427.55 480 426.79 480 427.55 548.25 377.26 548.18 377.2 548.25 377.26 548.86 376.81 548.86 275.33 548.25 274.88 548.18 274.94 548.25 274.88 480 224.59 480 225.35"/></svg>