<svg id="Layer_1" data-name="Layer 1" xmlns="http://www.w3.org/2000/svg" viewBox="0 0 960 960"><defs><style>.cls-1{fill:#fe8484;}.cls-2{fill:#fe4d4d;}.cls-3{fill:#fe3939;}.cls-4{fill:#ba0000;}.cls-5{fill:#db0000;}.cls-6{fill:#960000;}.cls-7{fill:#fe2020;}</style></defs><title>Iconos App Quirat</title><path d="M562.87,697c-136.2,71.54-305.72-9.42-335.06-160-.27-1.38-.52-2.74-.76-4.12l49.77,36.56A193.5,193.5,0,0,0,417.7,682.16c44.81,8.51,87.51,2.66,128.1-18.21,10.52-5.41,21.56-2.33,26.52,7.28S573.34,691.55,562.87,697Z"/><path d="M660.79,599.27c-3.58,7-9.24,10.94-17.1,11A17.64,17.64,0,0,1,627.07,600c-3-6-2.56-12,.56-17.95,10.35-19.81,17.62-40.72,20.08-62.93,8.6-77.84-18.05-141-82.53-186a192.08,192.08,0,0,0-117.74-34.62V261.65c110.29-3.52,212.8,71.47,235.23,186.54C693,501,685.28,551.39,660.79,599.27Z"/><path d="M836.49,891c-6,.11-10.47-2.69-14.54-6.75q-65.64-65.52-131.35-131-43.2-43.08-86.43-86.12c-4.86-4.83-7.49-10.4-6.27-17.26,1.31-7.35,5.58-12.49,12.78-14.69a18,18,0,0,1,19,4.68q20.48,20.29,40.86,40.68,88.8,88.5,177.62,177c5.44,5.41,8.46,11.44,6.58,19.22A18.26,18.26,0,0,1,836.49,891Z"/><polygon class="cls-1" points="258.42 143.88 258.42 69 105.31 181.45 156.62 218.65 258.42 143.88"/><polygon class="cls-2" points="155.72 370.16 155.72 219.31 156.62 218.65 105.31 181.45 104.74 181.87 104.74 406.8 156.62 370.82 155.72 370.16"/><polygon class="cls-3" points="360.21 218.65 412.1 182.68 412.1 181.87 258.42 69 258.42 143.88 360.21 218.65"/><polygon class="cls-4" points="412.1 182.68 360.21 218.65 361.12 219.31 361.12 370.16 360.21 370.83 411.53 408.02 412.1 407.6 412.1 182.68"/><polygon class="cls-5" points="156.62 370.82 104.74 406.8 104.74 407.6 258.42 520.47 258.42 445.59 156.62 370.82"/><polygon class="cls-6" points="258.42 445.59 258.42 520.47 411.53 408.02 360.21 370.83 258.42 445.59"/><polygon class="cls-7" points="258.42 145.02 258.42 143.88 156.62 218.65 156.74 218.73 156.62 218.65 155.72 219.31 155.72 370.16 156.62 370.82 156.74 370.74 156.62 370.82 258.42 445.59 258.42 444.45 258.42 445.59 360.21 370.83 360.1 370.74 360.21 370.83 361.12 370.16 361.12 219.31 360.21 218.65 360.1 218.73 360.21 218.65 258.42 143.88 258.42 145.02"/></svg>