<svg id="Layer_1" data-name="Layer 1" xmlns="http://www.w3.org/2000/svg" viewBox="0 0 960 960"><defs><style>.cls-1{fill:#848484;}</style></defs><title>Iconos App Quirat</title><path class="cls-1" d="M793.92,156c-13-4.88-14.91-14.73-13.64-27.25,2.47-23.86-2.47-29.6-26-29.6q-270.28-.23-540.58,0c-23.54,0-28.22,5.47-25.93,29.6,1.16,12.37-.6,22.45-13.68,27.28-58.64,21.81-96.34,62.5-111.66,123.47v41.22a10.7,10.7,0,0,1,.52,1.79c12.48,80,66.4,122.12,136.58,149.44,16.86,6.55,33.57,13.6,48.11,24.8,6.94,5.32,11.32,8.47.23,15.7-26.23,17.05-23.61,46.13,4.38,60.52,26.27,13.52,58.79,4.42,76.25-23.72,8.36-13.49,13-11.32,21.21-.94C369.68,573.41,393.13,594.81,421,611c10.91,6.29,15.48,15.55,15.4,27.88-.15,24.95-.33,49.91.11,74.86.23,13.64-6,19.26-19.22,19.11-15-.22-30-.37-44.92.38-24.36,1.2-38.56,14.54-39.87,38.41a414.23,414.23,0,0,0,.18,52.38c1.73,23.64,15.25,36.53,39,36.68q112.35.68,224.67,0c23.72-.15,37.36-13.19,39-36.68a414.25,414.25,0,0,0,.19-52.38c-1.35-23.87-15.59-37.25-40-38.41-15.58-.75-31.21-.45-46.8-.53-11.42,0-17.27-5.24-17.16-17.08.19-26.23.11-52.42.08-78.65,0-11.73,5.13-20.2,15.29-26,28.1-15.93,51.26-37.58,71.23-62.69,8.2-10.38,12.81-12.48,21.24.94,18.89,30,54.48,38.33,81.13,20.91,22.85-14.92,24.13-42.53,1.08-56.7-13.11-8-8.32-11.76.12-17.87,11.76-8.51,24.65-14.69,38-20.08a526.82,526.82,0,0,0,63.81-31.25c40.81-23.42,66.1-58,76.44-103.72,1.5-6.67,3.64-13.23,5.47-19.82V279.46C890.52,218.27,852.34,178,793.92,156Zm-523,278.21c-42.8-22.18-93.57-29-127.33-68.49-38.18-44.67-16.11-125,39.19-146.21,16-6.15,19.79,3.63,22.67,15.7,12.67,52.87,30.17,104.17,51.34,154.19,5.58,13.15,11.54,26.12,17.35,39.19C273,430.43,272,432.3,270.91,434.17Zm314.26-29.52-.37.3L484,479.21,382.83,404.65V255.59l.37-.3L484,181l101.17,74.57ZM790.4,393.22c-30,16.15-62.43,26.9-93.64,40-4-7.38-.08-11.51,1.91-15.74A981.65,981.65,0,0,0,762,237.79c5.7-22.89,12.63-25.82,32.34-13.26,32.45,20.64,50.06,50.66,49.65,89C843.57,350.84,822.13,376.13,790.4,393.22Z"/></svg>