<svg id="Layer_1" data-name="Layer 1" xmlns="http://www.w3.org/2000/svg" viewBox="0 0 960 960"><defs><style>.cls-1{fill:#848484;}</style></defs><title>Iconos App Quirat</title><path class="cls-1" d="M891.85,765.28c-11.87,31.2-34.9,42-67.58,41.77-151.94-.85-303.89-.41-455.84-.32-17.49,0-34.05-2-47.45-14.9-28.52-27.55-17.74-75.16,20.22-86.67,9.35-2.84,19.72-3.2,29.62-3.22,151.36-.19,302.72.31,454.07-.48,32.82-.17,55.56,11.2,67,42.59Z"/><path class="cls-1" d="M891.85,492.83c-13,30.4-36,40.23-68.65,40-153.81-1.18-307.64-.44-461.46-.59-41.3-.05-67.46-35.07-53.4-70.72,8.37-21.24,26.83-32.82,53.39-32.85q140.56-.15,281.12,0c60.12,0,120.27,1.28,180.33-.51,32.73-1,55.7,9.56,68.67,40Z"/><path class="cls-1" d="M891.85,216.85c-11.11,30.12-33.09,40.53-64.56,40.36-153.3-.81-306.6-.32-459.9-.48-9.34,0-19.09-.24-27.92-2.83-20.93-6.14-35.3-26.93-34.91-48.05.42-22.69,16.76-44.09,38.71-49.21,8.5-2,17.53-2.32,26.32-2.32,151.53-.14,303.06.38,454.59-.48,32.7-.18,55.79,10.53,67.67,41.78Z"/><polygon class="cls-1" points="152.22 131.07 152.22 94 76.43 149.66 101.83 168.08 152.22 131.07"/><polygon class="cls-1" points="101.38 243.08 101.38 168.41 101.83 168.08 76.43 149.66 76.15 149.87 76.15 261.21 101.83 243.41 101.38 243.08"/><polygon class="cls-1" points="202.61 168.08 228.29 150.27 228.29 149.87 152.22 94 152.22 131.07 202.61 168.08"/><polygon class="cls-1" points="228.29 150.27 202.61 168.08 203.06 168.41 203.06 243.08 202.61 243.41 228.01 261.82 228.29 261.62 228.29 150.27"/><polygon class="cls-1" points="101.83 243.41 76.15 261.21 76.15 261.62 152.22 317.49 152.22 280.42 101.83 243.41"/><polygon class="cls-1" points="152.22 280.42 152.22 317.49 228.01 261.82 202.61 243.41 152.22 280.42"/><polygon class="cls-1" points="152.22 131.63 152.22 131.07 101.83 168.08 101.89 168.12 101.83 168.08 101.38 168.41 101.38 243.08 101.83 243.41 101.89 243.37 101.83 243.41 152.22 280.42 152.22 279.85 152.22 280.42 202.61 243.41 202.55 243.37 202.61 243.41 203.06 243.08 203.06 168.41 202.61 168.08 202.55 168.12 202.61 168.08 152.22 131.07 152.22 131.63"/><polygon class="cls-1" points="152.22 405.75 152.22 368.68 76.43 424.35 101.83 442.76 152.22 405.75"/><polygon class="cls-1" points="101.38 517.76 101.38 443.09 101.83 442.76 76.43 424.35 76.15 424.56 76.15 535.9 101.83 518.09 101.38 517.76"/><polygon class="cls-1" points="202.61 442.76 228.29 424.95 228.29 424.56 152.22 368.68 152.22 405.75 202.61 442.76"/><polygon class="cls-1" points="228.29 424.95 202.61 442.76 203.06 443.09 203.06 517.76 202.61 518.09 228.01 536.5 228.29 536.3 228.29 424.95"/><polygon class="cls-1" points="101.83 518.09 76.15 535.9 76.15 536.3 152.22 592.17 152.22 555.1 101.83 518.09"/><polygon class="cls-1" points="152.22 555.1 152.22 592.17 228.01 536.5 202.61 518.09 152.22 555.1"/><polygon class="cls-1" points="152.22 406.31 152.22 405.75 101.83 442.76 101.89 442.8 101.83 442.76 101.38 443.09 101.38 517.76 101.83 518.09 101.89 518.05 101.83 518.09 152.22 555.1 152.22 554.54 152.22 555.1 202.61 518.09 202.55 518.05 202.61 518.09 203.06 517.76 203.06 443.09 202.61 442.76 202.55 442.8 202.61 442.76 152.22 405.75 152.22 406.31"/><polygon class="cls-1" points="152.22 679.58 152.22 642.51 76.43 698.18 101.83 716.59 152.22 679.58"/><polygon class="cls-1" points="101.38 791.59 101.38 716.92 101.83 716.59 76.43 698.18 76.15 698.38 76.15 809.73 101.83 791.92 101.38 791.59"/><polygon class="cls-1" points="202.61 716.59 228.29 698.78 228.29 698.38 152.22 642.51 152.22 679.58 202.61 716.59"/><polygon class="cls-1" points="228.29 698.78 202.61 716.59 203.06 716.92 203.06 791.59 202.61 791.92 228.01 810.34 228.29 810.13 228.29 698.78"/><polygon class="cls-1" points="101.83 791.92 76.15 809.73 76.15 810.13 152.22 866 152.22 828.93 101.83 791.92"/><polygon class="cls-1" points="152.22 828.93 152.22 866 228.01 810.34 202.61 791.92 152.22 828.93"/><polygon class="cls-1" points="152.22 680.15 152.22 679.58 101.83 716.59 101.89 716.63 101.83 716.59 101.38 716.92 101.38 791.59 101.83 791.92 101.89 791.88 101.83 791.92 152.22 828.93 152.22 828.37 152.22 828.93 202.61 791.92 202.55 791.88 202.61 791.92 203.06 791.59 203.06 716.92 202.61 716.59 202.55 716.63 202.61 716.59 152.22 679.58 152.22 680.15"/></svg>