<svg id="Layer_1" data-name="Layer 1" xmlns="http://www.w3.org/2000/svg" viewBox="0 0 960 960"><defs><style>.cls-1{fill:#fe8484;}.cls-2{fill:#fe4d4d;}.cls-3{fill:#fe3939;}.cls-4{fill:#ba0000;}.cls-5{fill:#db0000;}.cls-6{fill:#960000;}.cls-7{fill:#fe2020;}.cls-8{fill:#86b1f2;}.cls-9{fill:#9dc2f9;}.cls-10{fill:#7daef4;}.cls-11{fill:#64a0f9;}.cls-12{fill:#649eff;}.cls-13{fill:#2e6ecc;}.cls-14{fill:#4188ff;}.cls-15{fill:#1bcace;}.cls-16{fill:#17bac7;}.cls-17{fill:#0cbfc4;}.cls-18{fill:#009b9b;}.cls-19{fill:#00a9ae;}.cls-20{fill:#2c8984;}.cls-21{fill:#0cafbd;}</style></defs><title>Iconos App Quirat</title><path d="M887.85,765.28c-11.87,31.2-34.9,42-67.58,41.77-151.94-.85-303.89-.41-455.84-.32-17.49,0-34.05-2-47.45-14.9-28.52-27.55-17.74-75.16,20.22-86.67,9.35-2.84,19.72-3.2,29.62-3.22,151.36-.19,302.72.31,454.07-.48,32.82-.17,55.56,11.2,67,42.59Z"/><path d="M887.85,492.83c-13,30.4-36,40.23-68.65,40-153.81-1.18-307.64-.44-461.46-.59-41.3-.05-67.46-35.07-53.4-70.72,8.37-21.24,26.83-32.82,53.39-32.85q140.56-.15,281.12,0c60.12,0,120.27,1.28,180.33-.51,32.73-1,55.7,9.56,68.67,40Z"/><path d="M887.85,216.85c-11.11,30.12-33.09,40.53-64.56,40.36-153.3-.81-306.6-.32-459.9-.48-9.34,0-19.09-.24-27.92-2.83-20.93-6.14-35.3-26.93-34.91-48.05.42-22.69,16.76-44.09,38.71-49.21,8.5-2,17.53-2.32,26.32-2.32,151.53-.14,303.06.38,454.59-.48,32.7-.18,55.79,10.53,67.67,41.78Z"/><polygon class="cls-1" points="148.22 131.07 148.22 94 72.43 149.66 97.83 168.08 148.22 131.07"/><polygon class="cls-2" points="97.38 243.08 97.38 168.41 97.83 168.08 72.43 149.66 72.15 149.87 72.15 261.21 97.83 243.41 97.38 243.08"/><polygon class="cls-3" points="198.61 168.08 224.29 150.27 224.29 149.87 148.22 94 148.22 131.07 198.61 168.08"/><polygon class="cls-4" points="224.29 150.27 198.61 168.08 199.06 168.41 199.06 243.08 198.61 243.41 224.01 261.82 224.29 261.62 224.29 150.27"/><polygon class="cls-5" points="97.83 243.41 72.15 261.21 72.15 261.62 148.22 317.49 148.22 280.42 97.83 243.41"/><polygon class="cls-6" points="148.22 280.42 148.22 317.49 224.01 261.82 198.61 243.41 148.22 280.42"/><polygon class="cls-7" points="148.22 131.63 148.22 131.07 97.83 168.08 97.89 168.12 97.83 168.08 97.38 168.41 97.38 243.08 97.83 243.41 97.89 243.37 97.83 243.41 148.22 280.42 148.22 279.85 148.22 280.42 198.61 243.41 198.55 243.37 198.61 243.41 199.06 243.08 199.06 168.41 198.61 168.08 198.55 168.12 198.61 168.08 148.22 131.07 148.22 131.63"/><polygon class="cls-8" points="97.38 517.76 97.38 443.09 97.83 442.76 72.43 424.35 72.15 424.55 72.15 535.9 97.83 518.09 97.38 517.76"/><polygon class="cls-9" points="148.22 405.75 148.22 368.68 72.43 424.35 97.83 442.76 148.22 405.75"/><polygon class="cls-10" points="198.61 442.76 224.29 424.95 224.29 424.55 148.22 368.68 148.22 405.75 198.61 442.76"/><polygon class="cls-11" points="224.29 424.95 198.61 442.76 199.06 443.09 199.06 517.76 198.61 518.09 224.01 536.5 224.29 536.3 224.29 424.95"/><polygon class="cls-12" points="97.83 518.09 72.15 535.9 72.15 536.3 148.22 592.17 148.22 555.1 97.83 518.09"/><polygon class="cls-13" points="148.22 555.1 148.22 592.17 224.01 536.5 198.61 518.09 148.22 555.1"/><polygon class="cls-14" points="148.22 406.31 148.22 405.75 97.83 442.76 97.89 442.8 97.83 442.76 97.38 443.09 97.38 517.76 97.83 518.09 97.89 518.05 97.83 518.09 148.22 555.1 148.22 554.54 148.22 555.1 198.61 518.09 198.55 518.05 198.61 518.09 199.06 517.76 199.06 443.09 198.61 442.76 198.55 442.8 198.61 442.76 148.22 405.75 148.22 406.31"/><polygon class="cls-15" points="148.22 679.58 148.22 642.51 72.43 698.18 97.83 716.59 148.22 679.58"/><polygon class="cls-16" points="97.38 791.59 97.38 716.92 97.83 716.59 72.43 698.18 72.15 698.38 72.15 809.73 97.83 791.92 97.38 791.59"/><polygon class="cls-17" points="198.61 716.59 224.29 698.78 224.29 698.38 148.22 642.51 148.22 679.58 198.61 716.59"/><polygon class="cls-18" points="224.29 698.78 198.61 716.59 199.06 716.92 199.06 791.59 198.61 791.92 224.01 810.34 224.29 810.13 224.29 698.78"/><polygon class="cls-19" points="97.83 791.92 72.15 809.73 72.15 810.13 148.22 866 148.22 828.93 97.83 791.92"/><polygon class="cls-20" points="148.22 828.93 148.22 866 224.01 810.34 198.61 791.92 148.22 828.93"/><polygon class="cls-21" points="148.22 680.15 148.22 679.58 97.83 716.59 97.89 716.63 97.83 716.59 97.38 716.92 97.38 791.59 97.83 791.92 97.89 791.88 97.83 791.92 148.22 828.93 148.22 828.37 148.22 828.93 198.61 791.92 198.55 791.88 198.61 791.92 199.06 791.59 199.06 716.92 198.61 716.59 198.55 716.63 198.61 716.59 148.22 679.58 148.22 680.15"/></svg>