<svg id="Layer_1" data-name="Layer 1" xmlns="http://www.w3.org/2000/svg" viewBox="0 0 285.98 421.98"><defs><style>.cls-1{fill:#a9a9a9;stroke:#a9a9a9;stroke-miterlimit:10;}.cls-2{fill:#595959;}</style></defs><title>Incognito</title><polygon class="cls-1" points="142.99 70.65 142.99 0.99 1.03 105.6 48.61 140.2 142.99 70.65"/><polygon class="cls-1" points="47.77 281.16 47.77 140.82 48.61 140.2 1.03 105.6 0.5 105.99 0.5 315.24 48.6 281.77 47.77 281.16"/><polygon class="cls-1" points="237.38 140.21 285.48 106.74 285.48 105.99 142.99 0.99 142.99 70.65 237.38 140.21"/><polygon class="cls-1" points="285.48 106.74 237.38 140.21 238.22 140.82 238.22 281.16 237.38 281.78 284.96 316.38 285.48 315.99 285.48 106.74"/><polygon class="cls-1" points="48.6 281.77 0.5 315.24 0.5 315.99 142.99 420.99 142.99 351.33 48.6 281.77"/><polygon class="cls-1" points="142.99 351.33 142.99 420.99 284.96 316.38 237.38 281.78 142.99 351.33"/><polygon class="cls-1" points="142.99 71.71 142.99 70.65 48.61 140.2 48.71 140.28 48.61 140.2 47.77 140.82 47.77 281.16 48.6 281.77 48.71 281.7 48.6 281.77 142.99 351.33 142.99 350.27 142.99 351.33 237.38 281.78 237.27 281.7 237.38 281.78 238.22 281.16 238.22 140.82 237.38 140.21 237.27 140.28 237.38 140.21 142.99 70.65 142.99 71.71"/><path class="cls-2" d="M371.06,249.63c-.11,14.48-6.42,26.11-16.29,35.9-8.3,8.24-17,16.1-25.81,23.77-8.31,7.22-13.61,15.91-15.13,26.84-.09.66-.27,1.31-.42,2-2.28,9.88-8.77,14.82-18.32,14s-15.62-7.28-16.1-17c-.74-14.7,3.35-27.89,13.76-38.48,8.07-8.21,16.83-15.74,25.2-23.67a87.75,87.75,0,0,0,7.72-8.18c10.63-13,5.58-31.27-9.37-38.28-10.31-4.83-20.94-4.34-31.34.09-4.88,2.08-8.3,6-10.69,10.57-3,5.67-5.36,11.65-8,17.5a65.51,65.51,0,0,1-3.09,6.82c-4.58,7.62-13,10.54-21.5,7.61A18.84,18.84,0,0,1,229,249.55c2.13-19.73,12.66-34.05,28.87-44.66,11.7-7.66,24.68-11.24,38.55-11.85,13.6-.59,26.88.92,39.41,6.59,16.53,7.48,28.38,19.26,33.14,37.18C370.11,241,370.4,245.35,371.06,249.63Z" transform="translate(-157.01 -89.01)"/><path class="cls-2" d="M297.84,407.08c-13.13-.24-21.67-9.09-21.43-22.2.22-11.79,10.06-20.71,22.58-20.45,11.89.25,20.54,9.74,20.32,22.31C319.11,398.47,309.8,407.29,297.84,407.08Z" transform="translate(-157.01 -89.01)"/></svg>