<svg id="Layer_1" data-name="Layer 1" xmlns="http://www.w3.org/2000/svg" viewBox="0 0 1920 960"><defs><style>.cls-1{fill:#fe8484;}.cls-2{fill:#fe4d4d;}.cls-3{fill:#fe3939;}.cls-4{fill:#ba0000;}.cls-5{fill:#db0000;}.cls-6{fill:#960000;}.cls-7{fill:#fe2020;}</style></defs><title>Logo</title><polygon class="cls-1" points="1013.6 180.17 1013.6 144 939.9 198.31 964.6 216.28 1013.6 180.17"/><polygon class="cls-2" points="964.17 289.45 964.17 216.6 964.6 216.28 939.9 198.31 939.63 198.51 939.63 307.15 964.6 289.77 964.17 289.45"/><polygon class="cls-3" points="1062.61 216.28 1087.58 198.9 1087.58 198.51 1013.6 144 1013.6 180.17 1062.61 216.28"/><polygon class="cls-4" points="1087.58 198.9 1062.61 216.28 1063.04 216.6 1063.04 289.45 1062.6 289.77 1087.31 307.74 1087.58 307.54 1087.58 198.9"/><polygon class="cls-5" points="964.6 289.77 939.63 307.15 939.63 307.54 1013.6 362.05 1013.6 325.88 964.6 289.77"/><polygon class="cls-6" points="1013.6 325.88 1013.6 362.05 1087.31 307.74 1062.6 289.77 1013.6 325.88"/><polygon class="cls-7" points="1013.6 180.72 1013.6 180.17 964.6 216.28 964.66 216.31 964.6 216.28 964.17 216.6 964.17 289.45 964.6 289.77 964.66 289.74 964.6 289.77 1013.6 325.88 1013.6 325.33 1013.6 325.88 1062.6 289.77 1062.55 289.74 1062.6 289.77 1063.04 289.45 1063.04 216.6 1062.61 216.28 1062.55 216.31 1062.61 216.28 1013.6 180.17 1013.6 180.72"/><path d="M331.88,660.32,330.52,659q-5.44.67-12.24,1t-16.31.33q-109.46,0-177.43-62.54-67.31-63.21-67.3-169.27,0-99.93,67.3-162.47,68-63.89,172.67-63.9a291.27,291.27,0,0,1,48.61,4.08A300.67,300.67,0,0,1,392,217.77a240.5,240.5,0,0,1,41.81,18.7A195.49,195.49,0,0,1,469.2,262q70,63.9,70,180.15,0,46.23-20.39,90.41t-55.07,74.1q-32.62,27.2-76.82,42.15h-2L287,701.11l1.36,1.36q7.47-.69,11.56-1c2.72-.23,4.52-.34,5.44-.34q12.9,0,26.51,1t26.51,2.38a429.74,429.74,0,0,1,94.49,23.11L491,740.54q52.34,19,95.17,19,60.51,0,70.71-44.87h13.59Q656.14,816,548.06,816q-34,0-70-15.63-19.73-8.16-58.47-33.32Q374,738.51,345.48,727.62q-32.64-10.87-57.11-10.87-31.28,0-60.5,24.47Q208.15,757.54,200,757.54c-7.71,0-11.56-3.64-11.56-10.88q0-8.83,17-18.35l31.27-15.64a53.8,53.8,0,0,0,7.81-4.08q4.42-2.73,11.22-6.12h1.36ZM132.7,431.23q0,91.11,28.55,142.76,12.24,23.81,36,40.79Q238.07,646.06,302,646.05q77.49,0,120-55.06t42.49-154.32q0-107.4-42.15-162.81t-124.4-55.41q-81.58,0-123.39,54.73T132.7,431.23Z"/><path d="M879.8,555.64q0,61.18,4.76,68,7.47,14.28,36,14.28h2.72v15.64h-6.8q-42.16,0-70.7,10.87h-3.4q-10.89-18.35-10.88-65.26h-1.36Q788,664.41,720,664.4a93.45,93.45,0,0,1-51-14.61q-23.12-14.61-29.23-37-4.77-15.63-4.76-49V467.26q0-57.76-5.44-66.62-7.49-14.28-37.39-14.27h-4.08V370.73H684V566.51q0,41.47,12.23,58.13t42.83,16.65q38.74,0,69.34-36,14.94-18.36,19-34.67,3.39-10.2,3.4-38.75V467.26q0-57.76-5.43-66.62-7.5-14.28-37.39-14.27h-6.8V370.73H879.8Z"/><path d="M1045.66,561.07q0,55.06,4.76,63.91,6.78,12.91,34.67,12.91h7.47v15.64H947.09V637.89H958q24.48,0,32.3-7.48t7.81-34V479.5q0-52.35-6.79-63.9-6.12-10.87-35.35-10.88h-8.84V389.08q28.54-3.39,51-7.14a177.06,177.06,0,0,0,40.11-11.21h7.48Z"/><path d="M1200.64,370.73q9.51,29.92,9.52,69.34h1.36q12.24-30.6,36.71-50t51-19.37q17.67,0,31.27,12.58t13.6,28.89q0,23.12-21.75,23.11-17,0-25.15-24.47-5.46-16.32-18.36-16.32-16.32,0-37.39,23.12-19,21.08-23.79,43.5-4.08,15.64-4.08,50.31v48.94q0,57.11,4.76,64.59,7.47,13.59,35.35,13.59h9.52v15H1119.07v-15h6.79q24.48,0,32.29-8.16t7.82-34.67V483.58q0-56.43-4.76-65.26-6.8-12.92-35.35-12.92h-6.79v-15q23.78-3.39,76.81-18.35Z"/><path d="M1657.47,603.22q-3.42,55.06-55.75,55.06-44.19,0-53-46.22-67.31,46.23-109.45,46.22-28.56,0-47.59-15.63t-19-39.43q0-40.1,45.54-69.34,32.64-21.06,78.86-41.47L1548.7,472v-13.6q0-41.44-13.6-57.44t-48.95-16q-49.62,0-54.38,29.92l-1.36,7.47q-6.12,29.92-28.55,29.92-19,0-19-19.72,0-23.79,32-42.83,32.64-19,76.82-19,82.25,0,99.94,51,4.74,11.57,4.75,44.19V599.14q0,36.71,21.76,36.71,21.06,0,27.19-32.63ZM1512,502.61q-85,34.67-85,86.33,0,47.59,40.79,47.59,29.22,0,80.9-42.15V487.65Z"/><path d="M1766.91,386.37V557q0,47.6,9.52,65.27t33.31,17.67q23.1,0,43.51-27.87l9.51,6.12q-22.42,45.54-72.74,45.54-44.19,0-61.86-34-9.53-20.38-9.52-82.93V386.37h-41.46V370.73Q1741.76,368,1756,283h10.88v87.7h86.34v15.64Z"/></svg>