<?xml version="1.0" encoding="utf-8"?>
<!-- Generator: Adobe Illustrator 22.1.0, SVG Export Plug-In . SVG Version: 6.00 Build 0)  -->
<svg version="1.1" id="Layer_1" xmlns="http://www.w3.org/2000/svg" xmlns:xlink="http://www.w3.org/1999/xlink" x="0px" y="0px"
	 viewBox="0 0 600 600" style="enable-background:new 0 0 600 600;" xml:space="preserve">
<style type="text/css">
	.st0{fill:#A9A9A9;stroke:#A9A9A9;stroke-miterlimit:10;}
	.st1{fill:none;stroke:#A9A9A9;stroke-width:7;stroke-linecap:round;stroke-miterlimit:10;}
	.st2{fill:#6B6B6B;}
	.st3{fill:#595959;}
</style>
<g>
	<g>
		<g>
			<polygon class="st0" points="298.9,154.7 298.9,119.7 227.5,172.3 251.4,189.7 			"/>
			<polygon class="st0" points="251,260.7 251,190 251.4,189.7 227.5,172.3 227.2,172.5 227.2,277.8 251.4,261 			"/>
			<polygon class="st0" points="346.4,189.7 370.7,172.9 370.7,172.5 298.9,119.7 298.9,154.7 			"/>
			<polygon class="st0" points="370.7,172.9 346.4,189.7 346.9,190 346.9,260.7 346.4,261 370.4,278.4 370.7,278.2 			"/>
			<polygon class="st0" points="251.4,261 227.2,277.8 227.2,278.2 298.9,331 298.9,296 			"/>
			<polygon class="st0" points="298.9,296 298.9,331 370.4,278.4 346.4,261 			"/>
			<polygon class="st0" points="298.9,155.2 298.9,154.7 251.4,189.7 251.5,189.8 251.4,189.7 251,190 251,260.7 251.4,261 
				251.5,260.9 251.4,261 298.9,296 298.9,295.4 298.9,296 346.4,261 346.4,260.9 346.4,261 346.9,260.7 346.9,190 346.4,189.7 
				346.4,189.8 346.4,189.7 298.9,154.7 			"/>
		</g>
		<line class="st1" x1="292" y1="86.4" x2="371.6" y2="86.4"/>
		<line class="st1" x1="145.6" y1="254.8" x2="188.7" y2="254.8"/>
		<g>
			<line class="st1" x1="218.8" y1="86.4" x2="235.1" y2="86.4"/>
			<line class="st1" x1="226.9" y1="94.6" x2="226.9" y2="78.3"/>
		</g>
		<g>
			<line class="st1" x1="194.7" y1="219.6" x2="211" y2="219.6"/>
			<line class="st1" x1="202.8" y1="227.8" x2="202.8" y2="211.5"/>
		</g>
		<g>
			<line class="st1" x1="156.1" y1="290.7" x2="172.4" y2="290.7"/>
			<line class="st1" x1="164.3" y1="298.9" x2="164.3" y2="282.6"/>
		</g>
		<g>
			<line class="st1" x1="332.1" y1="117.8" x2="348.4" y2="117.8"/>
			<line class="st1" x1="340.2" y1="125.9" x2="340.2" y2="109.6"/>
		</g>
		<g>
			<line class="st1" x1="308" y1="349.2" x2="324.3" y2="349.2"/>
			<line class="st1" x1="316.1" y1="357.3" x2="316.1" y2="341"/>
		</g>
		<g>
			<line class="st1" x1="397.2" y1="266" x2="413.4" y2="266"/>
			<line class="st1" x1="405.3" y1="274.1" x2="405.3" y2="257.9"/>
		</g>
		<line class="st1" x1="331.8" y1="329.3" x2="398.1" y2="329.3"/>
		<line class="st1" x1="411.9" y1="238.5" x2="455" y2="238.5"/>
		<line class="st1" x1="145" y1="175.9" x2="199.5" y2="175.9"/>
		<line class="st1" x1="156.4" y1="119.8" x2="222.4" y2="119.8"/>
		<line class="st1" x1="383.6" y1="130.7" x2="426.7" y2="130.7"/>
		<line class="st1" x1="177.5" y1="333.5" x2="249.2" y2="333.5"/>
	</g>
	<g>
		<path class="st2" d="M230.7,424.5c-3.6-2-6.4-4.9-8.4-8.5c-2-3.6-3-7.6-3-12.1c0-4.5,1-8.5,3-12.1c2-3.6,4.8-6.4,8.4-8.4
			c3.6-2,7.6-3.1,12.1-3.1c4.4,0,8.5,1,12.1,3.1c3.6,2,6.4,4.9,8.4,8.4c2,3.6,3,7.6,3,12.1c0,4.5-1,8.5-3,12.1
			c-2,3.6-4.8,6.4-8.4,8.5c-3.6,2-7.6,3.1-12.1,3.1C238.3,427.6,234.2,426.5,230.7,424.5z M252.5,420.7c2.9-1.7,5.2-4,6.8-6.9
			c1.7-2.9,2.5-6.2,2.5-9.8c0-3.6-0.8-6.8-2.5-9.8c-1.7-2.9-3.9-5.2-6.8-6.9c-2.9-1.7-6.1-2.5-9.7-2.5c-3.6,0-6.9,0.8-9.8,2.5
			c-2.9,1.7-5.2,4-6.8,6.9c-1.7,2.9-2.5,6.2-2.5,9.8c0,3.6,0.8,6.9,2.5,9.8c1.7,2.9,3.9,5.2,6.8,6.9c2.9,1.7,6.1,2.5,9.8,2.5
			C246.3,423.2,249.6,422.4,252.5,420.7z"/>
		<path class="st2" d="M281.5,425.1c-2.5-1.4-4.5-3.4-5.9-5.9c-1.4-2.5-2.1-5.3-2.1-8.4c0-3.1,0.7-5.9,2.1-8.4
			c1.4-2.5,3.4-4.5,5.9-5.9c2.5-1.4,5.3-2.1,8.4-2.1c3.1,0,5.9,0.7,8.4,2.1c2.5,1.4,4.4,3.4,5.9,5.9c1.4,2.5,2.2,5.3,2.2,8.4
			c0,3.1-0.7,5.9-2.1,8.4c-1.4,2.5-3.4,4.5-5.9,5.9c-2.5,1.4-5.3,2.1-8.4,2.1C286.8,427.3,284,426.6,281.5,425.1z M296,421.5
			c1.8-1.1,3.2-2.5,4.2-4.4c1-1.9,1.5-4,1.5-6.3c0-2.4-0.5-4.5-1.5-6.3s-2.4-3.3-4.2-4.4c-1.8-1.1-3.9-1.6-6.1-1.6
			c-2.2,0-4.3,0.5-6.1,1.6c-1.8,1.1-3.3,2.5-4.3,4.4c-1,1.9-1.6,4-1.6,6.3c0,2.3,0.5,4.4,1.6,6.3c1,1.9,2.5,3.3,4.3,4.4
			c1.8,1.1,3.9,1.6,6.1,1.6C292.2,423.1,294.2,422.6,296,421.5z"/>
		<path class="st2" d="M339.9,396.6c2.5,1.4,4.5,3.4,5.9,5.9c1.4,2.5,2.2,5.3,2.2,8.4c0,3.1-0.7,5.9-2.1,8.3
			c-1.4,2.5-3.3,4.5-5.7,5.9c-2.4,1.4-5.1,2.2-8.1,2.2c-2.6,0-4.9-0.5-7-1.6c-2.1-1.1-3.9-2.6-5.3-4.5v17.3c0,0.7-0.2,1.2-0.6,1.7
			c-0.4,0.4-1,0.6-1.7,0.6c-0.7,0-1.2-0.2-1.6-0.6c-0.4-0.4-0.6-1-0.6-1.7v-13.2c0-0.1-0.1-0.3-0.1-0.5v-13.9c0-3.1,0.7-5.9,2.2-8.4
			c1.4-2.5,3.4-4.5,5.9-5.9c2.5-1.4,5.3-2.2,8.3-2.2S337.4,395.1,339.9,396.6z M337.6,421.5c1.8-1.1,3.3-2.5,4.3-4.4
			c1-1.9,1.6-4,1.6-6.3c0-2.3-0.5-4.4-1.6-6.3c-1-1.9-2.5-3.3-4.3-4.4c-1.8-1.1-3.9-1.6-6.1-1.6s-4.3,0.5-6.1,1.6
			c-1.8,1.1-3.2,2.6-4.3,4.4c-1,1.9-1.6,4-1.6,6.3c0,0.7,0,1.2,0.1,1.5c0,0.1,0.1,0.2,0.1,0.3c0.4,3.1,1.7,5.6,3.9,7.6
			c2.2,2,4.8,2.9,7.9,2.9C333.8,423.1,335.8,422.6,337.6,421.5z"/>
		<path class="st2" d="M361.1,426c-2.2-0.8-4.1-2-5.4-3.5c-0.4-0.5-0.6-0.9-0.6-1.4c0-0.7,0.3-1.3,0.9-1.8c0.5-0.4,1-0.5,1.5-0.5
			c0.7,0,1.2,0.3,1.7,0.8c0.9,1.1,2.2,1.9,3.7,2.5c1.6,0.6,3.3,0.9,5.2,0.9c2.8,0,4.8-0.5,6.2-1.4c1.4-0.9,2.1-2.2,2.1-3.7
			c0-1.4-0.7-2.6-2.1-3.5c-1.4-0.9-3.6-1.7-6.5-2.1c-3.9-0.6-6.7-1.7-8.6-3.3c-1.9-1.6-2.9-3.4-2.9-5.6c0-2.9,1.1-5.1,3.3-6.7
			c2.2-1.6,5-2.4,8.3-2.4c2.6,0,4.9,0.4,6.8,1.3c1.9,0.9,3.5,2.1,4.7,3.7c0.3,0.5,0.5,1,0.5,1.4c0,0.7-0.3,1.2-0.9,1.6
			c-0.3,0.2-0.6,0.3-1.1,0.3c-0.8,0-1.5-0.3-2.1-0.9c-1.9-2.2-4.6-3.3-7.9-3.3c-2.2,0-3.9,0.4-5.2,1.3c-1.3,0.9-1.9,2-1.9,3.3
			c0,1.4,0.6,2.5,1.8,3.4c1.2,0.8,3.4,1.5,6.5,2c4.2,0.7,7.2,1.9,9,3.5c1.8,1.6,2.7,3.6,2.7,5.9c0,1.8-0.5,3.4-1.6,4.8
			c-1.1,1.4-2.6,2.5-4.5,3.3c-1.9,0.8-4.1,1.2-6.5,1.2C365.7,427.3,363.3,426.9,361.1,426z"/>
	</g>
	<g>
		<g>
			<g>
				<path class="st3" d="M130.3,483.2c-0.2-0.2-0.3-0.5-0.3-0.7v-19c0-0.3,0.1-0.6,0.3-0.8c0.2-0.2,0.5-0.3,0.7-0.3
					c0.3,0,0.6,0.1,0.8,0.3c0.2,0.2,0.3,0.5,0.3,0.8v19c0,0.3-0.1,0.5-0.3,0.7c-0.2,0.2-0.4,0.3-0.8,0.3
					C130.8,483.5,130.5,483.4,130.3,483.2z"/>
				<path class="st3" d="M147.7,469.3c1,0.5,1.8,1.3,2.4,2.4s0.9,2.3,0.9,3.7v7c0,0.3-0.1,0.5-0.3,0.7c-0.2,0.2-0.4,0.3-0.7,0.3
					c-0.3,0-0.6-0.1-0.8-0.3c-0.2-0.2-0.3-0.4-0.3-0.7v-7c0-1.6-0.4-2.8-1.3-3.7s-2.1-1.3-3.5-1.3c-0.9,0-1.7,0.2-2.4,0.5
					s-1.3,0.8-1.7,1.4s-0.6,1.3-0.6,2v8c0,0.3-0.1,0.6-0.3,0.7s-0.4,0.3-0.7,0.3s-0.6-0.1-0.8-0.3c-0.2-0.2-0.3-0.4-0.3-0.7v-12.7
					c0-0.3,0.1-0.6,0.3-0.8c0.2-0.2,0.4-0.3,0.8-0.3s0.6,0.1,0.7,0.3c0.2,0.2,0.3,0.5,0.3,0.8v0.9c0.6-0.7,1.3-1.2,2.2-1.6
					c0.8-0.4,1.8-0.6,2.8-0.6C145.5,468.5,146.7,468.8,147.7,469.3z"/>
				<path class="st3" d="M156,465.5c-0.3-0.3-0.4-0.6-0.4-1.1c0-0.4,0.1-0.8,0.4-1.1c0.3-0.3,0.6-0.4,1.1-0.4c0.4,0,0.7,0.1,1,0.4
					c0.3,0.3,0.4,0.6,0.4,1.1c0,0.4-0.1,0.8-0.4,1.1c-0.3,0.3-0.6,0.4-1.1,0.4C156.6,465.9,156.2,465.7,156,465.5z M156.3,483.2
					c-0.2-0.2-0.3-0.4-0.3-0.8v-12.7c0-0.3,0.1-0.6,0.3-0.8c0.2-0.2,0.4-0.3,0.8-0.3c0.3,0,0.6,0.1,0.7,0.3c0.2,0.2,0.3,0.5,0.3,0.8
					v12.7c0,0.3-0.1,0.6-0.3,0.8c-0.2,0.2-0.4,0.3-0.7,0.3C156.7,483.5,156.5,483.4,156.3,483.2z"/>
				<path class="st3" d="M166.1,482.6c-1.1-0.7-2-1.6-2.6-2.7c-0.6-1.1-1-2.4-1-3.8c0-1.4,0.3-2.7,0.9-3.9c0.6-1.1,1.5-2,2.5-2.7
					s2.3-1,3.6-1c2.3,0,4.1,0.9,5.5,2.6c0.1,0.2,0.2,0.4,0.2,0.6c0,0.3-0.2,0.5-0.5,0.8c-0.2,0.1-0.3,0.2-0.5,0.2
					c-0.3,0-0.5-0.1-0.8-0.4c-0.5-0.6-1.1-1-1.8-1.3c-0.6-0.3-1.4-0.4-2.2-0.4c-1,0-1.9,0.2-2.6,0.7c-0.8,0.5-1.4,1.1-1.8,2
					c-0.4,0.9-0.6,1.8-0.6,2.9c0,1.1,0.2,2,0.7,2.9c0.4,0.9,1.1,1.5,1.9,2c0.8,0.5,1.7,0.7,2.8,0.7c1.4,0,2.6-0.4,3.5-1.2
					c0.2-0.2,0.5-0.3,0.7-0.3c0.2,0,0.4,0.1,0.6,0.2c0.3,0.2,0.4,0.5,0.4,0.7c0,0.2-0.1,0.4-0.3,0.6c-1.3,1.2-2.9,1.8-4.9,1.8
					C168.5,483.6,167.3,483.3,166.1,482.6z"/>
				<path class="st3" d="M179.9,465.5c-0.3-0.3-0.4-0.6-0.4-1.1c0-0.4,0.1-0.8,0.4-1.1c0.3-0.3,0.6-0.4,1.1-0.4c0.4,0,0.7,0.1,1,0.4
					c0.3,0.3,0.4,0.6,0.4,1.1c0,0.4-0.1,0.8-0.4,1.1c-0.3,0.3-0.6,0.4-1.1,0.4C180.5,465.9,180.1,465.7,179.9,465.5z M180.2,483.2
					c-0.2-0.2-0.3-0.4-0.3-0.8v-12.7c0-0.3,0.1-0.6,0.3-0.8c0.2-0.2,0.4-0.3,0.8-0.3c0.3,0,0.6,0.1,0.7,0.3c0.2,0.2,0.3,0.5,0.3,0.8
					v12.7c0,0.3-0.1,0.6-0.3,0.8c-0.2,0.2-0.4,0.3-0.7,0.3C180.6,483.5,180.4,483.4,180.2,483.2z"/>
				<path class="st3" d="M197.8,469.5c1.1,0.7,2,1.6,2.7,2.7c0.7,1.2,1,2.4,1,3.8v6.3c0,0.3-0.1,0.5-0.3,0.7
					c-0.2,0.2-0.5,0.3-0.8,0.3c-0.3,0-0.6-0.1-0.8-0.3c-0.2-0.2-0.3-0.4-0.3-0.7v-1.6c-0.6,0.9-1.4,1.5-2.4,2c-1,0.5-2,0.7-3.2,0.7
					c-1.4,0-2.6-0.3-3.7-1c-1.1-0.7-2-1.6-2.6-2.7c-0.6-1.1-1-2.4-1-3.8c0-1.4,0.3-2.7,1-3.8c0.7-1.2,1.6-2.1,2.7-2.7
					c1.1-0.7,2.4-1,3.8-1C195.4,468.6,196.6,468.9,197.8,469.5z M196.7,481c0.8-0.5,1.5-1.2,2-2c0.5-0.9,0.7-1.8,0.7-2.9
					c0-1.1-0.2-2-0.7-2.9c-0.5-0.9-1.1-1.5-2-2c-0.8-0.5-1.8-0.7-2.8-0.7c-1,0-2,0.2-2.8,0.7s-1.5,1.2-2,2c-0.5,0.9-0.7,1.8-0.7,2.9
					c0,1.1,0.2,2,0.7,2.9c0.5,0.9,1.1,1.5,2,2c0.8,0.5,1.8,0.7,2.8,0.7C195,481.7,195.9,481.5,196.7,481z"/>
				<path class="st3" d="M215.4,483c-1-0.4-1.9-0.9-2.5-1.6c-0.2-0.2-0.3-0.4-0.3-0.6c0-0.3,0.1-0.6,0.4-0.8
					c0.2-0.2,0.4-0.2,0.7-0.2c0.3,0,0.6,0.1,0.8,0.4c0.4,0.5,1,0.9,1.7,1.2c0.7,0.3,1.5,0.4,2.4,0.4c1.3,0,2.2-0.2,2.8-0.6
					c0.6-0.4,1-1,1-1.7c0-0.6-0.3-1.2-0.9-1.6c-0.6-0.4-1.6-0.8-3-1c-1.8-0.3-3.1-0.8-4-1.5c-0.9-0.7-1.3-1.6-1.3-2.6
					c0-1.3,0.5-2.3,1.5-3.1c1-0.7,2.3-1.1,3.8-1.1c1.2,0,2.2,0.2,3.1,0.6c0.9,0.4,1.6,1,2.1,1.7c0.1,0.2,0.2,0.4,0.2,0.6
					c0,0.3-0.1,0.5-0.4,0.7c-0.1,0.1-0.3,0.1-0.5,0.1c-0.4,0-0.7-0.1-0.9-0.4c-0.9-1-2.1-1.5-3.6-1.5c-1,0-1.8,0.2-2.4,0.6
					c-0.6,0.4-0.9,0.9-0.9,1.5c0,0.6,0.3,1.2,0.8,1.6c0.6,0.4,1.5,0.7,3,0.9c1.9,0.3,3.3,0.9,4.1,1.6c0.8,0.7,1.2,1.6,1.2,2.7
					c0,0.8-0.2,1.6-0.7,2.2s-1.2,1.2-2.1,1.5c-0.9,0.4-1.9,0.5-3,0.5C217.5,483.6,216.4,483.4,215.4,483z"/>
				<path class="st3" d="M237.8,469.5c1,0.6,1.8,1.5,2.4,2.6c0.6,1.1,0.9,2.3,0.9,3.8c0,0.3-0.1,0.5-0.3,0.7
					c-0.2,0.2-0.4,0.3-0.7,0.3h-10.9c0.1,1.5,0.7,2.7,1.7,3.6c1,0.9,2.3,1.4,3.8,1.4c0.6,0,1.3-0.1,2-0.3c0.7-0.2,1.2-0.5,1.6-0.9
					c0.2-0.2,0.5-0.3,0.7-0.3c0.2,0,0.4,0.1,0.6,0.2c0.2,0.2,0.4,0.5,0.4,0.7c0,0.2-0.1,0.4-0.3,0.6c-0.6,0.5-1.4,0.9-2.3,1.3
					s-1.8,0.5-2.6,0.5c-1.4,0-2.7-0.3-3.9-1c-1.1-0.6-2-1.5-2.7-2.7c-0.6-1.1-1-2.4-1-3.9c0-1.5,0.3-2.8,0.9-3.9s1.4-2,2.5-2.7
					c1.1-0.6,2.3-1,3.7-1C235.6,468.6,236.8,468.9,237.8,469.5z M230.9,471.7c-0.9,0.8-1.4,2-1.6,3.3h9.9c-0.1-1.4-0.6-2.5-1.5-3.3
					c-0.9-0.8-2-1.3-3.3-1.3C232.9,470.4,231.8,470.8,230.9,471.7z"/>
				<path class="st3" d="M246.5,483c-1-0.4-1.9-0.9-2.5-1.6c-0.2-0.2-0.3-0.4-0.3-0.6c0-0.3,0.1-0.6,0.4-0.8
					c0.2-0.2,0.4-0.2,0.7-0.2c0.3,0,0.6,0.1,0.8,0.4c0.4,0.5,1,0.9,1.7,1.2c0.7,0.3,1.5,0.4,2.4,0.4c1.3,0,2.2-0.2,2.8-0.6
					c0.6-0.4,1-1,1-1.7c0-0.6-0.3-1.2-0.9-1.6c-0.6-0.4-1.6-0.8-3-1c-1.8-0.3-3.1-0.8-4-1.5c-0.9-0.7-1.3-1.6-1.3-2.6
					c0-1.3,0.5-2.3,1.5-3.1c1-0.7,2.3-1.1,3.8-1.1c1.2,0,2.2,0.2,3.1,0.6c0.9,0.4,1.6,1,2.1,1.7c0.1,0.2,0.2,0.4,0.2,0.6
					c0,0.3-0.1,0.5-0.4,0.7c-0.1,0.1-0.3,0.1-0.5,0.1c-0.4,0-0.7-0.1-0.9-0.4c-0.9-1-2.1-1.5-3.6-1.5c-1,0-1.8,0.2-2.4,0.6
					c-0.6,0.4-0.9,0.9-0.9,1.5c0,0.6,0.3,1.2,0.8,1.6c0.6,0.4,1.5,0.7,3,0.9c1.9,0.3,3.3,0.9,4.1,1.6c0.8,0.7,1.2,1.6,1.2,2.7
					c0,0.8-0.2,1.6-0.7,2.2s-1.2,1.2-2.1,1.5c-0.9,0.4-1.9,0.5-3,0.5C248.6,483.6,247.5,483.4,246.5,483z"/>
				<path class="st3" d="M259.5,465.5c-0.3-0.3-0.4-0.6-0.4-1.1c0-0.4,0.1-0.8,0.4-1.1c0.3-0.3,0.6-0.4,1.1-0.4c0.4,0,0.7,0.1,1,0.4
					c0.3,0.3,0.4,0.6,0.4,1.1c0,0.4-0.1,0.8-0.4,1.1c-0.3,0.3-0.6,0.4-1.1,0.4C260.2,465.9,259.8,465.7,259.5,465.5z M259.8,483.2
					c-0.2-0.2-0.3-0.4-0.3-0.8v-12.7c0-0.3,0.1-0.6,0.3-0.8c0.2-0.2,0.4-0.3,0.8-0.3c0.3,0,0.6,0.1,0.7,0.3c0.2,0.2,0.3,0.5,0.3,0.8
					v12.7c0,0.3-0.1,0.6-0.3,0.8c-0.2,0.2-0.4,0.3-0.7,0.3C260.3,483.5,260,483.4,259.8,483.2z"/>
				<path class="st3" d="M269.8,482.6c-1.1-0.6-2-1.5-2.7-2.7s-1-2.4-1-3.8c0-1.4,0.3-2.7,1-3.9s1.5-2.1,2.7-2.7
					c1.1-0.6,2.4-1,3.8-1s2.7,0.3,3.8,1c1.1,0.6,2,1.5,2.7,2.7s1,2.4,1,3.9c0,1.4-0.3,2.7-1,3.8s-1.5,2-2.7,2.7s-2.4,1-3.8,1
					S270.9,483.3,269.8,482.6z M276.4,481c0.8-0.5,1.5-1.2,1.9-2c0.5-0.9,0.7-1.8,0.7-2.9c0-1.1-0.2-2-0.7-2.9s-1.1-1.5-1.9-2
					c-0.8-0.5-1.8-0.7-2.8-0.7c-1,0-2,0.2-2.8,0.7c-0.8,0.5-1.5,1.2-2,2c-0.5,0.9-0.7,1.8-0.7,2.9c0,1.1,0.2,2,0.7,2.9
					c0.5,0.9,1.1,1.5,2,2c0.8,0.5,1.8,0.7,2.8,0.7C274.7,481.7,275.6,481.5,276.4,481z M272.7,466.1c-0.2-0.2-0.3-0.5-0.3-0.7
					c0-0.3,0.1-0.5,0.2-0.7l3.1-3.1c0.2-0.2,0.4-0.3,0.7-0.3c0.3,0,0.6,0.1,0.8,0.3c0.2,0.2,0.3,0.5,0.3,0.8c0,0.3-0.1,0.5-0.3,0.7
					l-3,3.1c-0.2,0.2-0.4,0.3-0.7,0.3C273.1,466.5,272.9,466.3,272.7,466.1z"/>
				<path class="st3" d="M295.6,469.3c1,0.5,1.8,1.3,2.4,2.4s0.9,2.3,0.9,3.7v7c0,0.3-0.1,0.5-0.3,0.7c-0.2,0.2-0.4,0.3-0.7,0.3
					c-0.3,0-0.6-0.1-0.8-0.3c-0.2-0.2-0.3-0.4-0.3-0.7v-7c0-1.6-0.4-2.8-1.3-3.7s-2.1-1.3-3.5-1.3c-0.9,0-1.7,0.2-2.4,0.5
					s-1.3,0.8-1.7,1.4s-0.6,1.3-0.6,2v8c0,0.3-0.1,0.6-0.3,0.7s-0.4,0.3-0.7,0.3s-0.6-0.1-0.8-0.3c-0.2-0.2-0.3-0.4-0.3-0.7v-12.7
					c0-0.3,0.1-0.6,0.3-0.8c0.2-0.2,0.4-0.3,0.8-0.3s0.6,0.1,0.7,0.3c0.2,0.2,0.3,0.5,0.3,0.8v0.9c0.6-0.7,1.3-1.2,2.2-1.6
					c0.8-0.4,1.8-0.6,2.8-0.6C293.5,468.5,294.6,468.8,295.6,469.3z"/>
				<path class="st3" d="M322.7,469.5c1.1,0.7,2,1.6,2.7,2.7c0.7,1.2,1,2.4,1,3.8c0,1.4-0.3,2.7-1,3.8c-0.6,1.1-1.5,2-2.6,2.7
					c-1.1,0.7-2.3,1-3.7,1c-1.2,0-2.2-0.2-3.2-0.7s-1.8-1.2-2.4-2v7.9c0,0.3-0.1,0.6-0.3,0.8c-0.2,0.2-0.4,0.3-0.8,0.3
					s-0.6-0.1-0.7-0.3c-0.2-0.2-0.3-0.5-0.3-0.8v-6c0-0.1,0-0.1,0-0.2v-6.3c0-1.4,0.3-2.7,1-3.8c0.7-1.2,1.6-2.1,2.7-2.7
					c1.1-0.7,2.4-1,3.8-1S321.6,468.9,322.7,469.5z M321.7,481c0.8-0.5,1.5-1.2,2-2c0.5-0.9,0.7-1.8,0.7-2.9c0-1.1-0.2-2-0.7-2.9
					c-0.5-0.9-1.1-1.5-2-2s-1.8-0.7-2.8-0.7s-2,0.2-2.8,0.7s-1.5,1.2-2,2c-0.5,0.9-0.7,1.8-0.7,2.9c0,0.3,0,0.5,0,0.7
					c0,0,0,0.1,0,0.1c0.2,1.4,0.8,2.6,1.8,3.5c1,0.9,2.2,1.4,3.6,1.4C319.9,481.7,320.8,481.5,321.7,481z"/>
				<path class="st3" d="M341,469.5c1.1,0.7,2,1.6,2.7,2.7c0.7,1.2,1,2.4,1,3.8v6.3c0,0.3-0.1,0.5-0.3,0.7c-0.2,0.2-0.5,0.3-0.8,0.3
					c-0.3,0-0.6-0.1-0.8-0.3c-0.2-0.2-0.3-0.4-0.3-0.7v-1.6c-0.6,0.9-1.4,1.5-2.4,2c-1,0.5-2,0.7-3.2,0.7c-1.4,0-2.6-0.3-3.7-1
					c-1.1-0.7-2-1.6-2.6-2.7c-0.6-1.1-1-2.4-1-3.8c0-1.4,0.3-2.7,1-3.8c0.7-1.2,1.6-2.1,2.7-2.7c1.1-0.7,2.4-1,3.8-1
					C338.6,468.6,339.9,468.9,341,469.5z M340,481c0.8-0.5,1.5-1.2,2-2c0.5-0.9,0.7-1.8,0.7-2.9c0-1.1-0.2-2-0.7-2.9
					c-0.5-0.9-1.1-1.5-2-2c-0.8-0.5-1.8-0.7-2.8-0.7c-1,0-2,0.2-2.8,0.7s-1.5,1.2-2,2c-0.5,0.9-0.7,1.8-0.7,2.9c0,1.1,0.2,2,0.7,2.9
					c0.5,0.9,1.1,1.5,2,2c0.8,0.5,1.8,0.7,2.8,0.7C338.2,481.7,339.1,481.5,340,481z"/>
				<path class="st3" d="M357.2,468.8c0.4,0.2,0.7,0.5,0.7,0.8c0,0.1,0,0.2,0,0.2c-0.1,0.3-0.2,0.4-0.3,0.5
					c-0.2,0.1-0.4,0.1-0.6,0.1c-0.2,0-0.4,0-0.8-0.1c-0.1,0-0.4,0-0.6,0c-1.3,0-2.5,0.4-3.3,1.1c-0.9,0.7-1.3,1.7-1.3,2.8v8.1
					c0,0.3-0.1,0.6-0.3,0.8c-0.2,0.2-0.4,0.3-0.8,0.3c-0.3,0-0.6-0.1-0.8-0.3c-0.2-0.2-0.3-0.4-0.3-0.8v-12.7c0-0.3,0.1-0.6,0.3-0.8
					c0.2-0.2,0.4-0.3,0.8-0.3c0.3,0,0.6,0.1,0.8,0.3c0.2,0.2,0.3,0.4,0.3,0.8v1.2c0.5-0.8,1.2-1.3,2-1.8c0.8-0.4,1.7-0.6,2.6-0.6
					C356.2,468.5,356.8,468.6,357.2,468.8z"/>
				<path class="st3" d="M370.3,469.5c1.1,0.7,2,1.6,2.7,2.7c0.7,1.2,1,2.4,1,3.8v6.3c0,0.3-0.1,0.5-0.3,0.7
					c-0.2,0.2-0.5,0.3-0.8,0.3c-0.3,0-0.6-0.1-0.8-0.3c-0.2-0.2-0.3-0.4-0.3-0.7v-1.6c-0.6,0.9-1.4,1.5-2.4,2c-1,0.5-2,0.7-3.2,0.7
					c-1.4,0-2.6-0.3-3.7-1c-1.1-0.7-2-1.6-2.6-2.7c-0.6-1.1-1-2.4-1-3.8c0-1.4,0.3-2.7,1-3.8c0.7-1.2,1.6-2.1,2.7-2.7
					c1.1-0.7,2.4-1,3.8-1C367.8,468.6,369.1,468.9,370.3,469.5z M369.2,481c0.8-0.5,1.5-1.2,2-2c0.5-0.9,0.7-1.8,0.7-2.9
					c0-1.1-0.2-2-0.7-2.9c-0.5-0.9-1.1-1.5-2-2c-0.8-0.5-1.8-0.7-2.8-0.7c-1,0-2,0.2-2.8,0.7s-1.5,1.2-2,2c-0.5,0.9-0.7,1.8-0.7,2.9
					c0,1.1,0.2,2,0.7,2.9c0.5,0.9,1.1,1.5,2,2c0.8,0.5,1.8,0.7,2.8,0.7C367.5,481.7,368.4,481.5,369.2,481z"/>
				<path class="st3" d="M395.7,469.5c1,0.6,1.8,1.5,2.4,2.6c0.6,1.1,0.9,2.3,0.9,3.8c0,0.3-0.1,0.5-0.3,0.7
					c-0.2,0.2-0.4,0.3-0.7,0.3h-10.9c0.1,1.5,0.7,2.7,1.7,3.6c1,0.9,2.3,1.4,3.8,1.4c0.6,0,1.3-0.1,2-0.3c0.7-0.2,1.2-0.5,1.6-0.9
					c0.2-0.2,0.5-0.3,0.7-0.3c0.2,0,0.4,0.1,0.6,0.2c0.2,0.2,0.4,0.5,0.4,0.7c0,0.2-0.1,0.4-0.3,0.6c-0.6,0.5-1.4,0.9-2.3,1.3
					s-1.8,0.5-2.6,0.5c-1.4,0-2.7-0.3-3.9-1c-1.1-0.6-2-1.5-2.7-2.7c-0.6-1.1-1-2.4-1-3.9c0-1.5,0.3-2.8,0.9-3.9s1.4-2,2.5-2.7
					c1.1-0.6,2.3-1,3.7-1C393.5,468.6,394.7,468.9,395.7,469.5z M388.8,471.7c-0.9,0.8-1.4,2-1.6,3.3h9.9c-0.1-1.4-0.6-2.5-1.5-3.3
					c-0.9-0.8-2-1.3-3.3-1.3C390.8,470.4,389.7,470.8,388.8,471.7z"/>
				<path class="st3" d="M412.9,469.3c1,0.5,1.8,1.3,2.4,2.4s0.9,2.3,0.9,3.7v7c0,0.3-0.1,0.5-0.3,0.7c-0.2,0.2-0.4,0.3-0.7,0.3
					c-0.3,0-0.6-0.1-0.8-0.3c-0.2-0.2-0.3-0.4-0.3-0.7v-7c0-1.6-0.4-2.8-1.3-3.7s-2.1-1.3-3.5-1.3c-0.9,0-1.7,0.2-2.4,0.5
					s-1.3,0.8-1.7,1.4s-0.6,1.3-0.6,2v8c0,0.3-0.1,0.6-0.3,0.7s-0.4,0.3-0.7,0.3s-0.6-0.1-0.8-0.3c-0.2-0.2-0.3-0.4-0.3-0.7v-12.7
					c0-0.3,0.1-0.6,0.3-0.8c0.2-0.2,0.4-0.3,0.8-0.3s0.6,0.1,0.7,0.3c0.2,0.2,0.3,0.5,0.3,0.8v0.9c0.6-0.7,1.3-1.2,2.2-1.6
					c0.8-0.4,1.8-0.6,2.8-0.6C410.7,468.5,411.9,468.8,412.9,469.3z"/>
				<path class="st3" d="M428,481.7c0.2,0.2,0.3,0.5,0.3,0.8c0,0.3-0.1,0.5-0.3,0.7c-0.2,0.2-0.5,0.3-0.8,0.3h-0.6
					c-1,0-1.8-0.2-2.6-0.7s-1.3-1.1-1.8-1.9c-0.4-0.8-0.6-1.7-0.6-2.7V471h-1.8c-0.3,0-0.5-0.1-0.7-0.3c-0.2-0.2-0.3-0.4-0.3-0.6
					c0-0.3,0.1-0.5,0.3-0.7c0.2-0.2,0.4-0.3,0.7-0.3h1.8V465c0-0.3,0.1-0.6,0.3-0.8c0.2-0.2,0.4-0.3,0.7-0.3c0.3,0,0.6,0.1,0.8,0.3
					c0.2,0.2,0.3,0.5,0.3,0.8v4.2h3.1c0.3,0,0.5,0.1,0.7,0.3c0.2,0.2,0.3,0.4,0.3,0.7c0,0.3-0.1,0.5-0.3,0.6
					c-0.2,0.2-0.4,0.3-0.7,0.3h-3.1v7.2c0,0.9,0.3,1.7,0.8,2.3c0.5,0.6,1.2,0.9,2.1,0.9h0.7C427.6,481.4,427.8,481.5,428,481.7z"/>
				<path class="st3" d="M440.1,468.8c0.4,0.2,0.7,0.5,0.7,0.8c0,0.1,0,0.2,0,0.2c-0.1,0.3-0.2,0.4-0.3,0.5
					c-0.2,0.1-0.4,0.1-0.6,0.1c-0.2,0-0.4,0-0.8-0.1c-0.1,0-0.4,0-0.6,0c-1.3,0-2.5,0.4-3.3,1.1c-0.9,0.7-1.3,1.7-1.3,2.8v8.1
					c0,0.3-0.1,0.6-0.3,0.8c-0.2,0.2-0.4,0.3-0.8,0.3c-0.3,0-0.6-0.1-0.8-0.3c-0.2-0.2-0.3-0.4-0.3-0.8v-12.7c0-0.3,0.1-0.6,0.3-0.8
					c0.2-0.2,0.4-0.3,0.8-0.3c0.3,0,0.6,0.1,0.8,0.3c0.2,0.2,0.3,0.4,0.3,0.8v1.2c0.5-0.8,1.2-1.3,2-1.8c0.8-0.4,1.7-0.6,2.6-0.6
					C439,468.5,439.6,468.6,440.1,468.8z"/>
				<path class="st3" d="M453.1,469.5c1.1,0.7,2,1.6,2.7,2.7c0.7,1.2,1,2.4,1,3.8v6.3c0,0.3-0.1,0.5-0.3,0.7
					c-0.2,0.2-0.5,0.3-0.8,0.3c-0.3,0-0.6-0.1-0.8-0.3c-0.2-0.2-0.3-0.4-0.3-0.7v-1.6c-0.6,0.9-1.4,1.5-2.4,2c-1,0.5-2,0.7-3.2,0.7
					c-1.4,0-2.6-0.3-3.7-1c-1.1-0.7-2-1.6-2.6-2.7c-0.6-1.1-1-2.4-1-3.8c0-1.4,0.3-2.7,1-3.8c0.7-1.2,1.6-2.1,2.7-2.7
					c1.1-0.7,2.4-1,3.8-1C450.7,468.6,452,468.9,453.1,469.5z M452.1,481c0.8-0.5,1.5-1.2,2-2c0.5-0.9,0.7-1.8,0.7-2.9
					c0-1.1-0.2-2-0.7-2.9c-0.5-0.9-1.1-1.5-2-2c-0.8-0.5-1.8-0.7-2.8-0.7c-1,0-2,0.2-2.8,0.7s-1.5,1.2-2,2c-0.5,0.9-0.7,1.8-0.7,2.9
					c0,1.1,0.2,2,0.7,2.9c0.5,0.9,1.1,1.5,2,2c0.8,0.5,1.8,0.7,2.8,0.7C450.3,481.7,451.2,481.5,452.1,481z"/>
				<path class="st3" d="M469.3,468.8c0.4,0.2,0.7,0.5,0.7,0.8c0,0.1,0,0.2,0,0.2c-0.1,0.3-0.2,0.4-0.3,0.5
					c-0.2,0.1-0.4,0.1-0.6,0.1c-0.2,0-0.4,0-0.8-0.1c-0.1,0-0.4,0-0.6,0c-1.3,0-2.5,0.4-3.3,1.1c-0.9,0.7-1.3,1.7-1.3,2.8v8.1
					c0,0.3-0.1,0.6-0.3,0.8c-0.2,0.2-0.4,0.3-0.8,0.3c-0.3,0-0.6-0.1-0.8-0.3c-0.2-0.2-0.3-0.4-0.3-0.8v-12.7c0-0.3,0.1-0.6,0.3-0.8
					c0.2-0.2,0.4-0.3,0.8-0.3c0.3,0,0.6,0.1,0.8,0.3c0.2,0.2,0.3,0.4,0.3,0.8v1.2c0.5-0.8,1.2-1.3,2-1.8c0.8-0.4,1.7-0.6,2.6-0.6
					C468.3,468.5,468.9,468.6,469.3,468.8z"/>
			</g>
			<g>
				<path class="st3" d="M227.3,501.9c1.1,0.7,2,1.6,2.7,2.7c0.7,1.2,1,2.4,1,3.8v6.3c0,0.3-0.1,0.5-0.3,0.7
					c-0.2,0.2-0.5,0.3-0.8,0.3c-0.3,0-0.6-0.1-0.8-0.3c-0.2-0.2-0.3-0.4-0.3-0.7v-1.6c-0.6,0.9-1.4,1.5-2.4,2c-1,0.5-2,0.7-3.2,0.7
					c-1.4,0-2.6-0.3-3.7-1c-1.1-0.7-2-1.6-2.6-2.7c-0.6-1.1-1-2.4-1-3.8c0-1.4,0.3-2.7,1-3.8c0.7-1.2,1.6-2.1,2.7-2.7
					c1.1-0.7,2.4-1,3.8-1C224.9,501,226.1,501.3,227.3,501.9z M226.2,513.4c0.8-0.5,1.5-1.2,2-2c0.5-0.9,0.7-1.8,0.7-2.9
					c0-1.1-0.2-2-0.7-2.9c-0.5-0.9-1.1-1.5-2-2c-0.8-0.5-1.8-0.7-2.8-0.7c-1,0-2,0.2-2.8,0.7s-1.5,1.2-2,2c-0.5,0.9-0.7,1.8-0.7,2.9
					c0,1.1,0.2,2,0.7,2.9c0.5,0.9,1.1,1.5,2,2c0.8,0.5,1.8,0.7,2.8,0.7C224.5,514.1,225.4,513.9,226.2,513.4z"/>
				<path class="st3" d="M250.1,514.1c0.2,0.2,0.3,0.5,0.3,0.8c0,0.3-0.1,0.5-0.3,0.7c-0.2,0.2-0.5,0.3-0.8,0.3h-0.6
					c-1,0-1.8-0.2-2.6-0.7s-1.3-1.1-1.8-1.9c-0.4-0.8-0.6-1.7-0.6-2.7v-7.2H242c-0.3,0-0.5-0.1-0.7-0.3c-0.2-0.2-0.3-0.4-0.3-0.6
					c0-0.3,0.1-0.5,0.3-0.7c0.2-0.2,0.4-0.3,0.7-0.3h1.8v-4.2c0-0.3,0.1-0.6,0.3-0.8c0.2-0.2,0.4-0.3,0.7-0.3c0.3,0,0.6,0.1,0.8,0.3
					c0.2,0.2,0.3,0.5,0.3,0.8v4.2h3.1c0.3,0,0.5,0.1,0.7,0.3c0.2,0.2,0.3,0.4,0.3,0.7c0,0.3-0.1,0.5-0.3,0.6
					c-0.2,0.2-0.4,0.3-0.7,0.3h-3.1v7.2c0,0.9,0.3,1.7,0.8,2.3c0.5,0.6,1.2,0.9,2.1,0.9h0.7C249.7,513.8,250,513.9,250.1,514.1z"/>
				<path class="st3" d="M266.9,501.4c0.2,0.2,0.3,0.4,0.3,0.7v12.7c0,0.3-0.1,0.6-0.3,0.8c-0.2,0.2-0.4,0.3-0.8,0.3
					s-0.6-0.1-0.7-0.3c-0.2-0.2-0.3-0.4-0.3-0.8v-0.9c-0.6,0.7-1.3,1.2-2.2,1.6c-0.8,0.4-1.8,0.6-2.8,0.6c-1.3,0-2.4-0.3-3.4-0.8
					c-1-0.5-1.8-1.3-2.4-2.4c-0.6-1-0.9-2.3-0.9-3.7v-7c0-0.3,0.1-0.5,0.3-0.7c0.2-0.2,0.4-0.3,0.7-0.3c0.3,0,0.6,0.1,0.8,0.3
					c0.2,0.2,0.3,0.4,0.3,0.7v7c0,1.6,0.4,2.8,1.3,3.7c0.9,0.8,2.1,1.3,3.5,1.3c0.9,0,1.7-0.2,2.4-0.5c0.7-0.3,1.3-0.8,1.7-1.4
					s0.6-1.3,0.6-2v-8c0-0.3,0.1-0.6,0.3-0.7c0.2-0.2,0.4-0.3,0.7-0.3S266.7,501.2,266.9,501.4z"/>
				<path class="st3" d="M274,515.4c-1-0.4-1.9-0.9-2.5-1.6c-0.2-0.2-0.3-0.4-0.3-0.6c0-0.3,0.1-0.6,0.4-0.8
					c0.2-0.2,0.4-0.2,0.7-0.2c0.3,0,0.6,0.1,0.8,0.4c0.4,0.5,1,0.9,1.7,1.2c0.7,0.3,1.5,0.4,2.4,0.4c1.3,0,2.2-0.2,2.8-0.6
					c0.6-0.4,1-1,1-1.7c0-0.6-0.3-1.2-0.9-1.6c-0.6-0.4-1.6-0.8-3-1c-1.8-0.3-3.1-0.8-4-1.5c-0.9-0.7-1.3-1.6-1.3-2.6
					c0-1.3,0.5-2.3,1.5-3.1c1-0.7,2.3-1.1,3.8-1.1c1.2,0,2.2,0.2,3.1,0.6c0.9,0.4,1.6,1,2.1,1.7c0.1,0.2,0.2,0.4,0.2,0.6
					c0,0.3-0.1,0.5-0.4,0.7c-0.1,0.1-0.3,0.1-0.5,0.1c-0.4,0-0.7-0.1-0.9-0.4c-0.9-1-2.1-1.5-3.6-1.5c-1,0-1.8,0.2-2.4,0.6
					c-0.6,0.4-0.9,0.9-0.9,1.5c0,0.6,0.3,1.2,0.8,1.6c0.6,0.4,1.5,0.7,3,0.9c1.9,0.3,3.3,0.9,4.1,1.6c0.8,0.7,1.2,1.6,1.2,2.7
					c0,0.8-0.2,1.6-0.7,2.2s-1.2,1.2-2.1,1.5c-0.9,0.4-1.9,0.5-3,0.5C276.1,516,275,515.8,274,515.4z"/>
				<path class="st3" d="M295,514.6c-0.7-0.9-1-2-1-3.4v-15.4c0-0.3,0.1-0.6,0.3-0.7c0.2-0.2,0.4-0.3,0.7-0.3c0.3,0,0.6,0.1,0.7,0.3
					c0.2,0.2,0.3,0.4,0.3,0.7v15.4c0,0.8,0.2,1.4,0.5,1.9c0.3,0.5,0.7,0.7,1.2,0.7h0.7c0.3,0,0.5,0.1,0.6,0.3s0.2,0.4,0.2,0.7
					s-0.1,0.6-0.3,0.7c-0.2,0.2-0.5,0.3-0.9,0.3h-0.4C296.6,515.9,295.7,515.4,295,514.6z"/>
				<path class="st3" d="M304.5,515c-1.1-0.6-2-1.5-2.7-2.7s-1-2.4-1-3.8c0-1.4,0.3-2.7,1-3.9s1.5-2.1,2.7-2.7c1.1-0.6,2.4-1,3.8-1
					s2.7,0.3,3.8,1c1.1,0.6,2,1.5,2.7,2.7s1,2.4,1,3.9c0,1.4-0.3,2.7-1,3.8s-1.5,2-2.7,2.7s-2.4,1-3.8,1S305.7,515.7,304.5,515z
					 M311.2,513.4c0.8-0.5,1.5-1.2,1.9-2c0.5-0.9,0.7-1.8,0.7-2.9c0-1.1-0.2-2-0.7-2.9s-1.1-1.5-1.9-2c-0.8-0.5-1.8-0.7-2.8-0.7
					c-1,0-2,0.2-2.8,0.7c-0.8,0.5-1.5,1.2-2,2c-0.5,0.9-0.7,1.8-0.7,2.9c0,1.1,0.2,2,0.7,2.9c0.5,0.9,1.1,1.5,2,2
					c0.8,0.5,1.8,0.7,2.8,0.7C309.4,514.1,310.3,513.9,311.2,513.4z"/>
				<path class="st3" d="M330.5,501.9c1.1,0.6,2,1.5,2.7,2.7s1,2.4,1,3.9v5.5c0,1.4-0.3,2.7-1,3.9c-0.6,1.2-1.5,2.1-2.7,2.8
					c-1.1,0.7-2.4,1-3.8,1c-1.4,0-2.6-0.3-3.7-0.8c-1.1-0.5-2-1.3-2.7-2.2c-0.2-0.2-0.2-0.4-0.2-0.6c0-0.3,0.1-0.5,0.4-0.7
					c0.2-0.1,0.4-0.2,0.6-0.2c0.2,0,0.3,0,0.5,0.1s0.3,0.2,0.4,0.3c0.5,0.7,1.2,1.2,2.1,1.6s1.8,0.6,2.8,0.6c1,0,1.9-0.2,2.7-0.7
					c0.8-0.5,1.5-1.2,1.9-2.1s0.7-1.9,0.7-3.1v-1.2c-0.5,1-1.3,1.8-2.3,2.4c-1,0.6-2.1,0.9-3.4,0.9c-1.4,0-2.7-0.3-3.8-1
					c-1.1-0.6-2-1.5-2.6-2.7c-0.6-1.1-0.9-2.4-0.9-3.9c0-1.5,0.3-2.8,1-3.9s1.5-2,2.7-2.7c1.1-0.6,2.4-1,3.8-1
					C328.1,501,329.4,501.3,330.5,501.9z M329.5,513.4c0.8-0.5,1.5-1.1,1.9-2s0.7-1.8,0.7-2.9s-0.2-2-0.7-2.9s-1.1-1.5-1.9-2
					c-0.8-0.5-1.8-0.7-2.8-0.7c-1.1,0-2,0.2-2.8,0.7c-0.8,0.5-1.5,1.2-1.9,2c-0.5,0.9-0.7,1.8-0.7,2.9s0.2,2,0.7,2.9
					c0.5,0.9,1.1,1.5,1.9,2c0.8,0.5,1.8,0.7,2.8,0.7C327.7,514.1,328.6,513.9,329.5,513.4z"/>
				<path class="st3" d="M346.7,501.2c0.4,0.2,0.7,0.5,0.7,0.8c0,0.1,0,0.2,0,0.2c-0.1,0.3-0.2,0.4-0.3,0.5
					c-0.2,0.1-0.4,0.1-0.6,0.1c-0.2,0-0.4,0-0.8-0.1c-0.1,0-0.4,0-0.6,0c-1.3,0-2.5,0.4-3.3,1.1c-0.9,0.7-1.3,1.7-1.3,2.8v8.1
					c0,0.3-0.1,0.6-0.3,0.8c-0.2,0.2-0.4,0.3-0.8,0.3c-0.3,0-0.6-0.1-0.8-0.3c-0.2-0.2-0.3-0.4-0.3-0.8v-12.7c0-0.3,0.1-0.6,0.3-0.8
					c0.2-0.2,0.4-0.3,0.8-0.3c0.3,0,0.6,0.1,0.8,0.3c0.2,0.2,0.3,0.4,0.3,0.8v1.2c0.5-0.8,1.2-1.3,2-1.8c0.8-0.4,1.7-0.6,2.6-0.6
					C345.6,500.9,346.2,501,346.7,501.2z"/>
				<path class="st3" d="M352,515c-1.1-0.6-2-1.5-2.7-2.7s-1-2.4-1-3.8c0-1.4,0.3-2.7,1-3.9s1.5-2.1,2.7-2.7c1.1-0.6,2.4-1,3.8-1
					s2.7,0.3,3.8,1c1.1,0.6,2,1.5,2.7,2.7s1,2.4,1,3.9c0,1.4-0.3,2.7-1,3.8s-1.5,2-2.7,2.7s-2.4,1-3.8,1S353.2,515.7,352,515z
					 M358.7,513.4c0.8-0.5,1.5-1.2,1.9-2c0.5-0.9,0.7-1.8,0.7-2.9c0-1.1-0.2-2-0.7-2.9s-1.1-1.5-1.9-2c-0.8-0.5-1.8-0.7-2.8-0.7
					c-1,0-2,0.2-2.8,0.7c-0.8,0.5-1.5,1.2-2,2c-0.5,0.9-0.7,1.8-0.7,2.9c0,1.1,0.2,2,0.7,2.9c0.5,0.9,1.1,1.5,2,2
					c0.8,0.5,1.8,0.7,2.8,0.7C356.9,514.1,357.9,513.9,358.7,513.4z"/>
				<path class="st3" d="M369.4,515.4c-1-0.4-1.9-0.9-2.5-1.6c-0.2-0.2-0.3-0.4-0.3-0.6c0-0.3,0.1-0.6,0.4-0.8
					c0.2-0.2,0.4-0.2,0.7-0.2c0.3,0,0.6,0.1,0.8,0.4c0.4,0.5,1,0.9,1.7,1.2c0.7,0.3,1.5,0.4,2.4,0.4c1.3,0,2.2-0.2,2.8-0.6
					c0.6-0.4,1-1,1-1.7c0-0.6-0.3-1.2-0.9-1.6c-0.6-0.4-1.6-0.8-3-1c-1.8-0.3-3.1-0.8-4-1.5c-0.9-0.7-1.3-1.6-1.3-2.6
					c0-1.3,0.5-2.3,1.5-3.1c1-0.7,2.3-1.1,3.8-1.1c1.2,0,2.2,0.2,3.1,0.6c0.9,0.4,1.6,1,2.1,1.7c0.1,0.2,0.2,0.4,0.2,0.6
					c0,0.3-0.1,0.5-0.4,0.7c-0.1,0.1-0.3,0.1-0.5,0.1c-0.4,0-0.7-0.1-0.9-0.4c-0.9-1-2.1-1.5-3.6-1.5c-1,0-1.8,0.2-2.4,0.6
					c-0.6,0.4-0.9,0.9-0.9,1.5c0,0.6,0.3,1.2,0.8,1.6c0.6,0.4,1.5,0.7,3,0.9c1.9,0.3,3.3,0.9,4.1,1.6c0.8,0.7,1.2,1.6,1.2,2.7
					c0,0.8-0.2,1.6-0.7,2.2s-1.2,1.2-2.1,1.5c-0.9,0.4-1.9,0.5-3,0.5C371.5,516,370.4,515.8,369.4,515.4z"/>
				<path class="st3" d="M381.4,515.8c-0.3-0.3-0.5-0.7-0.5-1.1c0-0.4,0.2-0.8,0.5-1.1c0.3-0.3,0.7-0.5,1.1-0.5
					c0.4,0,0.8,0.2,1.1,0.5s0.5,0.7,0.5,1.1c0,0.4-0.2,0.8-0.5,1.1c-0.3,0.3-0.7,0.5-1.1,0.5S381.7,516.1,381.4,515.8z"/>
			</g>
		</g>
	</g>
</g>
</svg>
