<svg id="Layer_1" data-name="Layer 1" xmlns="http://www.w3.org/2000/svg" viewBox="0 0 352.99 520.23"><defs><style>.cls-1{fill:#fe8484;}.cls-2{fill:#fe4d4d;}.cls-3{fill:#fe3939;}.cls-4{fill:#ba0000;}.cls-5{fill:#db0000;}.cls-6{fill:#960000;}.cls-7{fill:#fe2020;}</style></defs><title>Quirat Gem</title><polygon class="cls-1" points="176.5 86.29 176.5 0 0.65 129.57 59.59 172.44 176.5 86.29"/><polygon class="cls-2" points="58.55 347.03 58.55 173.2 59.59 172.44 0.65 129.57 0 130.06 0 389.24 59.59 347.79 58.55 347.03"/><polygon class="cls-3" points="293.41 172.44 352.99 130.99 352.99 130.06 176.5 0 176.5 86.29 293.41 172.44"/><polygon class="cls-4" points="352.99 130.99 293.41 172.44 294.44 173.2 294.44 347.03 293.4 347.79 352.34 390.65 352.99 390.17 352.99 130.99"/><polygon class="cls-5" points="59.59 347.79 0 389.24 0 390.17 176.5 520.23 176.5 433.94 59.59 347.79"/><polygon class="cls-6" points="176.5 433.94 176.5 520.23 352.34 390.65 293.4 347.79 176.5 433.94"/><polygon class="cls-7" points="176.5 87.6 176.5 86.29 59.59 172.44 59.72 172.53 59.59 172.44 58.55 173.2 58.55 347.03 59.59 347.79 59.72 347.7 59.59 347.79 176.5 433.94 176.5 432.63 176.5 433.94 293.4 347.79 293.27 347.7 293.4 347.79 294.44 347.03 294.44 173.2 293.41 172.44 293.27 172.53 293.41 172.44 176.5 86.29 176.5 87.6"/></svg>