<svg id="Layer_1" data-name="Layer 1" xmlns="http://www.w3.org/2000/svg" viewBox="0 0 500 500"><defs><style>.cls-1{fill:#a2a2a2;}.cls-2{fill:#cb3842;}.cls-3{fill:#8f2829;}.cls-4{fill:#cb383e;}.cls-5{fill:#c93a3e;}.cls-6{fill:#6f6f6f;}.cls-7{fill:#242424;}.cls-8{fill:#fff;}.cls-9{fill:#030303;}.cls-10{fill:#1c1c1c;}.cls-11{fill:#161616;}</style></defs><title>Iconos</title><path d="M250.13,470.92c-13.81,0-27.62.21-41.42-.05-23.34-.43-34.65-10.85-37.64-33.82-.54-4.14,2.63-11.5-3.27-11.78-13.82-.67-19.25-6.06-18.56-20.17.4-8.11-8.23-5.32-12.18-4.63-20.22,3.55-29.94-5.9-37-24-9.32-24-21.06-47.09-32.57-70.17-5.42-10.88-5.27-19.75,1.29-30.4,9.11-14.8,24-29.64,8.24-49,11.25-20.64-8.81-28-17.28-40.07-10-14.21-10.24-28.4.91-41a546.21,546.21,0,0,1,45-45.13c13.93-12.43,28.88-11.48,43.61.53,4,3.25,7.23,7.48,11.33,10.57,4.25,3.22,6.42,11.52,13.07,8.76,6.4-2.65,3.66-10.1,3.88-15.58.4-9.74,2.83-19.57,11.75-23.5C199.68,77,199.8,69.77,199.84,60.87c.12-27,5.23-31.75,32.68-31.79,13.81,0,27.62-.19,41.42,0,18.33.32,25.47,6.67,25.7,24.61.16,12.17-.34,22.72,13.31,29.65,9.3,4.71,9.92,16.08,9.54,26.22-.15,4-.71,8.34,3.38,10.86,5.18,3.19,6.94-2.17,9.54-4.5,36.43-32.75,42.53-32.61,77.32,2.18,6.92,6.91,13.94,13.72,20.72,20.76,18.93,19.63,19,35.58.33,55.32-7.7,8.14-19.92,14.55-10.55,28.95a3.61,3.61,0,0,1-.37,3.31c-16.13,19.36-.86,34.3,8,49,6.88,11.4,6.54,20.51.85,31.91-12,24.09-23.77,48.43-33.84,73.39C391.77,396,383,402.66,366.75,400.32c-9.33-1.34-19.09-1.8-16.7,13,.67,4.2-1.42,9.5-5.71,9.3-15.71-.71-15.38,9.77-17.12,20.73-2.78,17.53-14,26.24-32.23,27.5-1.14.08-2.3.05-3.45.05Z"/><path class="cls-1" d="M299.15,309.77c-12.41-8.83-23.51-17.24-37.53-18.34-6.65-.53-16.61-5.37-18.69,5.49-2.13,11.13,8.44,10,15.23,11.38,32.52,6.56,50.21,38.2,37.78,67.85a50.06,50.06,0,0,1-61.11,28.57c-24.13-7.48-38.15-32.47-33.26-58.82,1.87-10,11.88-26.41-12.88-17.37-4.69,1.7-4.33-4.26-5.41-7-6.57-16.43-12.83-33-19.42-50.08,4.93-1.26,9.27-2.35,13.6-3.49,25.08-6.61,35.94-31.69,22-53.75-5.47-8.63-4.45-10.6,4.57-13.41,14.21-4.42,28-10.19,41.94-15.42,7.27-2.72,12.67-5.59,15.16,6.8,2.59,12.87,13.9,20.16,27.22,19.26,8.9-.6,12.67.26,12,10.08-.37,5.65.93,12.11,9.24,11.49,7.17-.53,7.6-6.49,7.61-11.48,0-14.35.58-28.85-1.24-43-2.47-19.36-19.59-29.4-38.08-22.88-39.45,13.93-78.82,28.09-117.92,43-22.7,8.63-32,26.85-23,49.8,20.68,52.49,36.19,107.13,63.9,157.17a19,19,0,0,1-4.38,1.31c-29.41,1.76-29.82,1.74-29.25-27.54.23-11.38-2.6-21.19-7.85-31.07-19.61-37-38.57-74.3-58.24-111.24-4.49-8.43-5.7-14,2.45-21.75,26.66-25.36,52.4-51.69,78.14-78,5.65-5.77,11.38-8.24,19.52-8.13,32.77.43,65.56.28,98.34.1,6.54,0,11.76,1,16.81,6.13,26.91,27.56,54.06,54.9,81.69,81.74,6.45,6.26,5.38,10.85,1.8,17.64-19.53,37-37.92,74.65-58.32,111.17-8.15,14.6-9.84,29.27-8.31,44.67,1.36,13.78-3.58,18.46-16.85,16.54-5.51-.8-11.23-.13-19.77-.13C326.86,372.12,315,332.33,317,294.8c.24-4.53-1.44-9.53-7.32-10.09-7-.68-8.61,4.5-9.36,9.89C299.72,299,299.61,303.51,299.15,309.77Z"/><path class="cls-2" d="M248.9,424.26c16.11,0,32.23-.31,48.32.18,5.33.16,13.78-3.89,14.26,6.92.42,9.79-1,20.95-12.33,21.4-32.72,1.29-65.55,1.27-98.28.05-11.35-.42-13-11.43-12.49-21.25.6-12,10.05-6.78,15.66-7.05C219,423.78,233.94,424.26,248.9,424.26Z"/><path class="cls-3" d="M127.15,108.63c13.8,4.38,21.19,15.86,30,25.42,2,2.19-1.37,5-3.37,7q-26.19,26.25-52.37,52.51c-1.61,1.61-4.41,4.56-5.09,4.17-9.56-5.55-16.59-14-23.48-22.37-4.5-5.49-4.64-12.43.09-17.44,14.59-15.44,29.72-30.39,44.94-45.22C120.14,110.48,124,109.93,127.15,108.63Z"/><path class="cls-3" d="M429.81,170.26c-2.84,10.67-14.72,17.77-24,26.67-3.19,3-5.77-2.1-7.94-4.24-16.78-16.56-33.2-33.49-50.19-49.84-6-5.79-6.22-9.8.31-15.07,5.34-4.32,9.69-9.83,14.89-14.36,6.55-5.7,14-6,20.26,0,14.54,13.88,28.58,28.3,42.76,42.57C428.81,158.94,430.29,162.64,429.81,170.26Z"/><path class="cls-4" d="M403.11,266c15.19,14.81,17.69,29.26,6.88,47.65-11,18.7-18.67,39.32-28,59-4,8.61-21.87,15.19-28.51,9.46-7.3-6.3-3.27-14.59.38-21.66C370.16,329,386.59,297.64,403.11,266Z"/><path class="cls-5" d="M95.51,263.57c18.47,35.44,35.72,68,52.33,100.95,2.8,5.55,6,15.26-2.23,17.39-7.66,2-19.81,6.3-25-3.78C106.7,350.72,93.1,323,82,294.31,78.17,284.32,90.58,275.78,95.51,263.57Z"/><path class="cls-6" d="M250,112.15c-14.31,0-28.64.31-42.93-.17-4.62-.15-12.55,3.88-12.18-6.51.27-7.5,4.1-12,11.49-12.31,11.43-.48,22.89-.32,34.34-.35,16.61,0,33.21-.06,49.81,0,8.42,0,14.83,3,14.64,12.77-.22,11.19-9,6-14,6.28C277.49,112.61,263.72,112.15,250,112.15Z"/><path class="cls-3" d="M251.53,46.29c4.57,0,9.3.75,13.7-.14,17.26-3.47,18.49,6.36,17.66,19.51-.45,7.07-2.22,10.39-9.86,10.21-15.43-.37-30.89-.54-46.3,0-12.76.46-9.5-8.42-9.72-15.22-.24-7.32-1.67-15.56,10.51-14.52C235.47,46.84,243.52,46.29,251.53,46.29Z"/><path class="cls-7" d="M188.3,232.82c-.47,12.18-7.26,19.05-18,19.38-11.86.37-19.59-7.33-19.25-19.21.32-10.78,7.11-18,18.81-17.79C181.32,215.42,187.18,222.15,188.3,232.82Z"/><path class="cls-8" d="M287.93,194.76c-7.49-.61-11.59-5-11.53-12.08s4.21-11.83,11.68-11.76,11.54,4.85,11.49,11.94S295.36,194.26,287.93,194.76Z"/><path class="cls-9" d="M282.21,357.26A32.18,32.18,0,1,1,249.78,325,32,32,0,0,1,282.21,357.26Z"/><path class="cls-10" d="M228.82,306.21c-1.11,4.83-3.44,9-8.68,8.89-5-.13-8.32-3.44-8-8.89.24-4.48,2.9-7.39,7.38-7.76C224.91,298,227.57,301.41,228.82,306.21Z"/><path class="cls-11" d="M308.1,251.33c4.07.34,7.51,1.83,8.13,6.56.67,5.1-1,8.92-6.71,9.5-4.56.47-7.54-1.69-8.35-6.3C300.21,255.69,302.93,252.71,308.1,251.33Z"/><path class="cls-8" d="M132.62,137.86c-.37,5.47-3.2,8.76-8.43,9-4.38.22-7.72-2.11-8.43-6.71-.87-5.63,2.88-8.85,7.49-9.65C128.24,129.67,131.63,132.82,132.62,137.86Z"/><path class="cls-8" d="M98.64,155.77c4.7-.21,8.16,2.33,8.77,6.53.74,5.17-2.42,8.85-7.8,9.34-4.42.4-8.1-1.49-8.61-6.37C90.44,159.9,93.15,156.57,98.64,155.77Z"/><path class="cls-8" d="M374.85,130c5.13,1.16,9.29,3.25,9.48,8.58s-3.3,8.4-8.57,8.33c-4.43-.06-7.38-2.79-8.14-7.25C366.63,133.75,371.05,132,374.85,130Z"/><path class="cls-8" d="M409.06,163.63c.32,4.87-2.37,7.49-6.95,8-5.45.57-8.93-2.39-9.5-7.61-.51-4.68,2.56-7.6,7.08-8C405,155.43,408.48,157.85,409.06,163.63Z"/><path class="cls-8" d="M170.54,242.44c-5.68,0-8.75-3.73-8.93-8.29a7.67,7.67,0,0,1,7.28-8c4.53-.33,7.6,2,8.51,6.44C178.54,238.14,175.2,240.86,170.54,242.44Z"/><path class="cls-7" d="M265,356.29c-.41,9.84-5.18,15.6-14.86,15.64s-15-5.53-14.89-15.13c.09-8.7,5-14.05,13.82-14.47C258.75,341.86,263.94,347.07,265,356.29Z"/></svg>