<svg id="Layer_1" data-name="Layer 1" xmlns="http://www.w3.org/2000/svg" viewBox="0 0 500 500"><defs><style>.cls-1{fill:#fbe2fe;}.cls-2{fill:#010101;}.cls-3{fill:#f9f9f9;}.cls-4{fill:#fafafa;}.cls-5{fill:#030303;}.cls-6{fill:#020202;}.cls-7{fill:#f8f8f8;}.cls-8{fill:#f6dff8;}.cls-9{fill:#fdf0fe;}.cls-10{fill:#fef1fe;}.cls-11{fill:#feebfe;}.cls-12{fill:#f6dff9;}.cls-13{fill:#fdeffe;}.cls-14{fill:#fef0fe;}.cls-15{fill:#fcebfc;}.cls-16{fill:#f5dff5;}.cls-17{fill:#fbeafd;}.cls-18{fill:#6f7486;}.cls-19{fill:#95a5a5;}.cls-20{fill:#d7ddeb;}.cls-21{fill:#7d8c8d;}.cls-22{fill:#6e7386;}.cls-23{fill:#adb6cf;}.cls-24{fill:#7e8c8d;}.cls-25{fill:#adb6ce;}.cls-26{fill:#5a5f72;}.cls-27{fill:#aeb8d0;}.cls-28{fill:#9aa8a9;}.cls-29{fill:#596073;}.cls-30{fill:#fae2fd;}.cls-31{fill:#646778;}.cls-32{fill:#585d71;}.cls-33{fill:#5a5e71;}.cls-34{fill:#5c6175;}.cls-35{fill:#575e6f;}.cls-36{fill:#d4d9ec;}.cls-37{fill:#869091;}.cls-38{fill:#a2adaf;}.cls-39{fill:#797c8a;}.cls-40{fill:#050505;}.cls-41{fill:#d2d9e9;}.cls-42{fill:#e6ecf8;}.cls-43{fill:#616678;}.cls-44{fill:#777a8d;}.cls-45{fill:#767a8a;}.cls-46{fill:#b0b8ce;}.cls-47{fill:#747789;}.cls-48{fill:#feeffe;}.cls-49{fill:#74798c;}.cls-50{fill:#777a8c;}.cls-51{fill:#808e8f;}.cls-52{fill:#feedfe;}.cls-53{fill:#777b8d;}.cls-54{fill:#787a8b;}.cls-55{fill:#606474;}.cls-56{fill:#b0b9d6;}.cls-57{fill:#f6e0f7;}.cls-58{fill:#fefefe;}.cls-59{fill:#74798b;}.cls-60{fill:#757a8c;}.cls-61{fill:#787b8c;}.cls-62{fill:#040404;}.cls-63{fill:#030304;}.cls-64{fill:#92a2a2;}.cls-65{fill:#9eaeae;}.cls-66{fill:#97a9a9;}.cls-67{fill:#a2afb0;}.cls-68{fill:#9dacab;}.cls-69{fill:#a2b0af;}.cls-70{fill:#9cacab;}.cls-71{fill:#a2b0b1;}.cls-72{fill:#a0aeae;}.cls-73{fill:#9dabab;}.cls-74{fill:#a9b6c9;}.cls-75{fill:#d4dae8;}.cls-76{fill:#dee7f6;}.cls-77{fill:#e1e7f5;}.cls-78{fill:#f6e0f9;}</style></defs><title>Iconos</title><path class="cls-1" d="M279.74,163a65.44,65.44,0,0,1,14.2-1.33,79,79,0,0,1,33,6.94,90.35,90.35,0,0,1,31.31,22.73,84.65,84.65,0,0,1,12.84,20.08,101,101,0,0,1,8.6,30.77c1.07,8.32.73,16.71.19,25.1a126.71,126.71,0,0,1-5.42,28.24c-3.91,13.14-9.82,25.37-18.74,36-.26.26-.11.73-.47.94l-.88.1,0,.36h1.44q23.86,0,47.71,0c.91,0,1.89-.3,2.72.36-.74,1-1.8.82-2.8.82-15.77-.09-31.54,0-47.31,0-.86,0-1.72,0-2.58-.05-1.08-.1-1.85-.52-1.55-1.79a5,5,0,0,0-.48-3c-.13-.87-.8-.39-1.17-.39-3.81-.08-7.62.1-11.43-.12a3.26,3.26,0,0,1-2.8-2.33,2.58,2.58,0,0,1,0-.83c.11-21.36,0-42.72,0-64.08,0-1.61.58-3.26-.14-4.85-.23-.15-.44-.32-.66-.47-1.42-1.45-3.22-1.42-5.05-1.41q-45.51,0-91,0c-5.55,0-5.48,0-5.58-5.61-.07-4.29.56-8.62-1.1-12.82a18.08,18.08,0,0,0-8.5-9.71,29.22,29.22,0,0,1-7.32-5.45c-6.62-6.71-13.34-13.34-20-20-.8-.81-2.14-1.52-1.41-3.1.86-.58,1.84-.34,2.76-.34h77.19c-.18,0-.92,0-1.65,0H198.26a9.36,9.36,0,0,0-3.49.38c-1.29-.82-.39-1.26.34-1.54a9.35,9.35,0,0,1,3.5-.29h74c4.76,0,4.76,0,5-4.72.18-3.28.65-3.8,4-3.75,2.89,0,5.81-.44,8.66.38.79.84.17,1-.54,1-2.47,0-4.94,0-7.41,0,2,0,4.06,0,6.09,0,2.34,0,2.75.39,2.83,2.73.13,3.45-.13,6.91.12,10.36.11.2.22.42.32.64.19,1.14-.61,1.9-1.15,2.73-1.92,3-4,5.84-5.82,8.83-1.42,2.27-1.3,3,.6,4.92s4,4,6,6a7,7,0,0,0,1.42,1.24,1.69,1.69,0,0,0,2.34-.19,1.5,1.5,0,0,0-.25-2.12c-1.12-1.21-2.11-2.53-3.35-3.63-4.31-3.83-4.31-4-1.18-8.66,1.08-1.63,2.15-3.27,3.27-4.88.54-.78,1.09-1.57,2.23-1.45,3.16.11,6.32.1,9.48,0,1.13-.14,1.7.63,2.24,1.42,1.63,2.4,3.2,4.84,4.85,7.23a2.84,2.84,0,0,1-.39,4c-1.74,1.81-3.61,3.48-5.29,5.35-.76.85-1.64,1.76-.55,2.82s2.06.38,2.9-.44c2.49-2.39,4.9-4.87,7.34-7.31,1.14-1.13,1.09-2.27.34-3.61-1.66-2.94-3.88-5.52-5.52-8.48a5.42,5.42,0,0,1-1.07-2.32,7.26,7.26,0,0,0-.44-2.56,2.48,2.48,0,0,1,.06-.72,82.48,82.48,0,0,0-.13-10.31,4.83,4.83,0,0,1-.32-1.45c.17-1.14,1-1.91,1.6-2.83,3.51-5.57,2.9-11.64-1.65-16.06a12.51,12.51,0,0,0-16-1.23,5.25,5.25,0,0,1-1.83,1c-.59-.08-1.17.13-1.76.08-2.8-.2-5.61,0-8.42-.31-1.46-.18-2.14-.79-2.11-2.21C279.16,166.19,278.78,164.52,279.74,163Z"/><path class="cls-2" d="M195.32,198.39q11.63,11.72,23.23,23.42a19.62,19.62,0,0,0,5,3.71c7,3.61,10.71,9.47,11,17.39.11,3.06.13,6.14,0,9.19-.07,1.68.44,2.09,2.08,2.08,9.9-.07,19.81,0,29.71,0q32.91,0,65.81,0c1.63,0,2.94.25,3.6,1.92a3.25,3.25,0,0,1,.46,1.8c-.29,22.13,0,44.27-.13,66.4,0,.23,0,.47,0,.71-.13,3.14.15,3.4,3.37,3.51,4,.14,8-.36,11.94.26,2,1.06,2.45,2.49.69,4.56h54.13q4.2,2.84,0,5.84a6.52,6.52,0,0,1-2.56.17q-150.09,0-300.16-.05c-1.63,0-3.41,1.09-5-.29-2.12-2.18-2.12-3.31,0-5.52,1.07-.89,2.25-.26,3.39-.26q21.9,0,43.81,0c.52,0,1.34.35,1.4-.7a3.42,3.42,0,0,1-.29-2.31c.23-1.38,1.32-1.72,2.44-2,3.6-.2,7.21-.06,10.82-.09,3.34,0,3.35,0,3.36-3.46V277.7a22.52,22.52,0,0,1,.13-3.76,3.86,3.86,0,0,1,2.57-2.81c3.9-.55,7.85.08,11.75-.37.94-.38,1.36-1.27,1.88-2,4.15-6.2,8.21-12.47,12.48-18.59,1.34-1.92,1.26-3.38.07-5.31q-12.15-19.63-24.22-39.32a8.14,8.14,0,0,1-1.18-2.78,109.4,109.4,0,0,0-7.55-12.18c-7.86-10.53-3.17-24.49,9.56-28.11a5.78,5.78,0,0,0,.84-.39,5.33,5.33,0,0,1,3.18-.64h99.16a32.28,32.28,0,0,1,5.28.65l1,.95c.91,1.51.42,3.18.62,4.78.09.75-.52,1.76.65,2.21a2.77,2.77,0,0,0,.76,0c3.56.05,7.12.11,10.67.06,5.67-4.34,11.22-5,16.27-1.88a13.19,13.19,0,0,1,3.41,19.6l-1.29,1.62c.92,4,.46,8.09.33,12.14-.22.92.56,1.68.42,2.59,2.32,3.54,4.59,7.12,7,10.61,1.15,1.66,1.05,2.94-.41,4.33-2.5,2.38-4.91,4.86-7.34,7.32-1.13,1.14-2.38,2.14-3.83.74s-.42-2.79.78-4c1.91-1.87,3.78-3.78,5.67-5.67.49-.49,1.1-.92.47-1.76-2.38-3.18-4.13-6.8-6.84-9.74a70.38,70.38,0,0,1-10.37,0c-2.73,2.93-4.48,6.55-6.85,9.73-.64.86,0,1.27.48,1.76,2,2,4,4,6,6,1.14,1.12,1.8,2.35.42,3.64s-2.41.64-3.48-.46c-2.6-2.63-5.2-5.26-7.86-7.82-1.33-1.29-1.3-2.51-.32-4,2.61-3.91,5.16-7.86,7.74-11.8-.79-1.7-.3-3.5-.36-5.25-.1-2.55,0-5.1,0-7.65a7.36,7.36,0,0,0-.47-1.71c-3.6-.43-7.22-.05-10.82-.21-1.16-.05-1.27.56-1.25,1.44,0,1.42,0,2.83,0,4.25.08,2.18-.88,3.09-3.11,3.07-8-.06-16,0-24,0q-27.59,0-55.18.06c-.37,0-1.83-1-1.42.78A.67.67,0,0,1,195.32,198.39Z"/><path class="cls-1" d="M148.6,328.72l-1.78,1.43c-1.13,1.19-1.92.23-2.67-.47a77.08,77.08,0,0,1-12.59-15.13c-6-9.29-9.38-19.64-11.15-30.39a71.54,71.54,0,0,1,.84-27.76A72.74,72.74,0,0,1,142.76,219a81.56,81.56,0,0,1,22.92-15.23,2.29,2.29,0,0,0,1.24-1q9.3,15,18.61,30c2.78,4.48,5.52,9,8.28,13.45.46.74.88,1.37.23,2.32-5.13,7.53-10.2,15.09-15.29,22.63-3.5.43-7,.07-10.51.21-.74,0-1.56-.33-2.22.31a4.29,4.29,0,0,0-1.84,2c-.42.15-.51.51-.54.91q0,25.39,0,50.78c0,1.64-.07,3-2.21,3-3.61.26-7.23,0-10.84.14C149.93,328.48,149.19,328.11,148.6,328.72Z"/><path class="cls-3" d="M98.54,339c1.49.05,3,.15,4.47.15q151.62,0,303.23,0c.08,1-.4,1.47-1.4,1.35-.17,0-.77.09-.26-.4.14-.14.44-.13,1.36-.37H101.39V340H402.88v.47H103.72a10.62,10.62,0,0,0-2.59.06C99.62,340.93,98.91,340.29,98.54,339Z"/><path class="cls-2" d="M417.25,259.53c2.08.65,2.72-.53,2.43-2.72a10.09,10.09,0,0,1,0-1.65c0-1.65.82-2.82,2.51-2.81s2.52,1.09,2.52,2.79a1.77,1.77,0,0,0,0,.23c.15,3.91.15,3.92,4.18,4.15,1.72.1,2.95.73,2.9,2.64s-1.33,2.49-3,2.44a.88.88,0,0,0-.23,0c-3.75.07-3.8.07-3.78,3.82,0,1.92-.54,3.42-2.64,3.36s-2.41-1.6-2.43-3.36c0-3.8-.07-3.84-3.33-3.81-1.87,0-3.58-.14-3.81-2.46-.18-1.73,1.2-2.59,3.9-2.62Z"/><path class="cls-2" d="M78.94,217.39c2.11.6,2.71-.68,2.38-2.94a7.4,7.4,0,0,1,0-1.88,2.29,2.29,0,0,1,2.42-2.35,2.34,2.34,0,0,1,2.49,2.3c.21,1.54-.67,3.64.39,4.5s3,.2,4.53.39a2.55,2.55,0,0,1-.11,5.07c-1.53.19-3.56-.71-4.48.41-.75.91-.24,2.84-.32,4.32a2.28,2.28,0,0,1-2.34,2.44c-1.61.07-2.42-.86-2.61-2.42s.71-3.59-.41-4.49c-.92-.75-2.87-.19-4.36-.27A2.35,2.35,0,0,1,74.17,220a2.41,2.41,0,0,1,2.18-2.63A17.75,17.75,0,0,1,78.94,217.39Z"/><path class="cls-2" d="M76.26,339.11c-2.67,0-5.33,0-8,0-2,0-3.18-.82-3.32-2.84-.12-1.87,1.12-3,3.36-3,5.26,0,10.52,0,15.78,0,2,0,3.16.87,3.35,2.83.17,1.74-1.28,3-3.39,3C81.45,339.14,78.85,339.11,76.26,339.11Z"/><path class="cls-4" d="M277.39,162.05c-1.17,0-2.35-.1-3.53-.1H173.06c-1.1,0-2.19.06-3.29.09.39-1.16,1.22-1.41,2.38-1.41q50.32,0,100.66,0c.62,0,1.28-.12,1.74.47a4.34,4.34,0,0,1-2.31.22H175c-.7,0-1.4.2-1.71,0,.47,0,1.33,0,2.19,0q48.13,0,96.26,0a5.48,5.48,0,0,0,2.78-.23c.69.49,1.17,0,1.81-.21S278.28,160.54,277.39,162.05Z"/><path class="cls-5" d="M392,168.72a4.65,4.65,0,0,1-4.58-4.66,4.76,4.76,0,0,1,4.59-4.71,4.84,4.84,0,0,1,4.73,4.83A4.71,4.71,0,0,1,392,168.72Z"/><path class="cls-6" d="M93,301.66a4.61,4.61,0,1,1-4.52-4.73A4.6,4.6,0,0,1,93,301.66Z"/><path class="cls-6" d="M419.78,339.11c-.78,0-1.56,0-2.34,0a2.77,2.77,0,0,1-2.94-3,2.65,2.65,0,0,1,2.79-2.84c1.72-.05,3.45-.08,5.16,0a2.62,2.62,0,0,1,2.69,2.92,2.7,2.7,0,0,1-2.77,2.87C421.51,339.15,420.64,339.11,419.78,339.11Z"/><path class="cls-7" d="M147.11,332.46c.36.18.8.54.26.77a5.24,5.24,0,0,1-1.86,0H102c-1.17,0-2.34.1-3.51.15a3,3,0,0,1,3-1.44h43.64c.15,0,.29.09.43.4H101a2.59,2.59,0,0,0,2.13.5q20.86,0,41.75,0C145.64,332.9,146.48,333.16,147.11,332.46Z"/><path class="cls-5" d="M432,333.26a2.88,2.88,0,0,1,3.08,3.05,2.72,2.72,0,0,1-3.1,2.77,2.63,2.63,0,0,1-2.69-2.91A2.69,2.69,0,0,1,432,333.26Z"/><path class="cls-7" d="M355.26,332.45a1,1,0,0,1,.47-.94c.78.82,1.79.46,2.68.46q21.79,0,43.57,0h2.3v.46Z"/><path class="cls-8" d="M279.75,170.55h-.48a11.61,11.61,0,0,1,0-7.07l.47-.46v2.58c0,3.87,0,3.81,3.95,4,2.14.12,4.35-.55,6.44.45-2.53.52-5.1.08-7.64.24C281.58,170.38,280.63,170.1,279.75,170.55Z"/><path class="cls-9" d="M279.27,163.48v7.07c-1.17.09-.67-.81-.69-1.28-.11-2.09-.15-4.18-.21-6.27Z"/><path class="cls-7" d="M71.24,332.11H81.48v.23H71.22Z"/><path class="cls-10" d="M351.41,328.72c-4.64,0-9.28-.05-13.91.14-2,.09-1.85-1-1.85-2.3q0-29.37,0-58.74c0-3.93.07-7.85.1-11.78l.61-.05c.73,1.36.2,2.79.21,4.17q0,31.8,0,63.61a5.14,5.14,0,0,1-.21,2.55v.47c.12,1.15,1.09,1.16,1.88,1.42h13c.06,0,.17.07.17.11A2.56,2.56,0,0,1,351.41,328.72Z"/><path class="cls-11" d="M195.32,198.39l-.52-.5c.57-.61,1.32-.41,2-.41h78.59c.3,0,.61,0,1.24.08a4.2,4.2,0,0,1-2.57.38H198.54C197.45,197.94,196.32,197.74,195.32,198.39Z"/><path class="cls-12" d="M336.39,326.32q0-35.16,0-70.33c1.36.1.83,1.27.71,1.73a13.89,13.89,0,0,0-.22,3.74q0,31.1,0,62.18C336.84,324.54,337.2,325.54,336.39,326.32Z"/><path class="cls-8" d="M290.6,188.52a1.13,1.13,0,0,1,1,.91c-.57,3.24-.1,6.51-.26,9.76-.07,1.31.21,2.63-.2,3.92-.68-.46-.64-1.07-.61-1.84.11-3.29.06-6.58.12-9.87,0-1.4-.58-2-2-2a36.62,36.62,0,0,1-7.45-.46c2.16,0,4.32,0,6.48,0C288.65,188.92,289.73,189.34,290.6,188.52Z"/><path class="cls-13" d="M291.1,203.11c0-3.91,0-7.81,0-11.72,0-.68-.19-1.43.48-2a111.82,111.82,0,0,1-.1,13.7Z"/><path class="cls-14" d="M309.46,202.19c-.17-4.25-.2-8.51,0-12.76a1,1,0,0,1,.49,1,56.35,56.35,0,0,1,0,11.32v.47A.3.3,0,0,1,309.46,202.19Z"/><path class="cls-15" d="M279.75,170.55c2.39-1,4.9-.22,7.34-.45,1-.09,2,0,3,0,.31,0,.63-.52.94,0-.4.86-1.19.55-1.83.55C286.07,170.64,282.91,170.58,279.75,170.55Z"/><path class="cls-16" d="M310,201.71V190.39A27.67,27.67,0,0,1,310,201.71Z"/><path class="cls-17" d="M295.33,206a78,78,0,0,1,10.37,0A27.61,27.61,0,0,1,295.33,206Z"/><path class="cls-16" d="M309.46,202.19H310c.46.61,1.44,1.15.26,2C309.66,203.61,309.14,203.06,309.46,202.19Z"/><path class="cls-12" d="M338.27,328.21c-1,0-2,.09-1.88-1.42C337.28,326.91,337.44,328,338.27,328.21Z"/><path class="cls-18" d="M261.34,328.64c-.76-.72-.38-1.64-.38-2.45q0-25.47,0-50.95c0-1.52-.17-2.82-1.64-3.61-.65-.65-1.47-.28-2.2-.28-6.67-.06-13.34,0-20-.05a1,1,0,0,1-.68-.52c-.35-3.44-1-6.9.39-10.28a5.2,5.2,0,0,1,3-.45q44.1,0,88.19,0c1.08,0,2.23-.2,3.14.67v14.62c-2.87.49-5.76.17-8.64.21-4.31.06-8.62,0-12.92,0-.65,0-1.45.28-1.91-.45-.23-.27.26,0,0,.11s-.15.11,0,.19a5.32,5.32,0,0,0,2.31.17c6.27,0,12.53,0,18.79,0a4.44,4.44,0,0,1,2.31.21c-.63.73-1.47.37-2.2.37-7,0-14,.06-20.94,0a3.09,3.09,0,0,0-3.11,1.6c-.65,1.95-.28,4-.27,5.94a69.06,69.06,0,0,0,.17,9.54c-1.16.94-2.53.45-3.76.41-3-.09-6,.51-9-.35.71-2.9,0-5.88.19-7.34-.11,1.47.43,4.43-.18,7.34-.69-3.1-.2-6.24-.3-9.36s-.47-3.43-3.43-3.44q-8.5,0-17,0c0-.94.72-.66,1.18-.66,5.28,0,10.56,0,15.85,0-5,0-10,0-15.06,0-.87,0-2-.43-2.4.86-.83.82-1.37,1.72-.82,2.93s1.65,1.25,2.78,1.25c4.23,0,8.47.05,12.69,0,1.45,0,1.92.44,1.87,1.87-.1,2.66-.05,5.33,0,8s.55,3.36,3.24,3.37c5.25,0,10.5,0,15.75,0a3.07,3.07,0,0,0,3.09-1.63c.74-1.46.3-3,.29-4.53-.05-3.64.35-7.3-.21-10.93.39-.75,1.1-.46,1.68-.46,6,0,12.09,0,18.14,0,1.08,0,2-.08,1.95,1.51-.08,15.39-.09,30.78-.12,46.17a3.79,3.79,0,0,1-2.08.22q-32.55,0-65.11,0c-.84,0-2.21.69-2.36-1.05q0-26.31,0-52.62,0,26.06,0,52.13C261.51,327.46,261.72,328.09,261.34,328.64Z"/><path class="cls-19" d="M237.28,298.1c2.23-1.52,2.3-2.27.44-4.34-1-.79-2.11-.46-3.18-.46q-30.1,0-60.22,0a7.94,7.94,0,0,1-3.25-.26,2.89,2.89,0,0,1-1-2.51c0-3.22,0-6.44,0-9.66,0-2,.95-2.88,2.86-2.92.63,0,1.26,0,1.89,0q38.55,0,77.09,0c1.32,0,2.69-.2,3.89.61a3.35,3.35,0,0,1,.4,2.27q0,22.37,0,44.74a3.94,3.94,0,0,1-.34,2.29,3.32,3.32,0,0,1-2.26.4H172.79a8.35,8.35,0,0,1-1.41-.09c-1.32-.53-1.12-1.8-1.24-2.81a72,72,0,0,1-.16-8.44q0-7,0-14.08c0-1.33-.06-2.69.92-3.79a1.58,1.58,0,0,1,1.27-.36,26.26,26.26,0,0,0,4.69.1c19.67,0,39.35.06,59,0a3.39,3.39,0,0,0,.78-.17A4.53,4.53,0,0,0,237.28,298.1Z"/><path class="cls-20" d="M204.7,175.76c-1.33,1.94-.74,3.5,1.45,3.74a17,17,0,0,0,1.89,0h61.55c.87,0,1.73,0,2.59.08a2.19,2.19,0,0,1,.69,1.7c-.11,3.34.65,6.73-.5,10a7.74,7.74,0,0,1-4.13.67q-37.12,0-74.24.05c-1.8,0-3.52-1-5.33-.3-.87-.62-1.89-1-1-2.51,4.49-7.19,3.84-14.2-1-21a.49.49,0,0,1,.29-.72,28.63,28.63,0,0,1,6.79-.42q37.58-.06,75.16,0a5.58,5.58,0,0,1,3.22.47,6.56,6.56,0,0,1,.28,5.62c-2.1,1.79-4.65,1.36-7.09,1.36H209.81a15,15,0,0,1-4.64-.45,3.6,3.6,0,0,1,.26.52,1.46,1.46,0,0,1,0,.59C205.26,175.5,205,175.6,204.7,175.76Z"/><path class="cls-20" d="M187.73,197.39q12.77,13,25.53,26c-8.11,1-14,5.39-17.14,13.26-.88,1.19-1.31.14-1.69-.42-1.06-1.55-2.11-3.11-3.09-4.72q-9.5-15.54-19-31.08c-.52-.85-1.83-1.87-.1-2.89,5-.16,10.06,0,15.1-.09Z"/><path class="cls-18" d="M223.63,230.8a14.91,14.91,0,0,1,6,16.49c-1.67,6.09-7.26,10.78-13.18,11a5.4,5.4,0,0,0-3.28,0,14.49,14.49,0,0,1-12.8-10.27c-.83-6.85,2.41-11.82,7.74-15.44a16.94,16.94,0,0,1,13.45-2.56C222.29,230.24,222.8,231,223.63,230.8Z"/><path class="cls-18" d="M184.52,173.33a12.64,12.64,0,0,1-2.34,15.7,13.11,13.11,0,0,1-16.47,1.35,12.73,12.73,0,0,1-4.9-15.1C165.37,167.36,177.71,166.11,184.52,173.33Z"/><path class="cls-20" d="M198.56,254.57c6.33,8,14.38,10.12,24,7a20.63,20.63,0,0,0,4.53-1.88c.88-.4,1.77-1.16,2.79-.25.23,3-.07,6.12.14,9.17.14,2.05-.72,2.5-2.58,2.49-10.75-.06-21.51,0-32.26,0a53.35,53.35,0,0,1-7-.14c-1-.65-.67-1.52-.23-2.25,2.8-4.62,5.87-9.07,9-13.5C197.21,254.66,197.7,254,198.56,254.57Z"/><path class="cls-21" d="M255.67,278.65c-27.41,0-54.82,0-82.23,0-2.14,0-3,.52-2.75,2.73.36,3.81-.49,7.68.47,11.47a1,1,0,0,1-.42.83c-.64,0-1.38.49-1.86-.37a124,124,0,0,0,0-15.54v-1a5.12,5.12,0,0,1,2.54-.22q41,0,81.94,0a6.74,6.74,0,0,0,2.79-.19c.78.38.44,1.1.44,1.66q.06,24.64,0,49.29c0,.5.25,1.13-.46,1.43a1.27,1.27,0,0,1-.28-.82,8.85,8.85,0,0,0,0-.89q0-22.92,0-45.82A4.64,4.64,0,0,0,255.67,278.65Z"/><path class="cls-22" d="M298.65,188c-3.88-1-6.53-3.76-6.61-7,1.32-6.12,8.28-9.71,14.58-7.53a6.08,6.08,0,0,1,2.34,4.25,15.6,15.6,0,0,0,0,3.74c-.93,3.86-3.24,6-7,6.6A5.78,5.78,0,0,0,298.65,188Z"/><path class="cls-23" d="M171.63,198c2.87,4.76,5.69,9.55,8.6,14.28q7.26,11.84,14.61,23.6c.29.47.35,1.35,1.28.81l-.91,3.38c-1.74-2.84-3.27-5.32-4.8-7.8q-10.12-16.46-20.25-32.93c-.39-.62-1.28-1.25-.76-2s1.31-.2,2-.21q7.08-.06,14.16,0c.73,0,1.57-.39,2.19.36a.24.24,0,0,1-.12.24c-4.58.15-9.16,0-13.74.08C173.13,197.72,172.33,197.4,171.63,198Z"/><path class="cls-24" d="M171.17,299a13.24,13.24,0,0,0-.46,3.71c0,5.82,0,11.63,0,17.45a36.11,36.11,0,0,0,.45,7.63.38.38,0,0,1,.18.45c-.17.23-.45.3-.64.49-1.35.37-2,0-2-1.56.06-9.12.08-18.24,0-27.36,0-1.93,1.11-1.7,2.27-1.71q18,0,36.1,0l30.19.06c0,.13,0,.27,0,.4a4.22,4.22,0,0,1-2.74.44q-30,0-59.92,0C173.47,299,172.32,298.52,171.17,299Z"/><path class="cls-25" d="M205.16,175.23c0-.14,0-.27,0-.41.88-.77,2-.47,3-.47q30.19,0,60.41,0a5.94,5.94,0,0,0,3-.31c.21-.22.43-.42.65-.63,0-1.87,0-3.75,0-5.63a1.07,1.07,0,0,0-1-.49c-27.79,0-55.58-.06-83.36,0l-.84.07c-.62.15-1-.25-1.45-.58.49-1,1.37-.45,2-.45q42.1,0,84.22-.08c2,0,2.57.58,2.39,2.49s.64,4.74-.39,5.93c-1.21,1.39-4,.48-6.09.49q-29.49,0-59,0c-.86,0-1.72.07-2.58.1A.62.62,0,0,1,205.16,175.23Z"/><path class="cls-26" d="M222.16,230.51c-4-.3-8-.28-11.79,1.58a16.87,16.87,0,0,0-9.42,12c-.3,1.28-.37,2.61-.55,3.92a14.94,14.94,0,0,1,4.72-16.73c4.85-3.88,11.67-4.86,17.09-1.44A.4.4,0,0,1,222.16,230.51Z"/><path class="cls-1" d="M283.07,183.84c-4.52,0-4.52,0-4.52-4.46,0-4.23,0-4.24,4.31-4.23,1.56,0,3.51-.49,4.56.25s-.39,2.69-.11,4.13a.49.49,0,0,1,0,.24c-.41,1.35,1.37,3.08-.08,3.95C286.2,184.35,284.48,183.84,283.07,183.84Z"/><path class="cls-27" d="M272.18,191.33V179.6c1.29-.28,2-.11,2,1.56-.13,3.21-.15,6.44,0,9.66.08,1.68-.62,1.92-2,1.91-9.82,0-19.64,0-29.45,0q-25.58,0-51.14,0c-.8,0-1.73.43-2.4-.44a3.08,3.08,0,0,1,2.6-.5c26,.07,52,0,78,0,.55,0,1.09-.06,1.64-.1A1.76,1.76,0,0,0,272.18,191.33Z"/><path class="cls-28" d="M170.74,293.63l.42-.83q32.18,0,64.34.05c.75,0,2.05-.75,2.22.91l-64.16-.05C172.62,293.71,171.68,293.65,170.74,293.63Z"/><path class="cls-29" d="M236.8,260.73c0,3.46,0,6.91,0,10.37-1.73.67-1.85-.48-1.86-1.67,0-3.53,0-7.06,0-10.59.66-.66,1.49-.35,2.24-.35q45.82,0,91.65,0c.75,0,1.58-.33,2.24.35-.83.83-1.9.64-2.9.64-30.14,0-60.28,0-90.4,0-.36,0-.77,0-.73.57a2.26,2.26,0,0,1,0,.26A.56.56,0,0,1,236.8,260.73Z"/><path class="cls-26" d="M184.52,173.33c-1.18-.07-1.88-1-2.77-1.58-6.7-4.12-13.76-3.37-19.36,2.16-.49.49-1,.92-1.58,1.37a12.8,12.8,0,0,1,11.45-8.94C177.54,166,182.57,168.91,184.52,173.33Z"/><path class="cls-30" d="M296.29,193.69c-.16-.87-.42-1.82,1.09-1.38a14.78,14.78,0,0,0,6.45.05c.72.32.78.88.54,1.54-.2,1.64,0,3.28-.11,4.93-.06,1.32-.66,2-2.06,1.93-1.65-.12-3.37.31-5.52-.57,1.44-.84,2.53-.46,3.51-.62a31.49,31.49,0,0,0-3.22.1,1.23,1.23,0,0,1-.68-.32v-.47A13,13,0,0,0,296.29,193.69Z"/><path class="cls-23" d="M198.56,254.57c-1.93.76-2.44,2.72-3.46,4.22-2.55,3.73-4.95,7.56-7.41,11.35-.21.33-.22.76-.53,1-.14.14-.28.28-.41.43-.76.13-1.71.46-2.19-.23s.37-1.27.74-1.84c3.82-5.76,7.66-11.5,11.56-17.36A6.19,6.19,0,0,1,198.56,254.57Z"/><path class="cls-31" d="M236.32,259.3c.54-.95,1.45-.43,2.15-.43q46.29-.06,92.58,0l.09.45c-.83.8-1.89.67-2.9.67q-44.5,0-89,0A4.19,4.19,0,0,1,236.32,259.3Z"/><path class="cls-32" d="M236.32,259.3h94.82v.48c-1.06.78-2.28.45-3.43.46q-45.45,0-90.92,0A1,1,0,0,1,236.32,259.3Z"/><path class="cls-33" d="M306.62,173.41c-1.31.44-2.56-.26-3.86-.18a11.42,11.42,0,0,0-9.83,6.38c-.26.46-.6.89-.89,1.33-1.2-2.91,1.16-7.57,4.33-9.23A8.47,8.47,0,0,1,306.62,173.41Z"/><path class="cls-34" d="M236.79,260.24c.78-.81,1.78-.45,2.68-.45q45.84,0,91.67,0v.47a4.31,4.31,0,0,1-2.3.22q-44.88,0-89.74,0A4.34,4.34,0,0,1,236.79,260.24Z"/><path class="cls-35" d="M236.79,260.24h94.35v.49H236.8C236.8,260.57,236.79,260.4,236.79,260.24Z"/><path class="cls-36" d="M191.53,192.22l-2.39.05-.47-.54.54-1.85c1.08,1.78,2.85,1.41,4.38,1.42,9.81.06,19.62,0,29.43,0h49.16c0,.16,0,.32,0,.48a5.26,5.26,0,0,1-2.55.21l-75.56,0A6.11,6.11,0,0,0,191.53,192.22Z"/><path class="cls-37" d="M256.13,276.33c-.8.76-1.79.41-2.7.42H168.86c.29-.88,1-.53,1.59-.53q42.5,0,85,0A4.1,4.1,0,0,1,256.13,276.33Z"/><path class="cls-38" d="M170.71,328.68l.46-.49a4,4,0,0,1,2.08-.2h80.82a3.59,3.59,0,0,1,2.07.22v.5c-.86,0-1.72.09-2.58.09h-80C172.59,328.8,171.65,328.72,170.71,328.68Z"/><path class="cls-10" d="M148.6,328.72c0-1,.73-.48,1.07-.48,3.87-.05,7.74,0,11.6,0,1.77,0,2.18-.95,2.18-2.67-.08-16.67,0-33.34,0-50a5,5,0,0,1,.23-2.54l.54.61q0,16.35.09,32.71c0,6.91,0,13.82,0,20.72,0,1.46-.38,1.85-1.83,1.82C157.86,328.72,153.23,328.75,148.6,328.72Z"/><path class="cls-39" d="M261.34,328.64l0-1.37c.14-.22.28-.21.42,0,.39,1.55,1.65.91,2.53.91q33.41.06,66.8,0c-.28.88-1,.56-1.58.56q-33.65,0-67.29,0A7.31,7.31,0,0,1,261.34,328.64Z"/><path class="cls-40" d="M205.16,175.23l1,.06c.78.8,1.78.45,2.68.45q29.47,0,58.94,0h3a4.73,4.73,0,0,1-2.93.46c-19.57,0-39.13,0-58.7,0-1.44,0-3.08,1.09-4.4-.41Z"/><path class="cls-41" d="M186.8,271.12a1.55,1.55,0,0,1,.89-1c.6.73,1.44.48,2.2.48,12.48,0,25,0,37.45,0,1.82,0,2.62-.44,2.39-2.36-.35-3,.58-6.06-.52-9,0-.71.38-.8.93-.45,0,3.88.05,7.76.06,11.65,0,.41.2,1-.48,1.1a4.47,4.47,0,0,0-2.53-.24q-18.91,0-37.84,0A5.65,5.65,0,0,1,186.8,271.12Z"/><path class="cls-40" d="M402.31,334.28H354.48v-.23H402.4Z"/><path class="cls-40" d="M100.93,334h45.19v.23H101Z"/><path class="cls-42" d="M186.8,271.12q20.47,0,41,0c.68,0,1.43-.21,2,.47q-16.2.06-32.41.11c-3.52,0-7-.06-10.56-.09Z"/><path class="cls-43" d="M234.92,258.84c1,3.35.2,6.79.45,10.18.07,1-.24,2.18,1.41,2.08h0q.22.16.15.33c-.06.1-.11.15-.16.15-1.76.41-2.41-.25-2.25-2.06C234.84,266,234.08,262.37,234.92,258.84Z"/><path class="cls-44" d="M331.07,275.81H307v-.46h24.12Z"/><path class="cls-45" d="M236.79,271.58c0-.16,0-.32,0-.48h22.54c.16,0,.42,0,.45,0,.2.47-.24.39-.47.49Z"/><path class="cls-46" d="M230.14,258.83a.94.94,0,0,0-.93.45c-2.16,1-4.15,2.45-6.69,2.32a24.7,24.7,0,0,0,7.62-5.91Z"/><path class="cls-47" d="M270.83,280.7c0-.81.42-1.1,1.17-1.1,5.72,0,11.43,0,17.15.46-5.07,0-10.13,0-15.2,0-.9,0-1.9-.35-2.69.43Z"/><path class="cls-48" d="M304.29,193.69l-.46-1.33c.69-.32,1-.1,1,.66,0,2.43,0,4.86,0,7.29,0,1-.5,1.13-1.31,1.11-1.88,0-3.77-.11-5.64,0s-2-.69-1.63-2.09h.44c.29,1.42,1.39,1.18,2.39,1.19,4.92,0,4.91.05,4.95-4.8A3.36,3.36,0,0,1,304.29,193.69Z"/><path class="cls-49" d="M304.72,293.27c-.85-1.13-.39-2.43-.41-3.63-.06-3.91,0-7.82,0-11.73,0-.06.07-.17.11-.17a2.57,2.57,0,0,1,.4.05Q304.78,285.53,304.72,293.27Z"/><path class="cls-50" d="M309.48,281c.59.46.47,1.12.47,1.73q0,6.84,0,13.66c0,.05-.09.16-.13.15a1.89,1.89,0,0,1-.4-.08Q309.45,288.75,309.48,281Z"/><path class="cls-51" d="M168.86,277.72c.82,1,.45,2.12.41,3.16-.17,4.13.53,8.28-.39,12.38Q168.87,285.49,168.86,277.72Z"/><path class="cls-13" d="M166,271.65c.32-.58.88-.55,1.42-.55l11.31,0c-.29.84-1,.56-1.58.56C173.46,271.7,169.74,271.67,166,271.65Z"/><path class="cls-52" d="M296.29,193.69a6.51,6.51,0,0,1,0,5.19Z"/><path class="cls-53" d="M309,181.4a3.76,3.76,0,0,1,0-3.74A5.41,5.41,0,0,1,309,181.4Z"/><path class="cls-54" d="M298.65,188a3,3,0,0,1,3.27,0A6.36,6.36,0,0,1,298.65,188Z"/><path class="cls-55" d="M222.16,230.51c0-.21,0-.42.05-.63a2.56,2.56,0,0,1,1.42.92C222.9,231.93,222.56,231.06,222.16,230.51Z"/><path class="cls-44" d="M213.2,258.32a2.86,2.86,0,0,1,3.28,0A8.05,8.05,0,0,1,213.2,258.32Z"/><path class="cls-56" d="M185.51,166.79l1.25.47a.36.36,0,0,1,.13.37c0,.13-.06.2-.1.2a.69.69,0,0,1,0,.4A3,3,0,0,1,185.51,166.79Z"/><path class="cls-57" d="M163.64,273c0,17.63,0,35.27,0,52.91,0,1.91-.6,2.58-2.41,2.31,1.54-.48,1.94-1.47,1.93-3.09q-.1-24.74,0-49.46C163.18,274.76,162.82,273.76,163.64,273Z"/><path class="cls-58" d="M274.55,161.12c-.62.71-1.46.45-2.21.45H172.2v-.46Z"/><path class="cls-59" d="M261.8,327.27h-.42V274h.42Z"/><path class="cls-60" d="M286.51,285.78H271.34v-.33h15.18Z"/><ellipse class="cls-60" cx="297.46" cy="298.73" rx="10.92" ry="0.15"/><path class="cls-61" d="M292,293.33V284c.18,3.12,1.16,6.26,0,9.35Z"/><path class="cls-62" d="M197.12,311.23c0-1.3.19-2.42,1.89-2.31a15,15,0,0,1,6.61,0c1,2.65.24,5.39.44,8.08.06.93-.71.86-1.34.86-1.87,0-3.76-.1-5.62.05-1.6.12-2.08-.57-2-2A11.28,11.28,0,0,1,197.12,311.23Z"/><path class="cls-63" d="M188.65,317.35c-2.68,1.17-5.48.27-8.22.48-.22,0-.67-.32-.66-.47.18-2.81-.75-5.69.5-8.44a20.34,20.34,0,0,1,7.89,0c.6.65.28,1.52.51,2.26A18,18,0,0,1,188.65,317.35Z"/><path class="cls-62" d="M214.74,309.36l.45-.43a14.79,14.79,0,0,1,6.52,0c1.41,0,2.12.55,1.93,2.11-.26,2.22,1,5.2-.52,6.48-1.27,1.09-4.16.34-6.33.36-.75,0-1.6.24-2.12-.61A19.64,19.64,0,0,1,214.74,309.36Z"/><path class="cls-64" d="M256.14,328.21l-85,0v-.45h84.5c.16-.23.31-.24.47,0Z"/><path class="cls-65" d="M171.17,299c.48-.88,1.3-.43,1.94-.43q32.08,0,64.16,0V299a3.11,3.11,0,0,1-1.83.22H174a3,3,0,0,1-1.83-.22Z"/><path class="cls-64" d="M172.13,299h65.13c-.77.81-1.78.45-2.67.45q-30.85.09-61.71.16C172.34,299.56,172.2,299.38,172.13,299Z"/><path class="cls-66" d="M256.14,327.73h-.47V278.65c.74.61.46,1.45.47,2.2Q256.15,304.3,256.14,327.73Z"/><path class="cls-67" d="M188.16,309l-7.89,0c-.21-.11-.62-.45-.48-.44C182.58,308.65,185.44,307.74,188.16,309Z"/><path class="cls-68" d="M197.7,318.41h7.9v.23h-7.84Z"/><path class="cls-69" d="M214.74,309.36c0,2.63-.05,5.27-.07,7.9-.21.17-.52.12-.5-.09C214.47,314.57,213.39,311.87,214.74,309.36Z"/><path class="cls-70" d="M187.1,318.65h-6.93v-.23h6.94Z"/><path class="cls-67" d="M221.71,308.92h-6.52A8.34,8.34,0,0,1,221.71,308.92Z"/><path class="cls-71" d="M205.62,308.93H199A8.7,8.7,0,0,1,205.62,308.93Z"/><path class="cls-72" d="M188.65,317.35c0-2,0-4.08,0-6.13A8.63,8.63,0,0,1,188.65,317.35Z"/><path class="cls-68" d="M218.42,318.43H223v.19h-4.59Z"/><path class="cls-73" d="M197.12,311.23v4.7A5.52,5.52,0,0,1,197.12,311.23Z"/><path class="cls-74" d="M186.79,167.83l0-.57h0a4.34,4.34,0,0,1,2.31-.22h81.29a4.3,4.3,0,0,1,2.3.22l-.51.5H193.51C191.27,167.76,189,167.8,186.79,167.83Z"/><path class="cls-75" d="M272.19,173.39l0,.49c-.42.77-1.15.69-1.86.69H206.07a1.68,1.68,0,0,1-.9-.23l-1.36.85a1.87,1.87,0,0,1,2-1.61c8.06.67,16.13.2,24.2.26,12.86.1,25.73,0,38.59,0,1.36,0,3,.44,2.59-2.07C272,172.24,271.5,173.15,272.19,173.39Z"/><path class="cls-42" d="M205.17,174.34H269a5.71,5.71,0,0,0,3.21-.45c-.4,1.59-1.69.82-2.53.82q-30.7.08-61.41,0c-1,0-2,.06-3.06.08Z"/><path class="cls-76" d="M171.63,198c-.16-.29,0-.46.26-.46l15.72.14c-3.52.7-7.08.14-10.63.29C175.2,198,173.42,197.94,171.63,198Z"/><path class="cls-56" d="M272.66,167.26h-85.9c.7-.77,1.62-.46,2.44-.46q40.52,0,81,0C271.05,166.8,272,166.49,272.66,167.26Z"/><path class="cls-77" d="M191.53,192.22c.72-.72,1.63-.4,2.46-.4q39.09,0,78.2,0c-.46.61-1.13.44-1.74.44Q231,192.25,191.53,192.22Z"/><path class="cls-78" d="M304.29,193.69c0,1.71-.09,3.43,0,5.13s-.54,2.08-2,2a35.05,35.05,0,0,0-4,0c-1,0-1.67-.26-1.57-1.43h4.66v.36l-3.93.24c.29.19.36.27.43.27,6.53,0,5.93,1.45,5.82-5.55C303.72,194.13,303.62,193.75,304.29,193.69Z"/></svg>