<svg id="Layer_1" data-name="Layer 1" xmlns="http://www.w3.org/2000/svg" viewBox="0 0 500 500"><defs><style>.cls-1{fill:red;stroke:#000;stroke-miterlimit:10;stroke-width:7px;}.cls-2{fill:#ff0;}</style></defs><title>Iconos</title><path d="M71.05,320.46c.08-5.41,3.42-12,9.91-17,1.59-1.23,2.9-2.31,2.93-4.68.23-19.91,7.45-37.69,17.47-54.42,19.36-32.33,46.41-57.22,77.38-78,34.27-23,70.91-41.13,111.17-51.26,1.9-.47,3.82-.92,5.75-1.23,2.93-.47,5.36.36,6,3.54s-1.17,4.91-4.16,5.54a229.07,229.07,0,0,0-34.73,10.34c-49.23,19.05-93.82,45.34-129.88,84.54C114.61,237.6,100,259.68,94.4,286.68c-.14.64-.31,1.27-.41,1.92-1.46,8.66-1.45,8.66,6.89,10.35A24.87,24.87,0,0,1,94,348.1C81.05,347.23,71,336.36,71.05,320.46Z"/><path d="M429.22,321.67c-.13,20.09-19.18,32.06-35.57,24-3.21-1.57-5.46-1.37-8.52.18-14.18,7.18-29.5,9.3-45.18,9.33-31.06.06-60.63-7.51-89.15-18.95-45.56-18.26-86.28-44.19-120.87-79.32a35.8,35.8,0,0,1-4.15-4.82c-1.46-2.15-1.31-4.43.78-6.14,1.88-1.53,4-1.35,5.84.16a25.51,25.51,0,0,1,2.08,2.08C182.3,296.47,238.87,329,305.73,342.66c22.13,4.52,44.43,5.6,66.45-1.32.94-.3,1.87-.6,2.78-.95,7.48-2.8,7.37-2.77,5.48-10.18-2.57-10.09-.14-18.93,7.8-25.71s17.12-8,26.59-3.62S428.83,313.19,429.22,321.67Z"/><path d="M344,232.79c.37,29.88-2.61,59.39-10.39,88.32-.63,2.37-1.41,4.7-2.13,7-.91,3-2.67,5.16-6.05,4.15-3.73-1.12-3.68-4.1-2.68-7.2a201.44,201.44,0,0,0,7-29.05c9.27-56,7.55-111.38-10.67-165.62-6-17.92-14.12-34.83-26.17-49.61a90.1,90.1,0,0,0-14.4-13.95c-3.36-2.63-5-2.24-7.48,1.43-6.15,9.19-17.8,12.61-28.26,9a24.86,24.86,0,0,1,6.06-48.24c12.86-1,24.36,7.4,26.34,19.86.7,4.39,2.75,6.63,6.24,9,16.29,10.83,27.08,26.38,35.48,43.6,17.77,36.45,25.54,75.33,27.08,115.61C344.19,222.32,344,227.56,344,232.79Z"/><path d="M163.33,108.83a219,219,0,0,1,32.12,3c3.27.57,6.48,1.65,5.72,5.77s-3.95,4-7.34,3.46c-20.47-3.22-41-4.72-61.34.58-19.15,5-33.23,16-38.18,36.06-2.71,11-.5,21.77,3,32.3a100.14,100.14,0,0,0,10,21.27c1.8,2.91,2.85,6-.76,8-3.28,1.88-5.47-.28-7.16-3.05-8.07-13.31-13.72-27.49-15.2-43.09C81.76,148,95.68,125.81,120,115.84,134,110.08,148.79,108.92,163.33,108.83Z"/><path d="M347.45,109a112,112,0,0,1,31.18,6.08c28.23,10.18,42.69,34.59,37.42,64.1-4.56,25.58-18.19,46.61-34.56,66.1-1.95,2.32-4.46,3.08-6.88,1-3-2.51-1.73-5.22.34-7.7,10.1-12.1,18.87-25.05,25.27-39.51,3.8-8.57,6.69-17.42,7.31-26.82,1.71-26.13-12.36-44-39.8-50.8a101.71,101.71,0,0,0-24.26-3.09c-3.59,0-7.48-.09-7.29-5,.17-4.55,4-4.39,7.35-4.44Z"/><path d="M246.81,415.67c-14.61.35-29-7.86-41-20.92-14.83-16.14-24.6-35.27-32.19-55.62-1.15-3.09-1-6.05,2.6-7.25,3.4-1.12,5.11,1.17,6.18,4,5.75,15.18,12.77,29.69,22.32,42.89a91.75,91.75,0,0,0,13,14.6c18.76,16.81,43.36,17.52,63.08,1.84A88.7,88.7,0,0,0,302,370.38c.59-1,1.08-2,1.73-3,1.62-2.31,3.8-3.21,6.34-1.68,2.24,1.35,2.71,3.39,1.81,5.94C303.77,394.45,273.93,415.89,246.81,415.67Z"/><path class="cls-1" d="M250.24,214.4A17.53,17.53,0,0,1,268.09,232a17.84,17.84,0,0,1-17.76,17.76,17.61,17.61,0,0,1-17.51-17.43A17.37,17.37,0,0,1,250.24,214.4Z"/><path class="cls-2" d="M110.32,323.45a14.44,14.44,0,1,1-14.06-14.57A14.48,14.48,0,0,1,110.32,323.45Z"/><path class="cls-2" d="M404.49,337.8a14.44,14.44,0,1,1,14.3-14.34A14.42,14.42,0,0,1,404.49,337.8Z"/><path class="cls-2" d="M251.05,68.31a14.48,14.48,0,1,1,14.38-14.78A14.45,14.45,0,0,1,251.05,68.31Z"/></svg>