<svg id="Layer_1" data-name="Layer 1" xmlns="http://www.w3.org/2000/svg" viewBox="0 0 500 500"><defs><style>.cls-1{fill:#58595b;}.cls-2{fill:#75daff;}.cls-3{fill:#ff0;}</style></defs><title>Iconos</title><path d="M105,115.22l1.71.62q17.88,6.55,35.76,13.13c1,.38,1.83.64,2.78-.4a2.57,2.57,0,0,0,.68-3.1c-4.48-12-8.83-24-13.27-35.95-.48-1.29-.55-2,.88-2.84q24.17-13.83,48.23-27.83c1.38-.81,2-.49,2.85.6C192.69,69.24,200.88,79,209,88.76a2.51,2.51,0,0,0,3,1.06c1.4-.36,1.73-1.14,1.94-2.34,2.13-12.45,4.31-24.89,6.41-37.35.27-1.57.74-2.19,2.51-2.18q27.55.12,55.13,0c1.76,0,2.24.6,2.5,2.18,2.11,12.45,4.29,24.9,6.42,37.35.2,1.21.53,2,1.93,2.34a2.5,2.5,0,0,0,3-1.06C300,79,308.15,69.24,316.26,59.45c.9-1.08,1.47-1.41,2.85-.61q24.06,14,48.24,27.84c1.42.81,1.36,1.55.88,2.84-4.44,12-8.79,24-13.27,36a2.56,2.56,0,0,0,.68,3.1c.95,1,1.75.78,2.78.4,11.92-4.39,23.85-8.73,35.75-13.17,1.58-.59,2.35-.52,3.27,1.1q13.71,24,27.63,47.87c.77,1.33.59,1.93-.55,2.87-9.8,8.1-19.53,16.29-29.33,24.39a2.67,2.67,0,0,0-1.06,3.2c.39,1.44,1.3,1.6,2.47,1.8,12.45,2.13,24.89,4.31,37.35,6.42,1.52.26,2,.81,2,2.42q-.09,27.67,0,55.34c0,1.5-.41,2.07-1.91,2.32-12.45,2.1-24.9,4.27-37.35,6.41-1.18.21-2.19.33-2.61,1.9a2.68,2.68,0,0,0,1.15,3.19c9.79,8.11,19.52,16.29,29.32,24.4,1,.86,1.32,1.4.57,2.69q-14,24.06-27.87,48.23c-.79,1.38-1.44,1.48-2.79,1-12-4.45-24-8.81-36-13.24-1.13-.42-1.92-.57-3,.41s-1,1.93-.52,3.13c4.42,12,8.79,24,13.24,36,.51,1.37.35,2-1,2.77q-24.08,13.78-48,27.76c-1.43.83-2.09.5-3-.63-8.11-9.8-16.3-19.52-24.39-29.33a2.52,2.52,0,0,0-3-1c-1.42.33-1.68,1.19-1.88,2.38-2.15,12.52-4.35,25-6.45,37.56-.27,1.58-.92,2-2.47,2q-27.57-.08-55.13,0c-1.53,0-2.2-.37-2.47-2-2.1-12.53-4.3-25-6.45-37.57-.2-1.18-.45-2.05-1.87-2.38a2.53,2.53,0,0,0-3,.95c-8.09,9.81-16.28,19.54-24.39,29.33-.94,1.13-1.58,1.48-3,.64q-24-14-48-27.75c-1.34-.77-1.53-1.39-1-2.78,4.45-12,8.82-24,13.24-35.95.44-1.19.64-2.08-.52-3.14a2.43,2.43,0,0,0-3-.41c-12,4.43-24,8.79-36,13.23-1.34.5-2,.43-2.8-1q-13.85-24.18-27.87-48.23c-.74-1.29-.48-1.83.56-2.69,9.8-8.11,19.53-16.29,29.32-24.41,1.08-.9,1.57-1.65,1.15-3.18s-1.41-1.7-2.6-1.91c-12.45-2.14-24.9-4.31-37.36-6.41-1.49-.25-1.91-.82-1.9-2.32q.08-27.67,0-55.34c0-1.61.51-2.16,2-2.42,12.46-2.11,24.9-4.29,37.35-6.42,1.17-.2,2.08-.37,2.46-1.8a2.65,2.65,0,0,0-1.06-3.2c-9.79-8.11-19.52-16.29-29.33-24.39-1.14-.94-1.31-1.55-.54-2.87q13.95-24,27.8-48C103.93,116.14,104,115.19,105,115.22Z"/><path class="cls-1" d="M390,335.49c-.61-.24-1-.4-1.4-.54-11.33-4.16-22.66-8.29-34-12.48a2.08,2.08,0,0,0-2.74.58,130.25,130.25,0,0,1-12,12c-1,.89-.93,1.65-.52,2.76,4.18,11.31,8.28,22.66,12.5,34,.5,1.34.35,1.92-.91,2.63-9.57,5.45-19.12,10.93-28.6,16.52-1.53.89-2.22.61-3.25-.64-7.46-9.05-15-18-22.49-27.06-1-1.24-1.86-1.69-3.52-1.1a110.85,110.85,0,0,1-15.75,4.12,2.22,2.22,0,0,0-2,2.17c-2,11.9-4.15,23.77-6.16,35.68-.23,1.36-.71,1.69-2,1.69q-16.74-.08-33.49,0c-1.31,0-1.79-.33-2-1.69-2-11.9-4.15-23.78-6.16-35.68a2.22,2.22,0,0,0-2-2.17A121.49,121.49,0,0,1,207.3,362a2.21,2.21,0,0,0-2.84.88c-7.56,9.15-15.2,18.23-22.75,27.38-1,1.24-1.72,1.56-3.25.65q-14.24-8.38-28.61-16.51c-1.24-.71-1.42-1.28-.91-2.63,4.17-11.17,8.21-22.38,12.38-33.55.58-1.55.46-2.49-.85-3.62a116.42,116.42,0,0,1-11.39-11.37,2.24,2.24,0,0,0-2.89-.75c-11.3,4.21-22.65,8.3-33.95,12.53-1.45.54-2,.27-2.74-1q-8.16-14.36-16.52-28.6c-.87-1.48-.51-2.12.63-3.06,9-7.44,17.87-15,26.89-22.36,1.57-1.28,1.83-2.35,1.17-4.23a115.31,115.31,0,0,1-4-15.35,2.11,2.11,0,0,0-2-1.93c-12-2-23.92-4.17-35.89-6.2-1.26-.22-1.59-.63-1.59-1.86q.06-16.84,0-33.71c0-1.39.5-1.72,1.78-1.94,11.9-2,23.78-4.15,35.68-6.17,1.24-.21,1.82-.62,2.06-1.87A126.66,126.66,0,0,1,122,190.32a2.07,2.07,0,0,0-.77-2.67c-9.2-7.62-18.33-15.3-27.54-22.89-1.29-1.06-1.46-1.79-.6-3.25q8.2-14,16.19-28.06c1-1.76,1.87-1.88,3.63-1.22,11,4.12,22,8.08,32.95,12.17,1.45.54,2.35.49,3.43-.77a104.54,104.54,0,0,1,11.24-11.23c1.32-1.14,1.38-2.08.81-3.61-4.17-11.18-8.2-22.4-12.38-33.56-.53-1.41-.21-1.94,1-2.61q14.34-8.19,28.6-16.52c1.34-.79,2-.75,3.08.51,7.55,9.16,15.21,18.23,22.77,27.37.94,1.13,1.72,1.52,3.18,1a114.1,114.1,0,0,1,15.95-4.19,2.2,2.2,0,0,0,2-2.17c2-11.9,4.16-23.78,6.17-35.68.23-1.36.67-1.71,2-1.7q16.76.08,33.5,0c1.29,0,1.79.29,2,1.67,2,11.91,4.14,23.78,6.17,35.68.22,1.31.63,1.92,2,2.19A123.49,123.49,0,0,1,293.51,105a2.19,2.19,0,0,0,2.84-.85C304,95,311.66,85.84,319.26,76.63c1-1.23,1.7-1.36,3.08-.55q14.24,8.36,28.6,16.51c1.38.79,1.42,1.46.92,2.81-4.16,11.17-8.22,22.39-12.37,33.56-.5,1.36-.5,2.24.7,3.28a116,116,0,0,1,11.68,11.68,2.1,2.1,0,0,0,2.73.62c11.24-4.17,22.52-8.24,33.76-12.44,1.59-.6,2.29-.3,3.12,1.15q8.1,14.28,16.41,28.43c.77,1.31.67,2-.51,2.93-9.21,7.59-18.34,15.29-27.54,22.89a2.32,2.32,0,0,0-.91,3,125.2,125.2,0,0,1,4.21,16c.26,1.24.66,1.87,2.08,2.11,11.9,2,23.78,4.15,35.68,6.15,1.47.24,1.78.79,1.78,2.15q-.07,16.65,0,33.29c0,1.41-.37,1.87-1.79,2.11-11.9,2-23.78,4.15-35.68,6.17a2.1,2.1,0,0,0-2,1.92,123.11,123.11,0,0,1-4.25,16.16,2.32,2.32,0,0,0,.95,3C389,287,398,294.66,407.09,302.15c1.47,1.2,1.48,2,.58,3.58-5.51,9.37-10.91,18.81-16.36,28.21C391,334.55,390.79,335.4,390,335.49Z"/><path d="M250.43,349.53c-64,0-116.23-52.34-116-116.17A116,116,0,0,1,250.52,117.55c64,.06,116.1,52.23,115.9,116C366.21,297.66,314.34,349.52,250.43,349.53Z"/><path class="cls-2" d="M250.25,336.14c-56.71,0-102.49-46.08-102.48-103.13,0-56.25,46.26-102.2,102.83-102.18,56.76,0,102.51,46.18,102.48,103.38C353.05,290.29,306.8,336.14,250.25,336.14Z"/><path d="M224.52,251.66c-4.88,0-9.75,0-14.63,0-6.55,0-10-5.75-7-11.63q18.84-37,37.69-73.93c3.27-6.41,6.52-12.84,9.81-19.24,1.93-3.77,5.43-5.43,9.09-4.38s5.75,4.1,5.39,8.29c-1,11.46-2.1,22.92-3.18,34.38-.9,9.49-1.79,19-2.76,28.46-.15,1.5.4,1.74,1.72,1.73,9.89-.05,19.78,0,29.68,0,7.3,0,10.71,5.57,7.41,12.05q-23.49,46.13-47,92.25c-1.28,2.52-3,4.5-5.86,5a7.38,7.38,0,0,1-9-7.8c.34-5.64,1-11.26,1.49-16.88q1.8-19.2,3.64-38.38c.24-2.6.45-5.21.79-7.8.2-1.55,0-2.22-1.88-2.17C234.84,251.75,229.68,251.67,224.52,251.66Z"/><path d="M186,233.67c0,3-.05,5.94,0,8.91,0,1.19-.16,1.77-1.59,1.76-6.14-.08-12.29-.07-18.44,0-1.35,0-1.63-.5-1.62-1.74q.07-9,0-18c0-1.3.23-1.87,1.72-1.84q9.12.12,18.23,0c1.49,0,1.73.54,1.7,1.83C186,227.6,186,230.64,186,233.67Z"/><path d="M325.6,222.76c3,0,6.08.05,9.11,0,1.22,0,1.76.21,1.75,1.61-.07,6.14-.06,12.29,0,18.44,0,1.26-.48,1.54-1.61,1.53q-9.22-.06-18.44,0c-1.15,0-1.62-.26-1.6-1.52q.07-9.33,0-18.65c0-1.16.41-1.42,1.47-1.4C319.38,222.8,322.49,222.77,325.6,222.76Z"/><path class="cls-3" d="M252.08,286.87q.94-10.22,1.91-20.44c.62-6.54,1.31-13.07,1.87-19.61a7.44,7.44,0,0,0-7.69-8.4q-13.77-.06-27.56,0c-1.58,0-1.83-.3-1.1-1.73q14.33-28,28.57-56a8,8,0,0,1,.7-.85c-.38,4.18-.69,7.91-1,11.64-.92,9.56-1.88,19.11-2.76,28.67-.48,5.21,2.57,8.48,7.87,8.5,9,0,18,0,26.92,0,2.32,0,2.32,0,1.28,2.07L252.73,286.4a4.32,4.32,0,0,1-.33.5Z"/></svg>