<svg id="Layer_1" data-name="Layer 1" xmlns="http://www.w3.org/2000/svg" viewBox="0 0 500 500"><defs><style>.cls-1{fill:#fff;stroke:#000;stroke-miterlimit:10;stroke-width:20px;}.cls-2{fill:#ff0;}</style></defs><title>Iconos</title><line class="cls-1" x1="250" y1="62" x2="250" y2="438"/><circle cx="250" cy="250" r="111.25"/><circle class="cls-2" cx="250" cy="250" r="90.55"/><path d="M242.5,216.17V193.42a6.84,6.84,0,0,1,2.21-5.11,7.48,7.48,0,0,1,5.38-2.12,7.24,7.24,0,0,1,7.23,7.23v22.75h22.75a7.43,7.43,0,0,1,5.33,2.16,7.25,7.25,0,0,1,0,10.5,7.43,7.43,0,0,1-5.33,2.16H257.5v22.75a7.31,7.31,0,0,1-2.25,5.38,7.41,7.41,0,0,1-5.34,2.2,7.07,7.07,0,0,1-5.24-2.2,7.43,7.43,0,0,1-2.17-5.38V231H219.76a7.2,7.2,0,0,1-5.21-2.16,7.44,7.44,0,0,1,5.21-12.66Z"/><path d="M285.57,293.32v6.53a7.44,7.44,0,0,1-2.16,5.33,7,7,0,0,1-5.24,2.25H218.39a7,7,0,0,1-5.25-2.25,7.44,7.44,0,0,1-2.16-5.33v-6.53a7.37,7.37,0,0,1,7.41-7.41h59.78a7.45,7.45,0,0,1,5.11,2.08A6.85,6.85,0,0,1,285.57,293.32Z"/></svg>