<svg id="Layer_1" data-name="Layer 1" xmlns="http://www.w3.org/2000/svg" viewBox="0 0 500 500"><defs><style>.cls-1{fill:#010102;}.cls-2{fill:#617075;}.cls-3{fill:#3a3e3f;}.cls-4{fill:#ff0;}.cls-5{fill:#030201;}.cls-6{fill:#020102;}.cls-7{fill:#020202;}</style></defs><title>Iconos</title><path class="cls-1" d="M240.93,164.67c4.21,12.79,8.34,25.36,12.48,37.92Q272.18,259.52,291,316.43a21.19,21.19,0,0,0,1.2,3.14c1.21,2.4,2.74,3.78,5.92,3.83a44.66,44.66,0,0,1,21.82,6.12,4.77,4.77,0,0,0,4.39.44q8.43-2.9,16.95-5.56c6.75-2.12,11.16.13,13.33,6.72q14.76,44.76,29.52,89.53c2.2,6.65.12,11.08-6.53,13.42-5.71,2-11.5,3.83-17.27,5.65a4.14,4.14,0,0,0-3,2.38c-8.11,17.83-22.78,27.28-41.23,31.43-13.27,3-26.14,1.52-38.13-5.32a3.82,3.82,0,0,0-3.48-.16c-5.75,1.92-11.51,3.81-17.29,5.62-7,2.2-11.19,0-13.48-6.93q-14.7-44.61-29.4-89.22c-2.2-6.66-.38-10.55,6.18-13.37,5.69-2.44,11.67-4,17.58-5.78a4.35,4.35,0,0,0,3.08-2.72A46.26,46.26,0,0,1,255.7,337a4.51,4.51,0,0,0,1.92-4.88c-.9-5.11-2.91-9.89-4.52-14.79q-24.6-74.85-49.23-149.69c-.81-2.47-1.88-3.23-4.44-3.2-14.05.13-28.1.05-42.15.06-7.77,0-11.52,3.81-11.53,11.6a47.24,47.24,0,0,0,0,6.07c.43,3.35-.64,4.41-4.16,4.27-11.19-.46-19.56-9-19.6-20.67q-.12-30.18,0-60.36c0-2.23-.23-3.72-2.6-5.07a8.52,8.52,0,0,1,.13-14.94A4,4,0,0,0,122,81a24.64,24.64,0,0,1,0-4.38c.18-1.82-.57-2.71-2.16-3.62-6.41-3.67-6.39-11.93,0-15.54A3.47,3.47,0,0,0,122,53.76c-.13-2.92-.09-5.84,0-8.77.25-11.49,8.77-20,20.22-20q68.63,0,137.24,0c11.64,0,20.13,8.49,20.4,20.17,0,1.47,0,2.93,0,4.39,0,3.59-.34,6.69,3.8,9.25,4.95,3.07,4,11-1.33,13.84-2.34,1.26-2.58,2.69-2.49,4.79a39.12,39.12,0,0,1,0,4.72,2.5,2.5,0,0,0,1.76,2.8,8.16,8.16,0,0,1,5.05,8,7.93,7.93,0,0,1-5,7.76c-2.06.87-1.84,2.25-1.84,3.79,0,20.46.08,40.91,0,61.37-.06,12.11-9.14,20.65-21.19,20.44-2.1,0-2.72-.64-2.62-2.69.15-3.25.12-6.52,0-9.78-.19-4.63-3.51-9-7.91-9.14C259.16,164.41,250.19,164.67,240.93,164.67Z"/><path class="cls-2" d="M211.28,101.9c26.64,0,53.28.06,79.92-.07,3.4,0,4.4.94,4.37,4.37-.15,19.67-.05,39.34-.09,59,0,7.58-4,13.35-10.5,15.71-3.8,1.37-4.35,1.07-4.24-2.88.13-4.73-.31-9.23-3.61-13a13.74,13.74,0,0,0-10.59-5.1q-55.47-.06-110.94,0A14.41,14.41,0,0,0,141.18,174c-.06,1.23,0,2.47,0,3.7,0,4.35-.47,4.72-4.62,3-6.07-2.47-9.89-7.09-10-13.58-.3-20.91-.13-41.82-.2-62.72,0-2.52,1.5-2.58,3.33-2.58q14.84,0,29.68,0Z"/><path class="cls-2" d="M303.74,470.28A43,43,0,0,1,279.89,464a6.51,6.51,0,0,0-6.05-.58c-5.83,2-11.7,4-17.6,5.82-4.92,1.52-6.81.46-8.37-4.29q-14.52-44.18-29.07-88.34c-1.62-4.94-.82-6.7,4.12-8.4,6.06-2.08,12.15-4,18.23-6.06,1.37-.46,2.64-.89,3.31-2.52,7.54-18.26,22.23-27.39,40.79-31,11.68-2.26,23.08-.82,33.48,5.53a5.79,5.79,0,0,0,5.38.61c6.16-2.1,12.36-4.13,18.59-6,4.6-1.4,6.1-.54,7.58,3.93q14.6,44.16,29.17,88.32c1.87,5.65,1,7.42-4.66,9.25-5.88,1.91-11.75,3.83-17.64,5.7a4.94,4.94,0,0,0-3.38,3c-7.58,17.94-22.13,26.72-40.38,30.55A37.86,37.86,0,0,1,303.74,470.28Z"/><path class="cls-3" d="M222,164.5c3.93,0,7.86.08,11.79,0,1.8-.06,2.52.66,3.06,2.29Q261.76,242.4,286.75,318c.58,1.77,1.22,3.51,1.83,5.26-1.85.37-3.69.76-5.54,1.11a55.9,55.9,0,0,0-17.4,6.13c-2.47,1.4-3.15,1.55-4.12-1.71-3.57-11.93-7.74-23.68-11.64-35.52q-20.61-62.68-41.26-125.36c-1-3-.4-3.68,2.6-3.48,3.58.23,7.19,0,10.79,0Z"/><path class="cls-2" d="M210.68,56.21H130.83c-4.45,0-4.51,0-4.47-4.48s-.55-9.19,1.74-13.53a15,15,0,0,1,11.8-8.44,55.31,55.31,0,0,1,7.39-.43q63.86,0,127.71,0a59.33,59.33,0,0,1,6.38.37,15.41,15.41,0,0,1,13.75,12.43c.81,4,.32,8.06.3,12.1,0,1.66-1.16,2-2.53,2-3.48,0-7,0-10.45,0Z"/><path class="cls-2" d="M210.82,74.2q40.1,0,80.19,0c1.45,0,3.64-.82,4.16,1.12a13.11,13.11,0,0,1-.18,7.93c-.29.76-1.35.73-2.12.77-1.68.1-3.36.17-5.05.17h-155c-6.38,0-8-2.22-6.42-8.4.45-1.7,1.65-1.61,2.87-1.62,4.49,0,9,0,13.48,0Z"/><path class="cls-4" d="M211,69.54H126.66a18.8,18.8,0,0,1-3.36-.09,4.05,4.05,0,0,1-3.6-4.22A4.11,4.11,0,0,1,123.26,61a14.45,14.45,0,0,1,3-.09H295.86a15.46,15.46,0,0,1,2.36,0c2.43.36,3.91,1.8,3.92,4.27s-1.44,3.94-3.88,4.32a17.24,17.24,0,0,1-2.69.06Z"/><path class="cls-4" d="M210.94,97.24q-42.13,0-84.27,0a21.87,21.87,0,0,1-3,0c-2.43-.34-3.92-1.83-3.94-4.27s1.54-3.87,3.92-4.31a14.15,14.15,0,0,1,2.35,0q85.11,0,170.22,0c1.61,0,3.18,0,4.46,1.11a4.09,4.09,0,0,1,1.41,4.24,4,4,0,0,1-3.16,3.17,17,17,0,0,1-3.35.17Z"/><path class="cls-5" d="M230.23,130.36a19.34,19.34,0,0,1-19.34,19.28,19.53,19.53,0,0,1-19.26-19.73,19.3,19.3,0,1,1,38.6.45Z"/><path class="cls-6" d="M244.25,399.06c.42-31.82,24.88-55.55,57.07-54.93,29.55.57,54.16,26.19,52.9,57.1a55.27,55.27,0,0,1-57.28,52.87C268.21,453.34,243.86,428.22,244.25,399.06Z"/><path class="cls-4" d="M211,115.26A14.89,14.89,0,1,1,196,129.77,14.95,14.95,0,0,1,211,115.26Z"/><path class="cls-4" d="M248.71,398.49a50.38,50.38,0,0,1,51.23-49.9c28.18.45,50.17,23.31,49.73,51.71-.44,27.77-23.6,49.74-51.86,49.18A50.44,50.44,0,0,1,248.71,398.49Z"/><path class="cls-7" d="M255.73,398.88A43.52,43.52,0,1,1,299,442.58,43.37,43.37,0,0,1,255.73,398.88Z"/><path class="cls-2" d="M299.33,438.06a39,39,0,1,1,38.86-39.47A39,39,0,0,1,299.33,438.06Z"/></svg>