<svg id="Layer_1" data-name="Layer 1" xmlns="http://www.w3.org/2000/svg" viewBox="0 0 500 500"><defs><style>.cls-1{fill:#fdfdfd;}</style></defs><title>Iconos Logros #2</title><path d="M250.37,455C139.84,456.51,46.83,365.05,45,254.07c-1.88-114,87.76-207.61,201.85-209C362.44,43.56,452.24,133.58,455,244.85A204.34,204.34,0,0,1,250.37,455Z"/><path class="cls-1" d="M121.6,169.34a11.38,11.38,0,0,1-9.8-16.94,111.71,111.71,0,0,1,45-45.41c5.84-3.24,11.19-1.74,15,3.84a10.68,10.68,0,0,1-3.55,15.6c-15.51,9.37-27.93,21.6-36.82,37.4C129.26,167.58,125.68,169,121.6,169.34Z"/></svg>