<svg id="Layer_1" data-name="Layer 1" xmlns="http://www.w3.org/2000/svg" viewBox="0 0 500 500"><defs><style>.cls-1{fill:#010102;}.cls-2{fill:#f1cdb7;}.cls-3{fill:#090909;}.cls-4{fill:#d14546;}.cls-5{fill:#f3cab4;}.cls-6{fill:#020204;}.cls-7{fill:#08060d;}</style></defs><title>Iconos Logros #2</title><path class="cls-1" d="M433.08,97.08c5.52-3.79,10.19-2.55,14.63,2.1,6.25,6.55,12.87,12.73,19.08,19.31,11.21,11.88,11.3,29.12.41,39.85-11.39,11.22-28.15,11-40.29-.72-5.41-5.2-10.77-10.47-15.92-15.92-2.33-2.45-3.8-2.7-6.31-.1-9.22,9.5-18.56,18.9-28.11,28.06-3,2.87-2.1,4.39.35,6.77q13,12.72,25.73,25.77c5.17,5.29,5.78,10,1.81,13.85-4.62,4.46-9.41,3.41-13.35-.82s-5.33-.08-7.14,1.73Q333.3,267.42,282.76,318c-14.37,14.35-28.37,29.1-43.28,42.86C219,379.76,194.93,385,168.27,376.65c-3.88-1.21-5.93-.32-8.5,2.31-9.39,9.65-19,19-28.52,28.6-8.86,8.92-19.16,12.54-31.29,8-3.6-1.35-4.84.94-6.59,2.67q-24.2,24-48.32,48.14a31.21,31.21,0,0,1-4.41,4c-3.82,2.55-7.66,2.1-10.83-1.08s-3.58-7.08-1-10.83a44.56,44.56,0,0,1,5.34-5.84c15.44-15.46,30.83-31,46.42-46.28,2.82-2.77,3.72-5,2.38-9-3.65-11.21.07-20.78,8.17-28.88,9.67-9.67,19.29-19.41,29.12-28.92,2.69-2.61,3.43-4.87,2.28-8.58-8.11-26.14-3.7-50.27,15.1-70.08,26.88-28.34,54.92-55.57,82.5-83.23q31.1-31.17,62.36-62.18c3.07-3,4.06-4.85.59-8.33-3.79-3.79-3.84-8.55.28-12.3s8.59-3,12.42.7c9.14,9,18.25,18,27.17,27.13,2.59,2.66,4.11,2.79,6.79,0Q343.31,108.52,357.4,95c2.69-2.59,2.93-4.16.07-6.78C352.1,83.29,347,78.06,342,72.82c-12-12.38-12.26-29.51-.8-40.82,11.23-11.08,28-10.62,40.34,1.18,4.93,4.74,9.76,9.59,14.55,14.47,6,6.14,6.14,9.06.82,15.93-4.37,4.64-8.53,2-12.38-.66-4.39-3-7.7-7.25-11.52-10.91-2.23-2.14-4.31-4.43-6.68-6.43-3.59-3-7.38-3-10.87-.17s-3.75,6.8-1.87,10.8c1.05,2.23,2.91,3.87,4.62,5.59q39.57,39.58,79.16,79.16a33,33,0,0,0,3.91,3.57c4.41,3.18,9.41,2.94,12.58-.56s2.92-7.6-.94-11.85c-5.8-6.37-12.14-12.22-18.15-18.38-3.23-3.31-5.32-7-4.67-11.86C430.34,99.84,431,98,433.08,97.08Z"/><path class="cls-2" d="M433.08,97.08c-3.7,5.55-2.41,10.21,2.23,14.63,6.06,5.76,12,11.71,17.79,17.72,5.63,5.81,6.18,11.77,1.78,16.34s-11,4.15-16.83-1.7q-41.42-41.31-82.74-82.71c-6-6-6.53-12.18-1.78-16.8s10.37-4,16.28,1.7c4.77,4.58,9.52,9.19,14,14,3.74,4,7.88,5.39,13,3.3,6.48,1.76,9.84,7.81,15.21,11.1a7.46,7.46,0,0,1-.45,3.2c-1.93,8,1.62,11.55,9.78,9.68a6.06,6.06,0,0,1,3.21-.26A19.85,19.85,0,0,0,433.08,97.08Z"/><path class="cls-3" d="M424.62,87.3c-4.23,3.41-8.69,4.66-13,.37s-2.93-8.77.44-13c4.21-2.05,8.34-2.69,11.91,1.17C427.3,79.43,426.65,83.36,424.62,87.3Z"/><path class="cls-4" d="M211.61,357.73c-19.23,10.3-46.45,4.22-61.6-13-18.84-21.44-18.76-52.87,1.39-73.34,42.29-42.95,85.11-85.35,127.72-128,5.78-5.77,11.64-11.46,17.31-17.33,1.95-2,3.23-2.22,5.33-.1q35.73,35.91,71.66,71.64c2.2,2.19,1.66,3.48-.25,5.34-6.64,6.47-13.23,13-19.67,19.67-2.09,2.17-3.38,1.84-5.28-.17q-6.37-6.72-13.11-13.11c-4.82-4.58-9.58-4.92-13.43-1.25s-3.7,8.48.9,13.37q6.35,6.75,13.12,13.1c2.33,2.16,2.33,3.58,0,5.81-7.77,7.52-15.45,15.15-22.94,22.95-2.48,2.58-4,2.4-6.33-.1-4-4.37-8.35-8.5-12.67-12.61-4.88-4.63-9.61-5-13.37-1.36-4,3.93-3.6,8.85,1.3,13.92,4.14,4.28,8.31,8.56,12.65,12.63,2.28,2.13,2.43,3.6.09,5.86-7.78,7.52-15.47,15.13-22.95,22.95-2.57,2.68-4.18,2.13-6.39-.19-4.11-4.32-8.35-8.52-12.65-12.64-4.73-4.53-9.71-4.89-13.5-1.19-3.64,3.54-3.34,9,1,13.55,4.12,4.3,8.42,8.44,12.73,12.55,2.15,2.05,3.3,3.53.4,6.27-8,7.58-15.74,15.47-23.44,23.37-2.05,2.1-3.35,1.95-5.3-.09-4.41-4.63-9-9.09-13.6-13.55-4-3.91-8.46-4.82-12.95-.94-3.86,3.33-3.51,8.86.88,13.43C202.79,349.44,207.15,353.42,211.61,357.73Z"/><path class="cls-5" d="M373.16,104.35c1,.86,1.83,1.51,2.58,2.26,5.64,5.6,11.15,11.34,16.93,16.78,2.49,2.34,1.92,3.77-.2,5.85q-14.42,14.16-28.59,28.56c-2.27,2.31-3.69,2.1-5.84-.16-5.46-5.76-11.12-11.35-16.82-16.89-1.71-1.67-2.28-2.78-.27-4.75,10.07-9.9,20-19.94,30-29.91A27.51,27.51,0,0,1,373.16,104.35Z"/><path class="cls-4" d="M109.34,400c-3.63-.52-6.85-1.82-8.67-5.23-2-3.79-2.35-8,.63-11.13C111,373.42,121,363.54,130.82,353.5c1.79-1.82,3-1,4.27.58a56.93,56.93,0,0,0,10.29,10.17c2.49,1.87,1.35,3-.25,4.62q-13.83,13.68-27.54,27.48A12.44,12.44,0,0,1,109.34,400Z"/><path class="cls-6" d="M248.92,204.12c7.2-.17,11.52,6.57,8.34,12.46a27.59,27.59,0,0,1-5,6Q222.1,252.84,191.9,283c-1.09,1.09-2.19,2.17-3.36,3.17-4.07,3.49-8.33,4-12.43.22-3.71-3.43-3.64-8.73.54-12.94q32.88-33.06,66-65.9C244.54,205.63,246.61,204,248.92,204.12Z"/><path class="cls-7" d="M280.21,190.67a8.44,8.44,0,0,1-8.71,8.75c-5.18-.21-8.25-3.22-8.43-8.29s2.9-8.21,8-8.76A8.45,8.45,0,0,1,280.21,190.67Z"/></svg>