<svg id="Layer_1" data-name="Layer 1" xmlns="http://www.w3.org/2000/svg" viewBox="0 0 500 500"><defs><style>.cls-1{fill:#2d6481;}.cls-2{fill:#254a61;}.cls-3{fill:#f0f7f9;}.cls-4{fill:#28796b;}.cls-5{fill:#2a4654;}.cls-6{fill:#eaf6f8;}.cls-7{fill:#728287;}.cls-8{fill:#c4dbe6;}.cls-9{fill:#eef2f3;}.cls-10{fill:#98b7c5;}.cls-11{fill:#b7d3db;}.cls-12{fill:#1e7e6e;}.cls-13{fill:#f0f8f7;}.cls-14{fill:#ecf3f5;}.cls-15{fill:#c4cfdb;}.cls-16{fill:#c6d6db;}.cls-17{fill:#70838d;}.cls-18{fill:#eef4f6;}.cls-19{fill:#32627d;}.cls-20{fill:#35637c;}.cls-21{fill:#3a6172;}</style></defs><title>Iconos Logros #2</title><path class="cls-1" d="M53.62,165.25a1.56,1.56,0,0,0,.4-1.14c.86-1.06.43-3.3,2.75-3,2.67.68,3.33,2.84,3.84,5.16.27,1.19.52,2.72,2.08,2.68,2,0,2.08-1.81,2.14-3.24.19-4.47-1.38-8.59-2.77-12.73a7.13,7.13,0,0,1-.33-2.47,95.31,95.31,0,0,1,23.88-30.07c4.08-.39,7.62,2,11.58,2.28,2.36.15,5.81,1.87,6.55-1.17.67-2.71-3.07-2.72-5.1-3.37-3-1-5.7-1.93-4.63-6,2.76-4.69,7.45-7.31,11.55-10.47C135,79,168.13,65.76,205.27,62.37a187.39,187.39,0,0,1,31.95-.5c5.35,1.44,11.34-.14,16.22,3.46l4.94,1.5c-.59,3.74-3.93,3-6.27,3.73-2.54.78-5.41,0-8.51,1.53,3.61,3.81,7.76,3.33,11.7,2.8,6.84-.94,13.67-2.13,20.16-4.57a10.49,10.49,0,0,1,10.18,1,205.9,205.9,0,0,0,47.83,24.45c2.11,2.79,6,3.64,7.58,7a100.61,100.61,0,0,0,3.32,28,20.49,20.49,0,0,0,1.32,4.2c.56,1.12,1.2,2.47,2.75,1.88,1.08-.41,1.14-1.68,1.06-2.74-.28-3.58-1.65-6.93-2.23-10.45-.77-4.68-2.28-9.45.81-13.93a31.46,31.46,0,0,1,8.87,8.1c4.75,11.41,14.83,19.1,20.67,29.79,4.42,8.08,9.43,15.84,11.28,25.07,6.07,24.49,8.37,49.24,4.94,74.34-.53,3.87-.47,8.1-4,10.89-14.65,4-19.33,10-21,26.88-.2,2.09-.2,4.2-.19,6.3,0,4.21-1.69,6.52-6.14,7.16a34.71,34.71,0,0,0-16.2,6.51c-1.26.94-3.38,2.09-2.15,3.91,1.08,1.61,3.14.64,4.59-.17a53.78,53.78,0,0,1,10.92-4.83c4.31-1.29,8.62-1.83,13-.61,3.07,1.58,2.4,4.05,1.47,6.51a77.06,77.06,0,0,1-7.37,13.9,200.35,200.35,0,0,1-57.15,59.52A9.31,9.31,0,0,1,305,385c-4.06.11-7.6-1.94-11.43-2.81-2-.46-4.76-1.44-5.66.78-1.18,2.94,2.17,2.75,3.81,3.61,1.42.75,3.31.87,3.61,3-1,3.13-3.79,4.34-6.38,5.66a185.22,185.22,0,0,1-92,20.47c-2.46-.09-5.12.28-6.87-2.13a2.61,2.61,0,0,1,1.44-2.6c12.78-7.11,23.9-17.34,38.71-20.65,5.55-1.24,11.06-2.59,16.83-1.55,1.57.29,3.8.65,4.09-1.64s-1.89-2.58-3.52-2.78c-7.2-.88-14.24.16-21.19,2.09-.6.17-1.18.44-1.77.65-11.39,4-11.39,4-12.15-7.72-1.23-19.13-20.1-37.1-39.94-38.22-12.61-.72-24.24.86-33.52,10.79-9,9.61-10.57,28-2.9,39.21,2.85,4.16,6.36,7.83,8.93,12.19-.46,3.91-3.16,2.31-5.15,1.94-6.9-1.3-13.05-4.67-19.32-7.59a192.15,192.15,0,0,1-58.52-42.1c-12.07-13-19-28.74-24.06-45.49-1.58-8.59-3.88-17-5.6-25.59C27.11,248.62,31,213.84,44.81,180.29,47,174.92,48.79,169.15,53.62,165.25Z"/><path class="cls-2" d="M190.33,412.71c9.22,2.69,18.73,1.67,27.92.88,17.22-1.47,34.36-4.57,50.38-11.39,9-3.85,19-6.11,26.33-13.46,3.39-2,5.89.8,8.73,1.65,1.58.47,2.88,1.71,4.53,2.12,1.06.26,2.17.32,2.84-.69.9-1.38-.05-2.28-1-3.18-1.7-1.61-5-1.67-5-5,7.62-3.93,14-9.6,20.54-14.95,18.67-15.22,33.09-34,44.81-54.86,1.66-3,4.08-5.85,2.79-9.72,9.84-2,14.67-9.19,17.08-17.91,2.37-8.54,3.07-17.37-1.46-25.71a3.77,3.77,0,0,1-.49-3c4.05-2.07,3.09-6.4,3.51-9.53a194.32,194.32,0,0,0-2.7-66c-.73-3.46-1.32-6.95-2-10.42,3-.13,3.94,2.25,4.72,4.31a223.55,223.55,0,0,1,13.56,54.87c3.44,30.48-2.4,59.39-12.72,87.76-6.91,19-18.24,35.42-30.41,51.34-1.88,2.47-5.65,5.78,1.34,6.67a4.36,4.36,0,0,1,4.4,3.32,107.62,107.62,0,0,1-18.81,18.86c-5.44-3-3.84-8.27-4.09-12.9-.14-2.74.8-5.4.95-8.13.09-1.45.3-3.4-1.38-3.78-2.24-.51-2.66,1.72-3,3.25a41.73,41.73,0,0,0-.39,18.16c1.46,7-.5,11.16-6.8,14.19a33,33,0,0,0-12,9.06c-2.79,3.56-5.81,3.79-9.19,1.13-4.74-3.75-10.35-5.46-16-7a10.88,10.88,0,0,0-4.34-.56c-1.06.15-2.21.41-2.37,1.63s.84,1.89,1.83,2.27c3.72,1.46,7.82,1.83,11.34,3.77,2.36,1.29,6,1.75,5.24,5.88A70.76,70.76,0,0,1,290,434c-5.86.6-11,3.73-16.86,4.55-1.66.23-3.86,1-4.4-1s1.81-2.54,3.32-3.09c3.16-1.15,6.48-1.78,9.62-3,1.58-.62,3.57-1.45,2.8-3.47s-2.81-1.1-4.39-.65c-10.08,2.93-20.24,5.5-30.58,7.46a171.54,171.54,0,0,1-52,2.17c-33-3.79-63.37-14.64-90.28-34.11C91.41,391.43,76.8,378.41,65.3,362.35c-1.6-2.23-4.33-4.34-2.49-7.78,11.62,10.85,23.2,21.81,36.93,29.95,13.08,7.76,26.37,15.29,41.21,19.41,1.31.36,2.65,1.68,3.89-.12a3.67,3.67,0,0,1,3.58.61c11.67,8.32,24.57,10.18,38.38,7.47A3.69,3.69,0,0,1,190.33,412.71Z"/><path d="M62.81,354.57c3,8.3,9.31,14.46,15.16,20.49,9.57,9.88,19.66,19.44,31.13,27.18C121,410.3,133.48,417.45,147,422.71c18,7,36.61,10.73,55.81,12.89,25.82,2.91,50.25-2.87,74.78-9.09,3.24-.82,7.47-5.18,9.4.49s-3.9,5.62-7.35,7c-3.25,1.33-7,1.16-10.49,3.61,5.49.45,9.86-1.8,14.47-2.84,2.05-.46,4-2.81,6.33-.8a176.13,176.13,0,0,1-86.52,11c-60.13-7.12-110.71-32.56-145.81-83C14.45,300,9.46,233.57,39.74,164.39c1.1-2.51,2.13-5.44,5.61-4.93,3.13.46,3.7,3,3.41,5.78.48,2.47-.8,4.5-1.73,6.58-11.82,26.32-17,54.1-16.82,82.74a158.7,158.7,0,0,0,3.21,31.17c1.43,8.28,4.31,16.25,5.52,24.58A236.14,236.14,0,0,0,55.46,345.2C57.48,348.76,60.67,351.21,62.81,354.57Z"/><path d="M364.45,377.31c-2.27,2-4.81,1.93-6.67-.14s-.15-4.48,1.24-6.19c10.43-12.82,19.88-26.26,27.07-41.21,8-16.69,13-34.32,16.15-52.48,1.88-10.9,3.18-21.91,2.6-33-.81-15.65-2.88-31.08-7.37-46.16-2.72-9.13-4.73-18.51-10.27-26.53C382,155.37,372.53,141.74,361.65,129c-2.71-3.19-5.64-6.31-4.7-11.07a6.1,6.1,0,0,1,7.8,2C403.47,167,420,220.69,413,281.46a14.16,14.16,0,0,1-.7,2.42c-2.31.18-1.52-1.66-1.8-2.86.24,11.31-3.37,21.84-7,32.13a213.49,213.49,0,0,1-30,55.76C371,372.3,368.65,375.78,364.45,377.31Z"/><path d="M412.48,468.18c-15.24-8-26.4-19.15-29.23-36.94-3.94-24.78,11.81-48.4,35.82-53.69a47.36,47.36,0,0,1,56.1,33.84c.66,2.42,1.17,4.88,1.75,7.33a47.34,47.34,0,0,1-46.28,53.72C424.19,472.55,418.35,470.38,412.48,468.18Z"/><path d="M332.84,96.88c-18-5.2-33.73-14.84-49.35-24.69-2.79-1.75-4.68-1.31-7.45-.44-9.94,3.09-19.88,6.62-30.62,4.14-2.13-.49-4.5-.77-4.33-3.52.2-3.18,2.88-3.11,5.23-3.11,4.19,0,8.36-.08,12.06-2.43,8.13.7,15.39-1.18,21.21-7.24,2.15-2.24,4.86-2.2,7.61-2a50.79,50.79,0,0,1,14,3.52c15,5.61,29.29,12.56,42.05,22.38,5.06,3.9,7.92,8.23,5.31,15.16a16.27,16.27,0,0,0-.47,11.12c-.79,7.63.94,14.93,2.94,22.19.85,3.05,2.24,6.54-2.13,7.76-4.15,1.17-4.85-2.66-5.43-5.33-2.36-10.72-5.81-21.38-3.36-32.61C338.45,99,335.09,98.77,332.84,96.88Z"/><path d="M91.8,103.47c-2.64-4,.06-6,2.82-8.21a191.49,191.49,0,0,1,80.92-38.44,195.12,195.12,0,0,1,74.34-1.52c5,.85,6.68,3.11,3.43,7.63-4.08,2.8-8.21-.31-12.31.1-50.93-5.19-97,7.12-138,38.07C100,103.41,96.67,108.19,91.8,103.47Z"/><path d="M62.81,150.1c1.54,5.35,4.12,10.42,3.85,16.22-.11,2.41-.16,4.83-3.21,5.16-3.25.35-4.54-1.66-4.37-4.61a5.65,5.65,0,0,0-2.6-5.27c-1.36-2.9-1.08-6.24-2.44-9.14-.89-3.13-3-5.53-5.23-7.65-3.24-3.05-3.88-6.7-2.06-10.26C53,122.29,61,111.5,74.18,105.68a7.11,7.11,0,0,1,7.54,1.54c3.68,3.24,8,5,12.69,6.26,1,3.72,4.51,2.94,7,3.66,2.81.82,5.69,1.56,5.21,4.93-.55,3.82-4.18,3.11-6.62,2.68-4.86-.87-9.61-2.38-14.4-3.63s-8,.34-10.16,5c-2,4.17-5.39,7.46-8.93,10.32C61.78,140.23,59.45,144.3,62.81,150.1Z"/><path d="M309,425.66c-2.61-4.5-7.51-5-11.74-6.51-2.14-.78-4.49-1-6.7-1.61s-2.95-2.44-2.88-4.37c.09-2.35,2-3.19,4-3,8,.78,15.64,2.58,22,7.87,3.1,2.6,5.33,2.75,7.86-.88,3.71-5.33,9.71-8,15.12-11,3.83-2.16,4.12-4.49,3.41-8.09a55.74,55.74,0,0,1,.27-23c.61-2.75,1.86-4.07,4.64-4,3.63.11,2.95,2.81,3,5,.15,4.2-1.57,8.17-1.38,12.45.17,3.68.67,7.07,2.62,10.19a9.89,9.89,0,0,0,.47,3c4.18,8.55,3.92,10.53-2.57,17.34A54.43,54.43,0,0,1,330,431.26c-5.25,2.37-9.81,2.56-14.12-2.16C314.27,427.34,312.28,424.83,309,425.66Z"/><path d="M71.54,71.66A23.84,23.84,0,0,1,58.66,27a23.4,23.4,0,0,1,29.56,5.58c1.76,2,3.21,4.37,4.8,6.57,7,15.5-2.79,31.4-19.68,32.09A5.06,5.06,0,0,0,71.54,71.66Z"/><path class="cls-3" d="M94.41,113.48c-5.4,2.36-8.81-1.76-12.64-4.09-2.45-1.48-4.37-3.86-7.59-3.71,3.48-2.75,7.41-3.68,10.85-.62s5,1.2,6.77-1.59c3.21,1.91,5.49,0,7.85-1.85,37.68-29.78,80.59-43.14,128.46-40.85,4.19.2,8.35.83,12.53,1.26-.59,2.85-2.53,1.25-4,1.22-38.14-1.78-74.18,5.68-107.54,24.66C116.55,95.05,104.56,103,94.41,113.48Z"/><path class="cls-4" d="M412.48,468.18c9.26,1.15,18.29,3.78,27.91,1.19,21.68-5.84,36.38-24.36,36.4-46.89,0-1.25.09-2.51.13-3.76a42.47,42.47,0,0,1-15.16,49.14C447,478.59,426.26,478.73,412.48,468.18Z"/><path class="cls-5" d="M364.45,377.31A188.46,188.46,0,0,0,393,334.21c8.35-17.51,15-35.81,17.07-55.78,1.86,1.81.27,4.3,2.25,5.45-2.57,22.34-10.18,43-20.83,62.65-6.5,12-13.89,23.4-23.39,33.3Z"/><path class="cls-6" d="M32.76,286.29C25,246.83,29,208.65,45.23,171.8c1-2.26,2.34-4.38,3.53-6.56h4.86c-10.43,21-17.78,43-20.47,66.39A217.45,217.45,0,0,0,34,285.05C34.42,286.29,33.88,286.57,32.76,286.29Z"/><path class="cls-7" d="M71.54,71.66c12.54-1.84,20-8.78,22.32-21.44.7-3.9-1.3-7.35-.84-11.09,6.47,5.61,6.44,12.75,4.1,20-2.48,7.65-8.37,11.75-16.24,12.71C77.82,72.18,74.66,71.73,71.54,71.66Z"/><path class="cls-8" d="M236.65,63.25c1.32-.43,2.91,0,4-1.22,4.26-.16,8.36,1.83,12.67.9.05.8.09,1.6.13,2.4Z"/><path class="cls-6" d="M54,152.46c2.14,2.69,4,5.47,2.44,9.14L54,164.11C54,160.22,53.11,156.34,54,152.46Z"/><path d="M190.33,412.71c-16.63,4.51-31.89,2-45.49-8.9-12.13-10.54-17.51-23.29-14.51-39.64,2-11,15.06-22.93,28.25-24.57,22-2.74,41.7,5.95,51.37,24.83,3.89,7.58,4.85,15.37,3.89,24.12,10.33-2.84,20-7.13,30.73-6.18.83.07,1.68,0,2.52,0,3.6.15,7.56,1,6.9,5.33-.59,3.87-4.27,3.07-7.69,2.73-12.11-1.18-23.13,2.61-33.32,8.91C205.52,404,198.46,409.24,190.33,412.71Z"/><path d="M388.37,257.53c6,7.29,7.15,24.24,2.31,33.17-.78,1.45-1.57,2.9-2.35,4.36-3.21,6.06-7.25,10.74-15.09,9.09a36.06,36.06,0,0,0-23.86,6.07c-2.49,1.7-5.87,3-7.93,0-2.48-3.56,1.31-4.83,3.52-6.62a31.53,31.53,0,0,1,17.18-6.86c4.53-.41,5-2.33,4.87-6a48.49,48.49,0,0,1,4.5-22.55C375.27,259.91,379.37,257.12,388.37,257.53Z"/><path d="M48.9,236.61c1.65-6.54.48-14.32,3.46-21.44.93-2.22,1.69-5.25,5.14-4.3,3.75,1,2.92,4.08,2.34,6.75-3.11,14.35-4.11,28.63,1.63,42.62,1.19,2.88,2.94,5.54,4.39,8.32,1.06,2,1.36,4.17-.64,5.7-2.27,1.73-3.92,0-5.37-1.54-6.11-6.61-8.12-15-9.62-23.44C49.54,245.38,49.38,241.38,48.9,236.61Z"/><path d="M262,224.52c3.76-.13,7.28-.19,10.37,2.19,4.7,3.62,5.25,9.23,1.2,13.57-5,5.38-15.77,7.77-22.74,5.05-7.4-2.88-8.81-11.25-2.69-16.66C252.13,225.15,257,224.08,262,224.52Z"/><path d="M190,147.61c-15.46,1.65-28.38-15.6-26.27-30.29.4-2.78,1.7-5.08,4.72-4.82s2.91,3.08,2.85,5.41c-.18,7,1.78,13.16,7.43,17.82,6.17,5.1,13.44,6.17,20.29,2.12,3-1.78,5.28-1.83,6.87,1.06,1.81,3.32-.59,5.09-3.38,6.07C198.4,146.43,194.3,148.21,190,147.61Z"/><path d="M375.88,205.65c0-2.51-.2-5,.05-7.52.28-2.73,1-6,4.27-6,3.69,0,4.91,3.21,4.27,6.33-1.14,5.63.23,11.16.07,16.72-.21,7,.5,13.77,3.11,20.27.92,2.27.89,4.2-1.54,5.24-2.23,1-4.16,0-5.41-1.93-2.19-3.41-2.93-7.44-3.42-11.28-.92-7.22-1.12-14.53-1.61-21.79Z"/><path d="M139.71,328c0,3.94.28,7.12-.07,10.23-.39,3.43-2.5,6.38-6.08,5.76s-2.69-4.08-2.11-6.76c2.3-10.69-.71-20.7-3.65-30.79-.92-3.13-4.86-7.73,1-9.49,5.36-1.62,5.69,4.05,6.58,7.3C137.5,312.29,141.41,320.06,139.71,328Z"/><path d="M223.41,187a95.11,95.11,0,0,1,9.45,3.66c8.69,4.44,16.06,10.42,20.73,19.23,1.24,2.34,2.08,5-.82,6.58-3.11,1.66-4.83-.34-6.29-3.11-4.81-9.15-12.76-14.57-22.35-17.74-2.62-.87-4.78-2-4.52-5C219.79,188.53,221.5,187.52,223.41,187Z"/><path d="M146.14,235.59c-.07,5.83-4,10.24-9.32,10.37s-10.92-5.31-10.92-10.67,5.61-10.83,10.92-10.67C142.43,224.79,146.21,229.24,146.14,235.59Z"/><path d="M346,229.31c-.23-2.5,1.26-3.75,3.05-4.4a3,3,0,0,1,3.95,2.17c3.1,11.15,11,18.37,20,24.67a3.3,3.3,0,0,1,1.16,4.45,4,4,0,0,1-4.77,2.16C362.27,256.18,346,238.39,346,229.31Z"/><path d="M249.55,113.61a36,36,0,0,1-5.61-.32c-2.15-.45-2.91-2.36-2.89-4.29a3,3,0,0,1,3.34-3c8.4.33,16-1.67,22.79-6.83a3.75,3.75,0,0,1,5.58.76c1.66,2.28,0,4-1.6,5.34C265,110.58,258,113.92,249.55,113.61Z"/><path d="M222.46,223.36a22.07,22.07,0,0,1,12.76,2.36c2.54,1.34,4.82,3.29,3.39,6.37s-4.17,2.8-6.93,1.22a17.87,17.87,0,0,0-17.41-.64c-2.56,1.2-5.07,1.21-6.14-2-1-2.9.38-4.77,3.2-5.8A24.39,24.39,0,0,1,222.46,223.36Z"/><path d="M138.55,207.4c0-6.75.36-13.39,5.85-18.43,1.6-1.46,3.21-3.13,5.4-1.45a3.86,3.86,0,0,1,.58,5.65c-4.46,5.75-4.6,12.34-4.21,19.09.16,2.74-.2,5.43-3.53,5.43-3,0-4-2.49-4.09-5.27C138.53,210.75,138.55,209.08,138.55,207.4Z"/><path class="cls-9" d="M62.81,150.1a43.49,43.49,0,0,0-2.8-4c-2.21-2.49-2.23-4,.82-6.29A50.09,50.09,0,0,0,75.75,123c3-5.78,5.85-5,9.83-1.86C77.56,130.45,69.37,139.64,62.81,150.1Z"/><path d="M305.1,383.68c1.77,1.07,3.47,2.26,5.31,3.18,2.5,1.24,4.64,3,3,5.77s-4.45,2.77-7.1,1A36.28,36.28,0,0,0,295,388.74c-2.21-.45-4.42-1-6.65-1.34-2.53-.44-3.58-2-3.31-4.38.31-2.66,2.29-3.15,4.54-3.17C295.05,379.79,299.69,383.32,305.1,383.68Z"/><path d="M213.8,314.29c3.69.81,3.8,4,2.42,6.66-3,5.72-6.55,11.14-10,16.6-1.47,2.34-3.85,2.42-6.14,1.53-2.94-1.15-1.91-3.51-.92-5.25,3.48-6.13,7.17-12.15,10.85-18.17C210.72,314.51,212,314.18,213.8,314.29Z"/><path d="M93.05,170.47c.07,3.3-.17,5.28-2.47,5.8a3.81,3.81,0,0,1-4.7-3.18c-1-6.29-4.58-11.13-8-16.1-1.31-1.89-1.92-3.84.2-5.52,1.83-1.45,4-1.92,5.58.17C88.11,157.71,92.3,164,93.05,170.47Z"/><path d="M324.09,284h-9.46c-2.37,0-4.14-.78-4.32-3.48a3.46,3.46,0,0,1,3.46-3.78c7.1-.61,14.26-.93,21.33.22,1.72.28,3.9,1.23,3.57,3.69s-2,3.47-4.48,3.38C330.83,283.89,327.46,284,324.09,284Z"/><path d="M291.5,201.92c.5,2.38-.34,3.07-1.62,3.68a23.28,23.28,0,0,0-11.58,11.7c-.84,1.86-2,3.84-4.79,2.8s-3-3.48-2.23-5.72c2.53-7.37,7.92-12.29,14.79-15.44C289.19,197.51,291.21,199.42,291.5,201.92Z"/><path d="M101.84,213.21c6,1.12,11.84,4.25,17.35,8.14,1.6,1.12,2.09,2.71,1,4.38s-2.43,2.94-4.7,1.86c-5.85-2.76-11.39-6.19-17.77-7.78-1.95-.48-2.39-2.26-1.82-4.08C96.7,213.15,98.9,213.18,101.84,213.21Z"/><path class="cls-10" d="M32.76,286.29,34,285.05c1.89,8.37,5.17,16.47,5,25.26C36.8,302.32,33.69,294.59,32.76,286.29Z"/><path class="cls-11" d="M332.84,96.88c2.45,1.6,7.88-1.21,7.26,4.91A11.1,11.1,0,0,1,332.84,96.88Z"/><path class="cls-12" d="M450.18,390.09A39.21,39.21,0,0,1,467.63,415c4.25,17.86-4.51,36.32-21.21,43.67-21.39,9.41-44.89,1-53.89-22.45a41.61,41.61,0,0,1,4.65-24.74c9.74-18.29,29.84-27.16,49.9-21.68A6.79,6.79,0,0,0,450.18,390.09Z"/><path class="cls-13" d="M450.18,390.09c-.76,2.25-2.45,1-3.64.81-29.2-5.29-51.53,12.23-53.19,41.74a21.53,21.53,0,0,1-.82,3.58c-9-30.59,15.72-55,42.25-51.38A49,49,0,0,1,450.18,390.09Z"/><path class="cls-14" d="M292.24,68.27c9.41-.07,36.32,13,44,21.52A181.1,181.1,0,0,1,292.24,68.27Z"/><path class="cls-15" d="M59.86,127.82q3.57-4,7.15-8.11c-.43,4.22-3.84,6.25-5.81,9.32Z"/><path class="cls-16" d="M327.65,422.72a41.68,41.68,0,0,1,13.66-10.49C337.87,417.61,334.2,420.44,327.65,422.72Z"/><path class="cls-17" d="M67.69,32.44c6.85-2.52,11.41,1.52,15,6.1C86.82,43.7,87,50,83.82,55.73a14.53,14.53,0,0,1-14.67,7.81c-4.32-.41-8.7-1.51-11.3-5.69C57.19,51.6,57.05,45.46,61,40c2-2.69,4-5.15,7.38-6.3C69.8,33.28,67.31,33.26,67.69,32.44Z"/><path class="cls-18" d="M67.69,32.44,72.5,33c-10,4.4-14.29,11.5-13.54,21.66.09,1.15.54,2.56-1.11,3.16C50.83,46.1,54.9,35.6,67.69,32.44Z"/><path class="cls-1" d="M166.89,347c19.08-.55,35.43,13.57,38.52,28,3.15,14.7-4.79,27.15-19.49,30.91-16.72,4.29-37.35-4.14-45.55-20.16-9.79-19.1,4.35-38.1,23.42-38.71C165,347,166.31,347,166.89,347Z"/><path class="cls-19" d="M385.88,271.08c.29,9.28-3.35,15.82-5.82,22.66a4,4,0,0,1-2.81,2.15c-1.6.16-1.5-1.7-1.9-2.79-2.22-6.17,1.66-22.54,6.24-26.71,1.7-1.55,3.19-1.31,3.84.78A13.49,13.49,0,0,1,385.88,271.08Z"/><path class="cls-20" d="M258.28,238.59c-2.55-.27-5.74,0-5.19-2,1-3.89,5-4.54,8.62-4.39,2.11.09,6.3-.55,5.71,1.67C266.27,238.15,261,237.1,258.28,238.59Z"/><path class="cls-21" d="M136.46,232.68a2.6,2.6,0,0,1,1.87,2.87,1.75,1.75,0,0,1-2.27,1.49c-1.32-.28-2.31-1-1.74-2.59C134.67,233.47,135.21,232.58,136.46,232.68Z"/></svg>