<svg id="Layer_1" data-name="Layer 1" xmlns="http://www.w3.org/2000/svg" viewBox="0 0 500 500"><defs><style>.cls-1{fill:#ee3969;}</style></defs><title>Iconos Logros #2</title><path class="cls-1" d="M452.19,162.85c-.4,32.78-10.21,61.51-30.95,84.83q-83.55,93.95-167.5,187.45c-2.75,3.07-4.28,3.08-7,0-55.66-62.38-111.83-124.2-167-187.13-30.58-34.87-39.33-77.45-25.59-123.71,13.82-46.55,44-74.38,87.3-82.19,34.7-6.26,65.41,5.3,91.32,32C237.66,79.2,242.43,84.47,247,90c2.53,3.06,4.1,2.83,6.63-.06,9-10.22,17.8-20.59,28.54-28.69,66.22-49.93,157.63-4.69,168.94,83.62A152.83,152.83,0,0,1,452.19,162.85Z"/><path d="M250.11,70.62C305.6,21,379.78,28.25,425,70.89c40.18,37.86,60.2,113.57,5.17,178.79,8.15,0,15,0,21.85,0s11.79,2.77,11.84,9.89-5.07,9.93-11.77,9.93q-66,0-132,0c-7,0-10.43-3.73-12.47-10-7.23-22.1-14.66-44.15-22-66.21-1.11-3.32-2.42-6.57-4.62-12.53-5,21.89-9.51,41.14-13.9,60.41q-12.81,56.25-25.55,112.52c-1.32,5.84-2.63,11.84-9.91,12.64s-9.72-4.94-12.38-10.26c-13.14-26.31-26.55-52.5-39.4-79-2.82-5.78-6-7.87-12.51-7.81-37.84.34-75.69.17-113.54.15-2.9,0-6.55.92-8.56-.46-3.55-2.44-8.49-6.39-8.41-9.6s5.08-8.52,8.64-9.21c7.37-1.44,15.21-.44,25.11-.44-29.53-34.47-40.49-72.28-31.4-114.93,6-28.16,20.71-51.33,42.78-69.8C125.22,28.87,195.39,21.9,250.11,70.62Zm75.29,179h50.82c28.93,0,28.93,0,46.51-23.29A106.16,106.16,0,0,0,408.79,83.13C367.28,46,304.23,46.89,264.1,85.26,250,98.7,250,98.7,236.27,85.51,204.48,55,156.62,47.12,117.42,65.83c-41,19.58-64.49,61-61.07,105.7C58.7,202.21,75,225.38,94.51,247c1.89,2.09,6.39,2.5,9.68,2.54,23,.21,46,.74,68.91-.14,11.51-.44,17.55,3.72,22.24,14,9.49,20.78,20.26,41,31.34,63.08,1.23-3.94,2-5.91,2.46-8q11.85-52,23.63-104c5.37-23.65,10.43-47.37,16.47-70.85,1-4,6.17-9.52,9.6-9.65s7.44,5.28,10.79,8.66c1.22,1.23,1.28,3.6,1.89,5.44Z"/><path d="M250.22,438.05l85-104.21q15.63-19.15,31.26-38.32c4.36-5.32,9.44-10,16.35-4.54s3.81,11.36-.66,16.83q-61,74.78-122,149.52c-7.37,9-12.89,8.89-20.43-.33Q179,382.69,118.36,308.25c-4.38-5.37-8-11.31-1.39-16.93,7-6,12.33-1.36,17,4.41Q187.85,361.93,241.81,428C244.41,431.23,247.11,434.35,250.22,438.05Z"/></svg>