<svg id="Layer_1" data-name="Layer 1" xmlns="http://www.w3.org/2000/svg" viewBox="0 0 500 500"><defs><style>.cls-1{fill:#8fccf8;}.cls-2{fill:#fff;}</style></defs><title>Iconos Logros #2</title><circle class="cls-1" cx="250" cy="250" r="222.5"/><path class="cls-2" d="M434.69,166.07c-.35.07-.49.35-.59.64-2.65,7.39-8.41,11-15.64,12.63s-14.81,1.4-22.24.59c-16.83-1.83-33.12-6.28-49.49-10.33-9.8-2.43-19.56-5-29.61-6.27a23.71,23.71,0,0,0-9.22.22c2,.6,3.9,1.24,5.86,1.8,21.54,6.2,43.38,11.22,65.13,16.59,11.47,2.84,22.93,5.72,34.42,8.49,1.6.38,1.74.95,1.27,2.36-2,6-6.74,9.21-14.17,9.46s-14.53-1.61-21.54-3.81c-14.18-4.48-27.62-10.78-41.22-16.71-8.68-3.79-17.28-7.81-26.49-10.25a12,12,0,0,0-5.85-.42c3.47,1.8,6.91,3.66,10.41,5.39,16.47,8.11,33.55,14.85,50.38,22.14,6.94,3,13.86,6.11,20.82,9.07,1.47.62,1.45,1.12.61,2.31-4.5,6.41-11.15,8.82-19.55,6.93-7.14-1.6-13.46-5-19.61-8.84-9.92-6.13-19-13.47-28.4-20.29a82.51,82.51,0,0,0-12.77-8.11,13,13,0,0,0-4.52-1.38,4,4,0,0,0,1.48,1.64c15.58,13.67,32.49,25.63,49.25,37.75,2.15,1.56,4.27,3.14,6.46,4.63,1,.67,1.16,1.11.23,2.06-4,4-8.64,5.26-14,3.58s-9.77-5.14-13.92-8.86c-8-7.14-14.59-15.51-21.62-23.51a81.92,81.92,0,0,0-8.06-8.39,7.82,7.82,0,0,0-3-2c0,.83.5,1.28.85,1.79,6.75,9.81,14.7,18.67,22.17,27.91,5,6.13,9.75,12.39,14.24,18.87,1,1.44.62,1.88-.82,2.37a13.72,13.72,0,0,1-12.35-1.7,36.34,36.34,0,0,1-9.62-9.61c-5.37-7.34-9.36-15.47-13.42-23.56-1.77-3.52-3.53-7-5.52-10.45-.74-1.25-1.22-1.25-2.3-.32-5.19,4.49-11.12,6.8-18.07,5.45a12.88,12.88,0,0,1-9.37-6.54c-.6-1.11-.85-1.7.94-1.82a27.07,27.07,0,0,0,16.36-7A12.52,12.52,0,0,0,287,168.44c-1.08-6.19,1.33-10.5,7.07-13.14,5.49-2.53,11.4-3,17.32-3.2,12.6-.36,25.09,1.08,37.56,2.68,20.09,2.57,40.08,5.9,60.21,8.19,8.13.93,16.3,1.62,24.49,1.79a6.83,6.83,0,0,1,1.08.2Z"/><path class="cls-2" d="M200.09,185.18a23.06,23.06,0,0,0-5.21,4.24c-5.09,5.2-9.63,10.88-14.44,16.33-6,6.74-12,13.45-19.47,18.57a25.49,25.49,0,0,1-8.13,3.87,12.91,12.91,0,0,1-13-3.67c-1-1-1-1.47.2-2.31q12.61-9,25.15-18.19c10.44-7.64,20.68-15.54,30.41-24.07.51-.44,1-.9,1.69-1.55a7.71,7.71,0,0,0-3.82.88c-4.57,1.95-8.57,4.84-12.57,7.71-9.81,7-19.17,14.69-29.45,21-6.15,3.8-12.46,7.24-19.6,8.85-8.47,1.91-15.17-.54-19.69-7-.85-1.23-.63-1.62.66-2.18q29.27-12.57,58.49-25.25,10.94-4.74,21.4-10.46c.57-.32,1.13-.66,2.09-1.22a17.75,17.75,0,0,0-6.13.72c-9.27,2.45-17.92,6.5-26.66,10.32-13.6,5.93-27,12.23-41.23,16.69-6.71,2.11-13.5,3.86-20.62,3.79A20.65,20.65,0,0,1,92.73,201a12.71,12.71,0,0,1-7.65-8.46c-.39-1.21-.14-1.69,1.14-2,11-2.68,22-5.42,33-8.15,23.53-5.84,47.2-11.14,70.45-18.1a9.53,9.53,0,0,0,2.16-.88,34.68,34.68,0,0,0-11.68.3c-13.16,2-25.95,5.74-38.87,8.89-12.44,3-24.89,6-37.66,7.37-7.93.84-15.87,1.18-23.68-.94-6.8-1.84-12-5.61-14.39-12.55-.43-1.23-.36-1.69,1.13-1.72,19.32-.5,38.36-3.53,57.45-6.21,18-2.52,36-5.45,54.29-6.31,7.82-.37,15.64-.37,23.3,1.66a25.67,25.67,0,0,1,4,1.44c5.8,2.68,8.2,7,7.1,13.3a12.2,12.2,0,0,0,4,11.67,27,27,0,0,0,16.94,7.37c1.52.11,1.44.6.89,1.62-2.63,4.84-7,6.79-12.19,7.07a20.61,20.61,0,0,1-15.17-5.66c-1.41-1.26-1.88-.83-2.64.49-4.08,7-7.32,14.51-11.26,21.62-3.44,6.2-7,12.29-12,17.44a23,23,0,0,1-8.23,5.82,13.25,13.25,0,0,1-9.56,0c-1.34-.48-1.35-1-.61-2.06,5.58-8.22,11.77-16,18.08-23.61s12.72-15.06,18.33-23.18l1.1-1.66Z"/><path class="cls-2" d="M279.3,267.41c-6.08-4.36-13-6.89-20.05-9.22-9.64-3.2-19.41-6-28.62-10.39a48.73,48.73,0,0,1-13.26-8.62,16.61,16.61,0,0,1-5-8.25c-1.72-7.5,1.59-11.37,9.17-10.71l.56.06a49.4,49.4,0,0,0,14.14-1c5.7-1.23,6.65-4.12,2.83-8.49a44,44,0,0,0-9.79-7.81c-5.08-3.24-10.28-3.34-15.62-.7-16.82,8.33-21.65,28.21-10.48,43.2,5.09,6.85,11.82,11.6,19.43,15.23,7.92,3.8,16.33,6.18,24.75,8.52,7.06,2,14.19,3.69,21,6.34,1.48.58,3.12,1.29,3.28,3.17s-1.35,2.64-2.55,3.59a7.8,7.8,0,0,1-.77.5,47.09,47.09,0,0,1-8.61,3.76c-1.66.58-3.32,1.18-5.15,1.84a7.4,7.4,0,0,0,.65.44,169.22,169.22,0,0,1,16.36,6.79,2,2,0,0,0,1.92-.15,27,27,0,0,0,8.2-6.19C288.38,281.75,287.46,273.27,279.3,267.41ZM227,208.71a2.3,2.3,0,0,1,4.59.4,2.3,2.3,0,1,1-4.59-.4Z"/><path class="cls-2" d="M250,154.56a15.4,15.4,0,0,1,7.23,29,2.78,2.78,0,0,0-1.72,2.82Q255,218.69,254.34,251c0,2.15,0,2.16-2.11,1.49-1.7-.54-3.37-1.21-5.1-1.62-1.41-.34-1.75-1.06-1.78-2.45-.33-20.62-.74-41.25-1.06-61.87a3.07,3.07,0,0,0-1.88-3.11A15.4,15.4,0,0,1,250,154.56Z"/><path class="cls-2" d="M286,202.21c-4.33-2.1-8.76-2.63-13.16-.47a38.91,38.91,0,0,0-12.2,9.14c-3.71,4.22-2.8,7.09,2.66,8.33a49.21,49.21,0,0,0,14.68,1,21.93,21.93,0,0,1,4.05,0c3.11.32,4.57,1.7,5.29,4.77,1.21,5.17-.6,9.44-4,13.18A41.66,41.66,0,0,1,273,245.92a114.12,114.12,0,0,1-16.65,7.47c7.07,2.34,13.64,4.57,20.09,7.14a1.74,1.74,0,0,0,1.57-.22,51.83,51.83,0,0,0,17.57-13.51C308,231.51,303.53,210.77,286,202.21Zm-15.37,9a2.13,2.13,0,0,1-2.38-2.21c-.07-1.44.8-2.22,2.23-2.41,1.39.11,2.33.79,2.36,2.25A2.11,2.11,0,0,1,270.61,211.2Z"/><path class="cls-2" d="M255.8,318.26a24.42,24.42,0,0,0,6.25-2.56c2.56-1.7,2.74-3.66.46-5.72a24.5,24.5,0,0,0-8.55-4.62q-11.15-3.93-22.34-7.69c-5.41-1.82-10.27-4.45-14-8.87a16.63,16.63,0,0,1-3.53-6.82c-1.42-5.8.83-10.14,5.25-13.78,2.26-1.86,4.24-2.59,7.26-1.39,5.19,2.05,10.63,3.48,16.07,5.21-.9.71-2,.58-2.93.81a25.54,25.54,0,0,0-8.25,3.12c-3.12,2-3.17,4.33-.18,6.57a25.64,25.64,0,0,0,6.76,3.33c7.45,2.74,15.07,5,22.37,8.13a56.71,56.71,0,0,1,7,3.38c6.24,3.77,10.19,9.09,10.18,16.65,0,4.84-2.47,8.53-6.17,11.47-.49.39-.86.57-1.4,0-3.7-3.82-8.46-5.59-13.48-6.82A4.19,4.19,0,0,1,255.8,318.26Z"/><path class="cls-2" d="M245,305.62a31.31,31.31,0,0,0-6.66,3.72c-3.34,2.71-3.13,5.23.66,7.26,4.37,2.33,9.24,2.91,14,3.94a40.68,40.68,0,0,1,10.17,3.21,12.38,12.38,0,0,1,1,21.47c-.41.27-.75.64-1.26.11-2.69-2.83-6.28-4.24-9.62-6.09.23-.83,1-.89,1.51-1.3.93-.78,2.28-1.36,2.09-2.8s-1.57-1.8-2.69-2.26a32.14,32.14,0,0,0-6-1.62,124.8,124.8,0,0,1-13-2.9,28.07,28.07,0,0,1-6.1-2.6c-5.9-3.49-8.3-9.33-6.51-15.94a20.57,20.57,0,0,1,5.52-9.24c.44-.45.85-.88,1.59-.62,4.7,1.65,9.41,3.27,14.12,4.92C244.16,305,244.65,305,245,305.62Z"/><path class="cls-2" d="M244.38,333.19c-1.73,1.92-1.66,2.72.4,4.32a41.26,41.26,0,0,0,6.38,3.68c2.19,1.13,4.42,2.18,6.56,3.38,6.43,3.61,8.67,9.41,6.39,16.45a28.49,28.49,0,0,1-8.06,12c-.59.56-1.09.74-1.65,0-.15-.19-.34-.35-.51-.53-2.38-2.51-2.38-2.51-.76-5.55,3.16-5.93,1.88-10.45-3.95-13.87-3.14-1.83-6.53-3.15-9.8-4.7-5.69-2.69-9.15-6.83-9-15.71,0-2.69.19-2.7,2.74-2.08C236.82,331.45,240.59,332.3,244.38,333.19Z"/><path class="cls-2" d="M258.47,379.29a11.72,11.72,0,0,1-5.08-.66c-9.26-2.78-17.51-12.44-18.47-21.6a13.42,13.42,0,0,1,.91-6.33c.32-.79.62-1,1.47-.55,2.76,1.6,5.57,3.14,8.38,4.67.68.37,1.09.62.45,1.48-1.69,2.28-1.57,4.84-.76,7.41,1.79,5.72,5.82,9.74,10.29,13.41C256.46,377.78,257.3,378.39,258.47,379.29Z"/><path class="cls-2" d="M253.67,281.5c0,1.84,0,3.68,0,5.52,0,.9-.27,1.28-1.19.87l-.34-.13c-1.95-.71-4.5-.91-5.7-2.28s-.43-4-.52-6.07c-.08-1.9,0-3.81-.1-5.71,0-.95.24-1.17,1.15-.89,1.94.58,3.9,1.1,5.87,1.58.91.22,1.1.73,1.08,1.58,0,1.84,0,3.69,0,5.53Z"/><path class="cls-2" d="M249.67,407A71.16,71.16,0,0,1,248,392.14q-.09-6-.26-12c0-1,0-1.42,1.27-.9,2.27.93,3.13,2.18,3,4.8-.44,6.79,0,13.65-1.36,20.39A4.18,4.18,0,0,1,249.67,407Z"/><path class="cls-2" d="M246.47,311.38c0-1.47,0-2.95,0-4.42,0-.87.26-1.1,1.08-.8,1.61.57,3.24,1.13,4.88,1.65a1.08,1.08,0,0,1,.85,1.21c-.06,2.76-.11,5.52-.11,8.29,0,.93-.38,1.21-1.24,1-.11,0-.24,0-.36-.07-1.6-.63-4,.12-4.78-1.57-.67-1.48-.14-3.5-.14-5.28Z"/><path class="cls-2" d="M247.56,355.92c4.44,2.71,5.24,5.81,2.86,9.67-.62,1-1,1.45-1.78.07a7,7,0,0,1-1.1-4C247.64,359.86,247.56,358,247.56,355.92Z"/><path class="cls-2" d="M246.9,334.71c0-.77.11-1.21,1-1,1.31.32,2.64.57,4,.79,1.13.19,1.13,1,.72,1.62-.6.85-1.73,1.63-2.64,1.25C248.76,336.88,247.08,336.54,246.9,334.71Z"/><path class="cls-2" d="M241.39,379.46c3.24-3.16,3.24-3.16,5.57-1.17A12.87,12.87,0,0,1,241.39,379.46Z"/></svg>