<svg id="Layer_1" data-name="Layer 1" xmlns="http://www.w3.org/2000/svg" viewBox="0 0 500 500"><defs><style>.cls-1{fill:#8fccf8;}.cls-2{fill:#656d78;}.cls-3{fill:#fed1a5;}.cls-4{fill:#e5e8ec;}.cls-5{fill:#ec5565;stroke:#fff;stroke-miterlimit:10;stroke-width:5px;}</style></defs><title>Iconos Logros #2</title><circle class="cls-1" cx="250" cy="250" r="143"/><path class="cls-2" d="M248.17,429.87a21.64,21.64,0,0,1-12-8.44c-2.8-2.7-2.36-6.37-2.9-9.74a9.46,9.46,0,0,1,0-1.3c.06-1.47.23-2.89,1.44-3.95a6.48,6.48,0,0,1,3.81-.49,156.52,156.52,0,0,0,25,0,7,7,0,0,1,3.83.44c1.29,1,1.39,2.48,1.56,3.93a30.28,30.28,0,0,1-1,7.87,5.06,5.06,0,0,1-1.91,3.24c-2.07,2.18-3.81,4.67-6.53,6.2a39.08,39.08,0,0,1-6,2.24Z"/><path class="cls-2" d="M236.13,80.67a21.69,21.69,0,0,1,12-8.44h5.76a21.69,21.69,0,0,1,12,8.44c2.95,3.17,2.66,7.16,2.8,11-.27,1.38-.18,2.88-1.39,3.94a6.4,6.4,0,0,1-3.81.49,156.39,156.39,0,0,0-25,0,6.85,6.85,0,0,1-3.82-.45c-1.29-1-1.16-2.55-1.46-3.93C233.49,87.88,233.15,83.86,236.13,80.67Z"/><path class="cls-2" d="M80.66,266a21.69,21.69,0,0,1-8.43-12v-5.76a21.72,21.72,0,0,1,8.42-12c1.66-1.79,3.85-2.24,6.13-2.42a47.6,47.6,0,0,0,4.92-.31c1.48,0,2.91.07,4,1.32a5.68,5.68,0,0,1,.48,3.3,172.12,172.12,0,0,0,0,26,5.85,5.85,0,0,1-.44,3.3c-1,1.29-2.46,1.42-3.93,1.51a26.47,26.47,0,0,1-8.61-1.18A4.34,4.34,0,0,1,80.66,266Z"/><path class="cls-2" d="M429.87,253.41c-1.06,5.36-4.18,9.34-8.44,12.56-3.16,3-7.17,2.64-11.05,2.84-1.42-.18-2.88-.23-3.94-1.43a5.49,5.49,0,0,1-.49-3.29,163.46,163.46,0,0,0,0-25.71,6.53,6.53,0,0,1,.44-3.57c1-1.33,2.55-1.16,4-1.3,2.07.21,4.17,0,6.23.34a7.57,7.57,0,0,1,4.85,2.28c2.18,2.07,4.67,3.81,6.2,6.53a39.08,39.08,0,0,1,2.24,6Z"/><path class="cls-3" d="M421.43,236.13c-3.5-1.46-7.24-1.68-10.95-2.09-1-1.11-.4-2.33-.2-3.5a111.43,111.43,0,0,0,2-22.9c-.71-20.11-5.33-39.19-15.39-56.76q-24.68-43.08-72.44-56.72a108.55,108.55,0,0,0-39.88-3.94c-4.61.43-9.19,1-13.74,1.74-.94.17-1.91.44-2.74-.34a35.59,35.59,0,0,0-2.08-11c39.19-7.5,75.06.16,106.78,24.52,29.11,22.34,45.73,52.14,50.39,88.57A124.39,124.39,0,0,1,421.43,236.13Z"/><path class="cls-3" d="M410.49,268.06A35.83,35.83,0,0,0,421.43,266c8,42.18-1.51,79.89-29.25,112.71-17.38,20.55-39.46,34.05-65.35,41.12A129,129,0,0,1,266,421.43a36.25,36.25,0,0,0,2.09-10.9c1.17-.69,2.38-.33,3.57-.12a119.41,119.41,0,0,0,65.75-6.82,120.6,120.6,0,0,0,65.84-65.32A119.48,119.48,0,0,0,411.84,302a122.14,122.14,0,0,0-1.66-31C410,270,409.68,269,410.49,268.06Z"/><path class="cls-3" d="M91.58,234.07c-3.7.35-7.43.61-10.93,2.07-5.91-29.12-2.87-57.25,10.24-84,16.6-33.83,43.13-56.6,78.91-68.26,21.71-7.07,43.94-7.82,66.33-3.25a35.07,35.07,0,0,0-2.09,11c-1,.9-2.16.45-3.24.25A117.53,117.53,0,0,0,163.35,99a115.67,115.67,0,0,0-31.93,19.71A118.26,118.26,0,0,0,92.51,183.8a109.94,109.94,0,0,0-2.3,34c.39,4.35,1,8.66,1.63,13C92,231.89,92.44,233,91.58,234.07Z"/><path class="cls-3" d="M80.66,266a35.72,35.72,0,0,0,10.93,2.1c1,1.31.33,2.71.11,4a118.07,118.07,0,0,0-1.87,22.37,120.66,120.66,0,0,0,10.1,46.45,119.42,119.42,0,0,0,94.43,70.37,123,123,0,0,0,36.69-1c1-.18,2.06-.59,3,.24a35.29,35.29,0,0,0,2.09,10.9c-49.56,8.95-91.67-4.74-125.64-42-17.34-19-27.43-41.77-31.24-67.19A126.52,126.52,0,0,1,80.66,266Z"/><path class="cls-4" d="M267.5,406.78c-7.37.56-14.75.61-22.13.61-3.65,0-7.24-.92-10.9-.45a2.84,2.84,0,0,1-2.48.39,168.17,168.17,0,0,1-43.83-12.1c-1.19-.51-2.45-1-3.15-2.19-.43-1.19.14-2.22.6-3.24,4.33-9.59,8.87-19.09,13.32-28.63,1-2.21,1.93-4.48,3-6.64.54-1.06,1-2.31,2.43-2.47,5.25,1.6,10.23,3.94,15.53,5.43a111.22,111.22,0,0,0,39.55,4.11,115.2,115.2,0,0,0,36.12-9,5.84,5.84,0,0,1,2-.55c1.5.11,2,1.34,2.46,2.41,5.4,11.88,11.13,23.6,16.49,35.5a4.12,4.12,0,0,1,.55,3c-.71,1.35-2.08,1.79-3.35,2.34A160.88,160.88,0,0,1,271.88,407,8.57,8.57,0,0,1,267.5,406.78Z"/><path class="cls-4" d="M234.51,95.22c7-.32,14-.69,21.05-.46,4,.12,8,.36,11.94.55,2.53-.88,5-.1,7.47.28a156.48,156.48,0,0,1,39.66,11.64,4.56,4.56,0,0,1,2.46,1.83c.47,1.4-.31,2.53-.85,3.7-5.35,11.61-10.83,23.16-16.18,34.77-.5,1.09-.88,2.34-2.37,2.51-4.69-1.35-9.11-3.45-13.79-4.86a111.07,111.07,0,0,0-41.56-4.66A113.27,113.27,0,0,0,207,149.3a7.48,7.48,0,0,1-2.49.75c-1.5-.11-2-1.33-2.46-2.41-5.4-11.88-11.13-23.6-16.48-35.49a4.08,4.08,0,0,1-.56-3c.71-1.36,2.07-1.8,3.34-2.34A160.24,160.24,0,0,1,230.4,95.11C231.77,94.93,233.16,94.61,234.51,95.22Z"/><path class="cls-4" d="M95.21,234.51c1.21-5.95,1.78-12,3.2-17.92a157.67,157.67,0,0,1,10.79-31.4c1-.61,1.86-.12,2.72.27,12,5.54,24,11.26,36,16.71a3.42,3.42,0,0,1,2.16,1.78c.23,1.3-.45,2.37-.92,3.48a110.8,110.8,0,0,0-9,45.56,109.53,109.53,0,0,0,8.79,41.4,7.51,7.51,0,0,1,1,3.73c-.46,1.31-1.71,1.68-2.79,2.17-11.8,5.36-23.45,11-35.28,16.34-.86.39-1.74.87-2.72.32-7.66-15.6-11.47-32.3-14-49.34-.14-6.34-.52-12.68-.52-19C94.66,243.87,95.34,239.21,95.21,234.51Z"/><path class="cls-4" d="M392.87,185.15A152.66,152.66,0,0,1,406.31,232a5.32,5.32,0,0,0,.55,2.51c.28,6.67.75,13.33.53,20-.15,4.33-.4,8.66-.61,13-.68,4.24-1.26,8.5-2.07,12.71a150.85,150.85,0,0,1-11.85,36.73c-1.09.6-2,0-2.95-.43-11.43-5.09-22.64-10.62-34.05-15.74-1.38-.62-3-1-3.76-2.61,0-2.45,1.27-4.49,2.12-6.66a109.8,109.8,0,0,0,7.71-40.3,112.29,112.29,0,0,0-8.81-43.49c-.49-1.2-1.17-2.35-1-3.73.46-1.31,1.71-1.68,2.78-2.17,11.8-5.36,23.45-11,35.28-16.33C391,185.09,391.88,184.6,392.87,185.15Z"/><path class="cls-5" d="M149.77,298.27c2.75-1.28,5.54-2.49,8.25-3.87,1.38-.7,2-.56,2.74.93,8,16.53,19.91,29.64,35.15,39.81a85.66,85.66,0,0,0,10.85,6.21c1.42.68,1.71,1.29,1,2.73-1.36,2.71-2.52,5.52-3.77,8.29q-9.43,20.14-18.86,40.3c-1.24,2.58-2.62,5.12-3.68,7.77-.82,2.05-1.55,2.53-3.75,1.44a172.6,172.6,0,0,1-46-33.21A169.26,169.26,0,0,1,100.2,324.3c-1-1.92-.83-2.79,1.27-3.61,2.66-1,5.17-2.48,7.74-3.74l30.36-14Z"/><path class="cls-5" d="M298.11,352.37c-1.2-2.7-2.28-5.45-3.64-8.06-.86-1.64-.5-2.27,1.1-3.08A102.21,102.21,0,0,0,330.31,313a93.11,93.11,0,0,0,10.92-17.42c.8-1.69,1.49-1.88,3.08-1,2.6,1.38,5.34,2.51,8,3.75Q371.16,307,390,315.74c.94.44,1.92.8,2.88,1.2,2.65,1.31,5.23,2.77,8,3.87,1.87.75,2.05,1.49,1.19,3.24a170.61,170.61,0,0,1-33.1,46.08,172.72,172.72,0,0,1-44.53,31.74c-2.18,1.09-2.92.66-3.74-1.42-1.05-2.66-2.44-5.19-3.69-7.78Q307.55,372.53,298.11,352.37Z"/><path class="cls-5" d="M204,149.74c1.25,2.76,2.45,5.55,3.76,8.29.57,1.19.67,1.87-.77,2.58-20.61,10.16-35.89,25.69-46.21,46.14-.74,1.45-1.33,1.67-2.73,1-2.7-1.38-5.49-2.59-8.25-3.87l-37-17.1c-1.18-.54-2.37-1-3.55-1.55a42.5,42.5,0,0,0-8-3.89c-1.86-.78-2-1.52-1.18-3.26a170,170,0,0,1,77.62-77.81c2.19-1.09,2.94-.64,3.76,1.42,1.05,2.66,2.44,5.19,3.68,7.78Q194.56,129.57,204,149.74Z"/><path class="cls-5" d="M352.33,203.83c-2.6,1.2-5.28,2.27-7.79,3.64-1.77,1-2.54.67-3.45-1.15A100.69,100.69,0,0,0,309.21,169a79,79,0,0,0-13.86-8.28c-1.46-.65-1.71-1.28-1-2.71,1.36-2.71,2.52-5.53,3.76-8.3q9.39-20.14,18.79-40.3c1.31-2.65,2.73-5.25,3.88-8,.76-1.8,1.43-2.29,3.39-1.32a170.13,170.13,0,0,1,56.73,45,174.32,174.32,0,0,1,21.11,33c.86,1.72.74,2.49-1.16,3.24-2.74,1.09-5.32,2.56-8,3.86l-30.58,14.09Z"/><circle cx="84.37" cy="251.73" r="3.77"/><circle cx="250.9" cy="84.37" r="3.77"/><circle cx="418.26" cy="250.9" r="3.77"/><circle cx="250.9" cy="418.26" r="3.77"/></svg>